<?xml version="1.0" standalone="no"?>
<!DOCTYPE svg PUBLIC "-//W3C//DTD SVG 1.1//EN" "http://www.w3.org/Graphics/SVG/1.1/DTD/svg11.dtd" >
<svg xmlns="http://www.w3.org/2000/svg" xmlns:xlink="http://www.w3.org/1999/xlink" version="1.1">
<metadata>
Created by FontForge 20170731 at Thu May 19 09:59:17 2022
 By Aleksey,,,
Copyright (c) 2003-2022 SIL International
</metadata>
<defs>
<font id="GentiumBookPlus" horiz-adv-x="0" >
  <font-face 
    font-family="Gentium Book Plus"
    font-weight="400"
    font-stretch="normal"
    units-per-em="2048"
    panose-1="2 0 5 3 6 0 0 2 0 4"
    ascent="1638"
    descent="-410"
    x-height="930"
    cap-height="1260"
    bbox="-1395 -950 4492 2600"
    underline-thickness="100"
    underline-position="-400"
    unicode-range="U+0020-1DF1E"
  />
<missing-glyph horiz-adv-x="1400" 
d="M100 1800h1200v-1800h-1200v1800zM150 50h1100v1700h-1100v-1700z" />
    <glyph glyph-name="f_i" unicode="fi" horiz-adv-x="1232" 
d="M842 1454q0 -15 -27 -42.5t-60 -53t-53 -35.5q-47 48 -94.5 70t-75.5 22q-34 0 -70.5 -32.5t-61.5 -119t-25 -247.5v-86h255l32 -31q-19 -30 -49.5 -64t-48.5 -45q-24 12 -66.5 23.5t-122.5 11.5v-713q0 -12 45 -24.5t162 -34.5v-53h-524v53q68 12 102.5 29.5t34.5 29.5
v713h-129l-23 31l78 74h74v31q0 142 25 231.5t68 147t96 103.5q61 53 133.5 80t118.5 27q47 0 94.5 -19t79.5 -42t32 -35zM1075 1261q0 -60 -38.5 -101t-95.5 -41q-101 0 -101 101q0 61 38.5 101t93.5 40q47 0 75 -25t28 -75zM725 0v53q137 28 137 61v549q0 68 -6 102
t-34.5 47.5t-96.5 20.5v50q70 12 143 32t130 45h44v-846q0 -12 32.5 -29.5t105.5 -31.5v-53h-455z" />
    <glyph glyph-name="f_l" unicode="fl" horiz-adv-x="1232" 
d="M842 1454q0 -15 -27 -42.5t-60 -53t-53 -35.5q-47 48 -94.5 70t-75.5 22q-34 0 -70.5 -32.5t-61.5 -119t-25 -247.5v-86h255l32 -31q-19 -30 -49.5 -64t-48.5 -45q-24 12 -66.5 23.5t-122.5 11.5v-713q0 -12 45 -24.5t162 -34.5v-53h-524v53q68 12 102.5 29.5t34.5 29.5
v713h-129l-23 31l78 74h74v31q0 142 25 231.5t68 147t96 103.5q61 53 133.5 80t118.5 27q47 0 94.5 -19t79.5 -42t32 -35zM715 0v53q86 15 116.5 30t30.5 31v1172q0 59 -11 84.5t-40.5 34.5t-85.5 15v50q81 14 146 31t133 49l38 -36v-1400q0 -15 33 -31t115 -30v-53h-475z
" />
    <glyph glyph-name="f_f_i" unicode="ffi" horiz-adv-x="1888" 
d="M842 1454q0 -15 -27 -42.5t-60 -53t-53 -35.5q-47 48 -94.5 70t-75.5 22q-34 0 -70.5 -32.5t-61.5 -119t-25 -247.5v-86h255l32 -31q-19 -30 -49.5 -64t-48.5 -45q-24 12 -66.5 23.5t-122.5 11.5v-713q0 -12 45 -24.5t162 -34.5v-53h-524v53q68 12 102.5 29.5t34.5 29.5
v713h-129l-23 31l78 74h74v31q0 142 25 231.5t68 147t96 103.5q61 53 133.5 80t118.5 27q47 0 94.5 -19t79.5 -42t32 -35zM1499 1454q0 -15 -27 -42.5t-60 -53t-53 -35.5q-47 48 -94.5 70t-75.5 22q-34 0 -70.5 -32.5t-61.5 -119t-25 -247.5v-86h255l32 -31
q-19 -30 -49.5 -64t-48.5 -45q-24 12 -66.5 23.5t-122.5 11.5v-713q0 -12 45 -24.5t162 -34.5v-53h-524v53q68 12 102.5 29.5t34.5 29.5v713h-129l-23 31l78 74h74v31q0 142 25 231.5t68 147t96 103.5q61 53 133.5 80t118.5 27q47 0 94.5 -19t79.5 -42t32 -35zM1731 1261
q0 -60 -38.5 -101t-95.5 -41q-101 0 -101 101q0 61 38.5 101t93.5 40q47 0 75 -25t28 -75zM1381 0v53q137 28 137 61v549q0 68 -6 102t-34.5 47.5t-96.5 20.5v50q70 12 143 32t130 45h44v-846q0 -12 32.5 -29.5t105.5 -31.5v-53h-455z" />
    <glyph glyph-name="f_f_l" unicode="ffl" horiz-adv-x="1888" 
d="M842 1454q0 -15 -27 -42.5t-60 -53t-53 -35.5q-47 48 -94.5 70t-75.5 22q-34 0 -70.5 -32.5t-61.5 -119t-25 -247.5v-86h255l32 -31q-19 -30 -49.5 -64t-48.5 -45q-24 12 -66.5 23.5t-122.5 11.5v-713q0 -12 45 -24.5t162 -34.5v-53h-524v53q68 12 102.5 29.5t34.5 29.5
v713h-129l-23 31l78 74h74v31q0 142 25 231.5t68 147t96 103.5q61 53 133.5 80t118.5 27q47 0 94.5 -19t79.5 -42t32 -35zM1499 1454q0 -15 -27 -42.5t-60 -53t-53 -35.5q-47 48 -94.5 70t-75.5 22q-34 0 -70.5 -32.5t-61.5 -119t-25 -247.5v-86h255l32 -31
q-19 -30 -49.5 -64t-48.5 -45q-24 12 -66.5 23.5t-122.5 11.5v-713q0 -12 45 -24.5t162 -34.5v-53h-524v53q68 12 102.5 29.5t34.5 29.5v713h-129l-23 31l78 74h74v31q0 142 25 231.5t68 147t96 103.5q61 53 133.5 80t118.5 27q47 0 94.5 -19t79.5 -42t32 -35zM1371 0v53
q86 15 116.5 30t30.5 31v1172q0 59 -11 84.5t-40.5 34.5t-85.5 15v50q81 14 146 31t133 49l38 -36v-1400q0 -15 33 -31t115 -30v-53h-475z" />
    <glyph glyph-name="f_f" unicode="ff" horiz-adv-x="1313" 
d="M842 1454q0 -15 -27 -42.5t-60 -53t-53 -35.5q-47 48 -94.5 70t-75.5 22q-34 0 -70.5 -32.5t-61.5 -119t-25 -247.5v-86h255l32 -31q-19 -30 -49.5 -64t-48.5 -45q-24 12 -66.5 23.5t-122.5 11.5v-713q0 -12 45 -24.5t162 -34.5v-53h-524v53q68 12 102.5 29.5t34.5 29.5
v713h-129l-23 31l78 74h74v31q0 142 25 231.5t68 147t96 103.5q61 53 133.5 80t118.5 27q47 0 94.5 -19t79.5 -42t32 -35zM1499 1454q0 -15 -27 -42.5t-60 -53t-53 -35.5q-47 48 -94.5 70t-75.5 22q-34 0 -70.5 -32.5t-61.5 -119t-25 -247.5v-86h255l32 -31
q-19 -30 -49.5 -64t-48.5 -45q-24 12 -66.5 23.5t-122.5 11.5v-713q0 -12 45 -24.5t162 -34.5v-53h-524v53q68 12 102.5 29.5t34.5 29.5v713h-129l-23 31l78 74h74v31q0 142 25 231.5t68 147t96 103.5q61 53 133.5 80t118.5 27q47 0 94.5 -19t79.5 -42t32 -35z" />
    <glyph glyph-name=".notdef" horiz-adv-x="1400" 
d="M100 1800h1200v-1800h-1200v1800zM150 50h1100v1700h-1100v-1700z" />
    <glyph glyph-name=".null" 
 />
    <glyph glyph-name="nonmarkingreturn" horiz-adv-x="1024" 
 />
    <glyph glyph-name="space" unicode=" " horiz-adv-x="451" 
 />
    <glyph glyph-name="exclam" unicode="!" horiz-adv-x="582" 
d="M343 397q-19 -14 -39 -23t-45 -16l-29 21l-57 1009q40 25 94 51.5t90 40.5l45 -27zM419 126q0 -73 -44.5 -119.5t-108.5 -46.5q-115 0 -115 120q0 71 46 118.5t108 47.5q51 0 82.5 -30.5t31.5 -89.5z" />
    <glyph glyph-name="quotedbl" unicode="&#x22;" horiz-adv-x="900" 
d="M695 834q-15 -8 -49 -14.5t-57 -6.5l-63 603q14 9 51 23t74 26t52 15l45 -23zM322 834q-15 -8 -49 -14.5t-57 -6.5l-63 603q15 9 52 23t73.5 26t50.5 15l46 -23z" />
    <glyph glyph-name="numbersign" unicode="#" horiz-adv-x="986" 
d="M1002 941q-4 -22 -16 -52.5t-20 -47.5h-753l-25 24q5 22 17 51.5t19 49.5h753zM598 170q-18 -13 -47 -23.5t-55 -19.5l-26 20l315 1104q21 16 48.5 24t51.5 17l27 -22zM292 170q-18 -13 -46 -23.5t-54 -19.5l-26 20l315 1104q21 16 48.5 24t49.5 17l29 -22zM893 568
q-4 -19 -14.5 -50t-18.5 -48h-756l-22 25q5 20 15.5 50t19.5 50h754z" />
    <glyph glyph-name="dollar" unicode="$" horiz-adv-x="986" 
d="M540 -138q-30 -26 -71 -36l-29 25v1500q27 17 34.5 21.5t36.5 11.5l29 -24v-1498zM452 -10q-95 0 -179.5 27t-175.5 84q-9 7 -12 56t1 109t14 97l53 -4q112 -240 349 -240q57 0 110 24t86.5 69.5t33.5 109.5q0 81 -46 131t-119 82t-154.5 60t-154.5 65t-119 95.5
t-46 153.5q0 46 21 99t70 100t131 76.5t205 29.5q101 0 192.5 -27t131.5 -68q8 -9 -6.5 -43.5t-37.5 -70.5t-40 -52l-49 8q-104 148 -247 148q-118 0 -168.5 -48t-50.5 -105q0 -65 46.5 -106t120.5 -70.5t156.5 -59t156.5 -71.5t120.5 -107.5t46.5 -166.5q0 -89 -47.5 -178
t-145 -148t-247.5 -59z" />
    <glyph glyph-name="percent" unicode="%" horiz-adv-x="1439" 
d="M1371 309q0 -92 -41.5 -169t-110.5 -123.5t-153 -46.5q-83 0 -146.5 46.5t-99 123.5t-35.5 169q0 93 41 170t110 123t154 46q86 0 149 -46t97.5 -122.5t34.5 -170.5zM363 14q-19 -13 -66.5 -26.5t-72.5 -20.5l-24 34l875 1191q25 14 66.5 26t70.5 19l28 -32zM656 897
q0 -92 -41.5 -169.5t-111 -123.5t-153.5 -46t-147.5 46t-98.5 123.5t-35 169.5t40.5 169t109.5 123t154 46q86 0 149.5 -45.5t98.5 -122.5t35 -170zM1207 289q0 143 -42 211.5t-99 68.5q-46 0 -80.5 -57t-34.5 -180q0 -145 38 -214t101 -69q50 0 83.5 59t33.5 181zM491 877
q0 144 -42.5 211.5t-98.5 67.5q-47 0 -81.5 -57t-34.5 -179q0 -145 38 -214t101 -69q50 0 84 59t34 181z" />
    <glyph glyph-name="ampersand" unicode="&#x26;" horiz-adv-x="1384" 
d="M1369 748q-54 -66 -104 -101q-37 17 -85.5 29.5t-81.5 13.5q21 -33 27 -64.5t6 -82.5q0 -87 -48.5 -186t-134.5 -187.5t-200 -144t-245 -55.5q-194 0 -311 97.5t-117 284.5q0 135 111.5 273t327.5 258q127 72 168.5 147t41.5 141q0 70 -34.5 117.5t-96.5 47.5
q-66 0 -98.5 -63.5t-32.5 -142.5q0 -95 44 -204t117 -221t161 -217t177 -193t163 -148q83 -70 194 -44l11 -53q-86 -38 -157.5 -59t-92.5 -21q-27 0 -93.5 49t-154.5 134t-180 195.5t-171.5 234t-128.5 249.5t-49 241q0 108 48.5 193t127.5 134.5t171 49.5q90 0 144 -34.5
t78.5 -90.5t24.5 -121q0 -104 -76 -201t-194 -171q-139 -88 -216.5 -163t-108.5 -146.5t-31 -149.5q0 -93 39.5 -155t102 -93t131.5 -31q99 0 181 39.5t141.5 101.5t92 133t32.5 134q0 84 -49.5 140t-108.5 56l-24 30q10 13 34 32t45 27h456z" />
    <glyph glyph-name="quotesingle" unicode="'" horiz-adv-x="527" 
d="M322 834q-15 -8 -49 -14.5t-57 -6.5l-63 603q15 9 52 23t73.5 26t50.5 15l46 -23z" />
    <glyph glyph-name="parenleft" unicode="(" horiz-adv-x="659" 
d="M586 -315q-156 76 -260.5 215.5t-157 325t-52.5 397.5q0 219 58 412.5t163.5 340t248.5 224.5l39 -55q-84 -75 -154.5 -203t-112.5 -302.5t-42 -388.5q0 -194 36 -369.5t105 -315t168 -226.5z" />
    <glyph glyph-name="parenright" unicode=")" horiz-adv-x="659" 
d="M545 663q0 -219 -58.5 -413t-164 -341t-247.5 -224l-39 55q84 75 154 203t112.5 303t42.5 389q0 193 -35.5 369t-104.5 315.5t-169 225.5l39 55q155 -75 260 -215t157.5 -325t52.5 -397z" />
    <glyph glyph-name="asterisk" unicode="*" horiz-adv-x="912" 
d="M493 1199l246 192q21 -14 56.5 -39t51.5 -41l-2 -46l-314 -130l290 -118q-2 -24 -6 -67.5t-11 -65.5l-42 -22l-267 207l42 -308q-21 -13 -60.5 -30.5t-61.5 -21.5l-41 23l46 337l-246 -192q-22 13 -58 38.5t-49 41.5l1 47l315 129l-291 118q1 24 5 68t11 64l41 22
l269 -207l-43 310q22 11 62.5 29.5t62.5 23.5l38 -26z" />
    <glyph glyph-name="plus" unicode="+" horiz-adv-x="848" 
d="M789 596q-5 -20 -16.5 -49t-19.5 -45h-667l-28 26q6 21 16.5 48t19.5 47h668zM487 232q-46 -22 -98 -33l-27 24v672q18 6 47 16t51 15l27 -25v-669z" />
    <glyph glyph-name="comma" unicode="," horiz-adv-x="497" 
d="M420 70q0 -59 -31 -132.5t-86.5 -144.5t-128.5 -123l-53 40q56 65 83 128t27 150q0 44 -31 74t-96 25l-16 57q9 12 40 28t71 32t77.5 26t57.5 9q48 -22 67 -63.5t19 -105.5z" />
    <glyph glyph-name="hyphen" unicode="-" horiz-adv-x="703" 
d="M644 549q-6 -22 -17 -52t-19 -47h-522l-28 27q6 21 16.5 50t19.5 48h523z" />
    <glyph glyph-name="period" unicode="." horiz-adv-x="497" 
d="M399 126q0 -73 -44.5 -119.5t-108.5 -46.5q-115 0 -115 120q0 71 46 118.5t108 47.5q51 0 82.5 -30.5t31.5 -89.5z" />
    <glyph glyph-name="slash" unicode="/" horiz-adv-x="966" 
d="M221 -281q-20 -14 -66 -30t-71 -24l-40 28l701 1856q27 17 66.5 30.5t68.5 20.5l39 -24z" />
    <glyph glyph-name="zero" unicode="0" horiz-adv-x="986" 
d="M915 602q0 -172 -55.5 -315.5t-154 -230t-229.5 -86.5t-221 86.5t-137 230t-47 315.5t54.5 316t153.5 230.5t231 86.5t222.5 -85.5t136.5 -229.5t46 -318zM719 565q0 274 -72.5 412t-170.5 138q-99 0 -153.5 -109.5t-54.5 -360.5q0 -274 67.5 -414.5t174.5 -140.5
q101 0 155 111t54 364z" />
    <glyph glyph-name="one" unicode="1" horiz-adv-x="986" 
d="M165 0v63q157 19 213.5 44t56.5 46v777q0 40 -3 62.5t-15 35.5t-69.5 13.5t-189.5 -27.5l-24 61q42 11 103 32t126 46.5t121.5 49.5t91.5 42l39 -37v-1055q0 -19 49.5 -45t200.5 -45v-63h-700z" />
    <glyph glyph-name="two" unicode="2" horiz-adv-x="986" 
d="M851 0h-729l-29 74q177 206 289.5 345t174 230.5t85.5 155t24 119.5q0 90 -43 152t-143 62q-55 0 -94.5 -32.5t-60 -80.5t-17.5 -96q-34 -19 -73.5 -34t-84.5 -20l-30 43q0 51 35.5 106.5t96 103.5t137 77.5t159.5 29.5q132 0 218.5 -67t86.5 -206q0 -67 -29.5 -137.5
t-95 -162t-173 -218t-263.5 -305.5h412q34 0 54 28t30.5 64.5t14 64.5l3.5 28l60 -14z" />
    <glyph glyph-name="three" unicode="3" horiz-adv-x="986" 
d="M855 381q0 -112 -51 -205.5t-147 -149.5t-233 -56q-79 0 -171 34t-182 120l36 77q91 -67 157.5 -92.5t141.5 -25.5q112 0 184.5 70t72.5 198q0 97 -38.5 155.5t-94.5 84t-110 25.5q-28 0 -35 -1t-38 -6l-15 70q120 32 178 77.5t77 94t19 89.5q0 46 -17.5 91.5t-54 75.5
t-95.5 30q-72 0 -112.5 -50.5t-26.5 -118.5q-36 -19 -77.5 -32t-88.5 -17l-30 41q0 56 53 120t141.5 109.5t197.5 45.5q107 0 173.5 -41t97.5 -104.5t31 -131.5q0 -75 -58 -147.5t-155 -112.5q78 -9 139 -53.5t96 -113.5t35 -150z" />
    <glyph glyph-name="four" unicode="4" horiz-adv-x="986" 
d="M902 435q-21 -32 -42.5 -52.5t-44.5 -37.5h-65v-231q0 -15 28.5 -28.5t110.5 -32.5v-53h-519v53q131 22 170.5 38.5t39.5 33.5v220h-489l-36 36l491 791q43 17 87 37t78 36l39 -37v-743h126zM580 1020l-354 -555h354v555z" />
    <glyph glyph-name="five" unicode="5" horiz-adv-x="986" 
d="M864 410q0 -116 -47 -216.5t-139 -162t-227 -61.5q-93 0 -189.5 36.5t-182.5 116.5l40 74q105 -73 179 -95t131 -22q80 0 135 40t84 105.5t29 141.5q0 137 -67 216.5t-196 79.5q-56 0 -116.5 -21.5t-112.5 -61.5l-47 33q9 54 21.5 133t25 164.5t22.5 163.5t13 131h466
q57 0 89 9l32 9l31 -31q-22 -33 -59 -75t-60 -59h-402q-2 -39 -10 -99.5t-16.5 -117.5t-14.5 -87q88 31 205 31q125 0 210.5 -53t129 -138.5t43.5 -183.5z" />
    <glyph glyph-name="six" unicode="6" horiz-adv-x="986" 
d="M911 412q0 -70 -25 -147t-74 -144t-122 -109t-169 -42q-115 0 -209.5 63t-150.5 176.5t-56 263.5q0 189 77 353t233 276.5t393 146.5l22 -69q-187 -42 -304.5 -142t-172.5 -232t-55 -269q0 -237 71 -345.5t186 -108.5q67 0 105 40.5t53.5 102t15.5 122.5q0 125 -34 191.5
t-83.5 91t-96.5 24.5q-58 0 -130.5 -43t-131.5 -135l-15 106q78 106 171 149t155 43q164 0 255.5 -99.5t91.5 -263.5z" />
    <glyph glyph-name="seven" unicode="7" horiz-adv-x="986" 
d="M910 1167q-69 -161 -137.5 -325.5t-128.5 -316t-106.5 -275.5t-72.5 -203q-36 -25 -84.5 -44.5t-97.5 -32.5l-44 36q116 204 201 379t156 339t145 334h-452q-19 0 -39 -5.5t-43 -36.5t-52 -108l-53 20q4 31 11.5 85.5t16.5 108.5t17 83h730z" />
    <glyph glyph-name="eight" unicode="8" horiz-adv-x="986" 
d="M897 352q0 -103 -58 -190t-156 -139.5t-217 -52.5q-121 0 -205.5 44.5t-128 116.5t-43.5 154q0 112 79.5 206t208.5 160l83 -37q-93 -70 -135.5 -138.5t-42.5 -160.5q0 -104 63.5 -170.5t164.5 -66.5q67 0 110 33.5t64 86.5t21 111q0 90 -41 145.5t-105.5 91.5
t-136.5 65.5t-136 65.5t-105 92t-41 146q0 93 49.5 165t134 113.5t188.5 41.5q163 0 249 -75t86 -191q0 -91 -72 -163.5t-177 -139.5l-83 43q81 56 115.5 114t34.5 115q-1 104 -56.5 150t-142.5 46q-82 0 -122.5 -58t-40.5 -126q0 -63 42.5 -104t110.5 -72t144 -63
t143.5 -76.5t110.5 -112t43 -170.5z" />
    <glyph glyph-name="nine" unicode="9" horiz-adv-x="986" 
d="M900 731q0 -202 -76.5 -365.5t-233 -269.5t-395.5 -139l-20 69q203 51 319 142t165 215.5t49 276.5q0 183 -35.5 283.5t-88 140t-104.5 39.5q-96 0 -149 -74t-53 -193t35 -183t84.5 -88.5t93.5 -24.5q87 0 156.5 62t108.5 147l13 -115q-50 -94 -141.5 -155t-186.5 -61
q-111 0 -188 47.5t-117.5 129t-40.5 180.5q0 76 31 153.5t87.5 142.5t133.5 104.5t169 39.5q103 0 190.5 -52t140.5 -163.5t53 -288.5z" />
    <glyph glyph-name="colon" unicode=":" horiz-adv-x="497" 
d="M399 126q0 -73 -44.5 -119.5t-108.5 -46.5q-115 0 -115 120q0 71 46 118.5t108 47.5q51 0 82.5 -30.5t31.5 -89.5zM399 851q0 -73 -44.5 -119.5t-108.5 -46.5q-115 0 -115 120q0 71 46 118.5t108 47.5q51 0 82.5 -30.5t31.5 -89.5z" />
    <glyph glyph-name="semicolon" unicode=";" horiz-adv-x="497" 
d="M420 70q0 -59 -31 -132.5t-86.5 -144.5t-128.5 -123l-53 40q56 65 83 128t27 150q0 44 -31 74t-96 25l-16 57q9 12 40 28t71 32t77.5 26t57.5 9q48 -22 67 -63.5t19 -105.5zM399 851q0 -73 -44.5 -119.5t-108.5 -46.5q-115 0 -115 120q0 71 46 118.5t108 47.5
q51 0 82.5 -30.5t31.5 -89.5z" />
    <glyph glyph-name="less" unicode="&#x3c;" horiz-adv-x="909" 
d="M851 879q-5 -21 -15 -56t-16 -54l-734 -269l-28 29q6 20 15.5 53t18.5 53l732 271zM851 326q-22 -21 -41.5 -38.5t-49.5 -36.5l-674 249l-28 29q6 20 15.5 53t18.5 53l740 -271z" />
    <glyph glyph-name="equal" unicode="=" horiz-adv-x="909" 
d="M851 744q-5 -20 -16.5 -48.5t-17.5 -45.5h-731l-28 27q6 21 16.5 48t19.5 46h730zM851 444q-5 -21 -16.5 -48.5t-17.5 -45.5h-731l-28 29q6 20 16.5 46t19.5 46h730z" />
    <glyph glyph-name="greater" unicode="&#x3e;" horiz-adv-x="909" 
d="M851 628q-5 -21 -14.5 -52.5t-18.5 -55.5l-732 -269l-28 28q7 19 16.5 54.5t16.5 53.5l543 200l-556 205l-20 40q23 19 47 38.5t45 35.5l675 -248z" />
    <glyph glyph-name="question" unicode="?" horiz-adv-x="902" 
d="M826 1165q0 -90 -33 -160.5t-82.5 -129.5t-100 -116.5t-87 -121.5t-41.5 -144l-6 -96q-19 -14 -37.5 -24t-46.5 -17l-27 23l-8 114q-4 68 22.5 134.5t67.5 130.5t83 125.5t71 120.5t29 116q0 123 -51.5 190t-144.5 67q-65 0 -113.5 -56.5t-48.5 -134.5q0 -14 3.5 -30
t8.5 -30q-33 -17 -83 -29t-94 -17l-30 33q-1 7 -1.5 18.5t-0.5 19.5q0 94 60.5 168.5t160 117.5t214.5 43q153 0 234.5 -87.5t81.5 -227.5zM562 126q0 -73 -44.5 -119.5t-108.5 -46.5q-115 0 -115 120q0 71 46 118.5t108 47.5q51 0 82.5 -30.5t31.5 -89.5z" />
    <glyph glyph-name="at" unicode="@" horiz-adv-x="1701" 
d="M1626 557q0 -129 -42.5 -236.5t-110 -186t-146 -121.5t-150.5 -43q-52 0 -92 41t-55 141q-54 -72 -93.5 -111.5t-78 -55t-91.5 -15.5q-68 0 -136 54.5t-113 159.5t-45 258q0 89 29.5 180t86 167.5t136.5 123.5t179 47q46 0 81 -16.5t86 -75.5q68 33 132 92l31 -30
l-7.5 -30.5t-15 -79.5t-7.5 -104v-431q0 -158 96 -158q33 0 75.5 49t74 136.5t31.5 199.5q0 226 -74 380.5t-204 234t-300 79.5q-153 0 -274 -55t-205.5 -150.5t-129 -218.5t-44.5 -258q0 -184 54 -327.5t148.5 -243t216.5 -151.5t259 -52q118 0 222.5 29t183.5 69.5
t119 74.5l34 -65q-48 -52 -133.5 -109t-205 -96.5t-269.5 -39.5q-236 0 -417 103.5t-284 295t-103 453.5q0 174 67.5 331.5t186.5 281t276 194.5t337 71q204 0 358 -88.5t240 -263.5t86 -434zM1024 731q-26 52 -58 82t-88 30q-103 0 -164 -91.5t-61 -278.5
q0 -114 30.5 -192.5t75.5 -119.5t89 -41q39 0 73.5 28t102.5 112v471z" />
    <glyph glyph-name="A" unicode="A" horiz-adv-x="1242" 
d="M385 440l-106 -319q-10 -31 26 -45t118 -23v-53h-423v53q68 12 107 25t49 43l364 1106q31 30 74 52.5t78 37.5l420 -1196q10 -28 37 -44t92 -24v-53h-447v53q77 5 106.5 20t18.5 48l-110 319h-404zM754 540l-172 498l-164 -498h336z" />
    <glyph glyph-name="B" unicode="B" horiz-adv-x="1161" 
d="M1054 356q0 -170 -131 -270t-346 -100q-61 0 -142 2.5t-163.5 5.5t-148.5 6l247 106q31 -17 83 -22.5t97 -5.5q144 0 225.5 68.5t81.5 180.5q0 74 -32 147.5t-103 122.5t-187 49q-66 0 -115.5 -7t-93.5 -16l-10 107h93q145 0 219.5 36.5t100.5 92t26 112.5q0 100 -69 164
t-255 64q-53 0 -121 -5.5t-137 -14t-125 -18.5l-11 69q55 15 132 28.5t161 22.5t159 9q210 0 332 -72t122 -198q0 -107 -54 -185t-149 -112q90 -16 161 -68t112 -129t41 -170zM48 0v53q67 14 104.5 31t37.5 30v1096l190 21v-1119q0 -12 32.5 -30t105.5 -31v-51h-470z" />
    <glyph glyph-name="C" unicode="C" horiz-adv-x="1113" 
d="M1036 211q-128 -135 -240.5 -188t-219.5 -53q-95 0 -186.5 41.5t-164.5 121t-116.5 194t-43.5 259.5q0 213 83.5 371t223.5 245.5t309 87.5q107 0 195.5 -29.5t140.5 -70.5q7 -6 -11 -37.5t-43.5 -65.5t-40.5 -50l-45 9q-51 60 -120 93.5t-155 33.5q-51 0 -111.5 -28
t-114.5 -91.5t-88.5 -169t-34.5 -261.5q0 -175 62 -290t155 -171.5t186 -56.5q54 0 141.5 34t196.5 125q10 -6 24 -25.5t18 -27.5z" />
    <glyph glyph-name="D" unicode="D" horiz-adv-x="1244" 
d="M48 0v53q67 14 104.5 31t37.5 30v1065q-77 -11 -142 -21l-11 72q61 17 147.5 30.5t179.5 21.5t174 8q288 0 453 -162t165 -452q0 -187 -54.5 -316.5t-141 -209t-187.5 -115t-194 -35.5h-66h-139.5h-129h-162.5h-34zM552 92q65 0 135 32.5t130.5 99.5t98 169.5t37.5 243.5
q0 266 -124.5 414t-357.5 148q-44 0 -91 -3v-1037q0 -44 54.5 -55.5t117.5 -11.5z" />
    <glyph glyph-name="E" unicode="E" horiz-adv-x="1036" 
d="M914 1233q-2 -34 -8.5 -81.5t-15.5 -91.5t-17 -70h-55q-4 92 -24.5 131t-57.5 39h-408l29 100h522zM811 705q-16 -28 -43 -64.5t-49 -51.5q-31 29 -72.5 42t-125.5 13h-207l22 91h447zM979 264q-7 -86 -20 -160.5t-21 -103.5h-890v53q67 14 104.5 31t37.5 30v1031
q0 12 -35 30t-107 32v53h477v-53q-67 -7 -106 -16.5t-39 -23.5v-1003q0 -19 14.5 -33.5t58 -22.5t131.5 -8h119q62 0 100.5 13.5t66.5 53.5t56 118z" />
    <glyph glyph-name="F" unicode="F" horiz-adv-x="999" 
d="M922 1233q-1 -34 -7.5 -81.5t-15 -91.5t-16.5 -70h-57q-3 92 -23.5 131t-58.5 39h-416l29 100h532zM783 705q-19 -30 -46 -65.5t-48 -50.5q-29 29 -71.5 42t-125.5 13h-239l55 91h444zM48 0v53q67 14 104.5 31t37.5 30v1031q0 12 -35 30t-107 32v53h477v-53
q-54 -7 -99.5 -16.5t-45.5 -23.5v-1053q0 -12 37 -27t136 -34v-53h-505z" />
    <glyph glyph-name="G" unicode="G" horiz-adv-x="1207" 
d="M1160 562q-57 -13 -79.5 -36t-22.5 -46v-321l-27.5 -11.5t-63 -25.5t-62.5 -22.5t-27 -1.5v382q0 22 -36.5 42.5t-154.5 39.5v53h473v-53zM1060 1188q9 -7 -10 -36.5t-46.5 -62t-44.5 -48.5l-43 9q-66 74 -139.5 99.5t-168.5 25.5q-37 0 -96.5 -26t-119 -87t-99.5 -165
t-40 -260q0 -183 59 -301.5t151.5 -175.5t191.5 -57q102 0 175.5 29t125.5 78q9 -4 32 -14.5t44.5 -21t25.5 -15.5q-99 -81 -174.5 -121.5t-137.5 -54t-123 -13.5q-103 0 -202.5 37.5t-180 113.5t-128 191.5t-47.5 269.5q0 222 91 380.5t244.5 243t341.5 84.5q44 0 102 -12
t115 -34.5t101 -55.5z" />
    <glyph glyph-name="H" unicode="H" horiz-adv-x="1359" 
d="M818 0v53q67 14 104.5 31t37.5 30v1031q0 12 -35 30t-107 32v53h475v-53q-68 -14 -105.5 -31t-37.5 -31v-1031q0 -12 35.5 -29.5t107.5 -31.5v-53h-475zM352 610v100h628v-100h-628zM48 0v53q67 14 104.5 31t37.5 30v1031q0 12 -35 30t-107 32v53h475v-53
q-68 -14 -105.5 -31t-37.5 -31v-1031q0 -12 35 -29.5t108 -31.5v-53h-475z" />
    <glyph glyph-name="I" unicode="I" horiz-adv-x="630" 
d="M68 0v53q67 14 104.5 31t37.5 30v1031q0 12 -35 30t-107 32v53h475v-53q-68 -14 -105.5 -31t-37.5 -31v-1031q0 -12 35.5 -29.5t107.5 -31.5v-53h-475z" />
    <glyph glyph-name="J" unicode="J" horiz-adv-x="645" 
d="M578 1207q-68 -14 -105.5 -31t-37.5 -31v-947q0 -155 -31 -247.5t-79.5 -148t-100.5 -97.5q-54 -44 -127.5 -70.5t-121.5 -26.5q-47 0 -90.5 15.5t-71.5 36t-28 33.5q0 12 25.5 38t57.5 50.5t51 31.5q55 -41 92 -54t76 -13q35 0 71.5 29.5t61.5 111.5t25 239v1019
q0 12 -36 28.5t-156 33.5v53h525v-53z" />
    <glyph glyph-name="K" unicode="K" horiz-adv-x="1212" 
d="M1140 1207q-64 -8 -99 -18t-66 -44l-463 -502h-139l404 475q45 54 28.5 68t-95.5 21v53h430v-53zM1204 42q-58 -19 -124 -37.5t-114 -18.5q-30 0 -52 9t-42 34l-499 614l124 78l526 -581q34 -39 78 -45t96 0zM48 0v53q67 14 104.5 31t37.5 30v1031q0 12 -35 30t-107 32
v53h475v-53q-68 -14 -105.5 -31t-37.5 -31v-1031q0 -12 35 -29.5t108 -31.5v-53h-475z" />
    <glyph glyph-name="L" unicode="L" horiz-adv-x="998" 
d="M969 264q-7 -86 -20 -160.5t-21 -103.5h-880v53q67 14 104.5 31t37.5 30v1031q0 12 -35 30t-107 32v53h475v-53q-68 -14 -105.5 -31t-37.5 -31v-971q0 -35 38.5 -54.5t147.5 -19.5h133q62 0 99 13.5t63.5 53.5t54.5 118z" />
    <glyph glyph-name="M" unicode="M" horiz-adv-x="1679" 
d="M1123 0v53q67 14 109.5 31t42.5 30l-10 1033l180 57l10 -1090q0 -12 36.5 -29.5t108.5 -31.5v-53h-477zM1578 1207q-45 0 -107.5 -23t-115.5 -58.5t-70 -74.5l-452 -1051h-4q-23 126 -26.5 178t10.5 84l395 914q25 60 36 72t30 12h304v-53zM843 264q14 -31 12.5 -84.5
t-26.5 -179.5h-60l-457 1054q-26 60 -70 93.5t-91 46.5t-83 13v53h306q19 0 30.5 -15t35.5 -69zM58 0v53q142 28 142 61l10 1072l126 25l-11 -1097q0 -12 35.5 -29.5t107.5 -31.5v-53h-410z" />
    <glyph glyph-name="N" unicode="N" horiz-adv-x="1339" 
d="M1293 1207q-72 -10 -107.5 -29t-35.5 -33v-1113l-130 39v1074q0 12 -31 31.5t-111 30.5v53h415v-53zM1150 -30q-65 7 -103.5 26t-55.5 43l-753 1044q-41 57 -89.5 86.5t-100.5 37.5v53h234q29 0 44 -13t52 -65l649 -896q14 -20 43.5 -58t54.5 -69l25 -31v-158zM48 0v53
q73 9 107.5 28.5t34.5 32.5v1072l130 35v-1107q0 -12 32.5 -31t110.5 -30v-53h-415z" />
    <glyph glyph-name="O" unicode="O" horiz-adv-x="1244" 
d="M584 -30q-122 0 -218 52.5t-163 142.5t-101.5 205.5t-34.5 241.5q0 136 43.5 258.5t121.5 217t183 148.5t227 54q127 0 223.5 -54t162 -145.5t99 -206.5t33.5 -237q0 -136 -46 -258t-126 -216.5t-183.5 -148.5t-220.5 -54zM618 95q155 0 254.5 134.5t99.5 399.5
q0 104 -26 200.5t-74.5 173.5t-116 122t-149.5 45q-167 0 -259.5 -142t-92.5 -387q0 -149 50 -273.5t132.5 -198.5t181.5 -74z" />
    <glyph glyph-name="P" unicode="P" horiz-adv-x="1101" 
d="M1017 936q0 -104 -41 -180.5t-105 -126.5t-135.5 -74.5t-132.5 -24.5q-96 0 -163 30l-26 85q41 -19 77.5 -24.5t71.5 -5.5q60 0 121.5 31t103.5 93t42 156q0 105 -47.5 172t-128 99.5t-181.5 32.5q-105 0 -217 -12t-208 -29l-11 72q101 26 234.5 43t258.5 17
q221 0 354 -91t133 -263zM48 0v53q67 14 104.5 31t37.5 30v1089h190v-1089q0 -12 34 -28t139 -33v-53h-505z" />
    <glyph glyph-name="Q" unicode="Q" horiz-adv-x="1244" 
d="M1158 647q0 -136 -45.5 -258t-125.5 -216.5t-184 -148.5t-220 -54q-115 0 -210 51t-164 140t-106.5 205t-37.5 246q0 136 43.5 258.5t122 217t183 148.5t227.5 54q126 0 222.5 -54t162 -145.5t99 -206.5t33.5 -237zM1327 -119q-47 -87 -100.5 -140t-84.5 -53
q-80 0 -159.5 45t-158.5 107t-158 114.5t-158 65.5l24.5 5.5t59 12.5t65.5 10.5t45 0.5q61 -15 120 -47.5t115.5 -67.5t109.5 -59.5t101 -24.5q25 0 55 15.5t90 60.5zM971 629q0 104 -26.5 200.5t-75 173.5t-116 122t-149.5 45q-166 0 -258.5 -142t-92.5 -387
q0 -149 49.5 -273.5t132.5 -198.5t182 -74q154 0 254 134.5t100 399.5z" />
    <glyph glyph-name="R" unicode="R" horiz-adv-x="1179" 
d="M962 987q0 -128 -64 -215.5t-172 -132t-240 -44.5q-28 0 -57.5 3.5t-60.5 10.5l-6 90q35 -6 58.5 -8t48.5 -2q150 0 228 69.5t78 197.5q0 104 -74.5 173.5t-250.5 69.5q-88 0 -194 -12.5t-208 -28.5l-11 72q98 23 207 41.5t245 18.5q245 0 359 -87t114 -216zM1174 42
q-66 -22 -135.5 -39t-108.5 -17q-28 0 -56 16.5t-42 38.5l-305 571l119 66l342 -524q31 -43 68.5 -54t105.5 -5zM48 0v53q67 14 104.5 31t37.5 30v1100h190v-1100q0 -12 35 -29.5t108 -31.5v-53h-475z" />
    <glyph glyph-name="S" unicode="S" horiz-adv-x="1000" 
d="M770 1045l-46 6q-52 75 -117 104t-122 29q-108 0 -155.5 -55t-47.5 -112q0 -63 45.5 -108.5t117.5 -82.5t152.5 -75.5t152 -87.5t117.5 -118t46 -168q0 -67 -28.5 -138t-85.5 -132t-144 -99t-205 -38q-68 0 -160.5 26.5t-163.5 71.5q-7 4 -10.5 35t-3.5 76t4 89.5
t13 75.5l51 -5q45 -118 132 -179.5t189 -61.5q60 0 116.5 28.5t93.5 79t37 113.5q0 81 -45.5 134.5t-116.5 91.5t-151 73.5t-151.5 78.5t-116.5 107t-45 161q0 46 23 102t73 107t129.5 83.5t193.5 32.5q96 0 184.5 -26t125.5 -66q9 -8 -5 -39.5t-36.5 -65t-39.5 -48.5z" />
    <glyph glyph-name="T" unicode="T" horiz-adv-x="1148" 
d="M1106 1233q-2 -51 -11.5 -120.5t-21.5 -132.5h-55q-19 93 -33.5 136.5t-56.5 43.5h-367l29 100h483zM182 1160q-20 0 -36.5 -14t-35.5 -54t-49 -118l-53 21q4 59 14.5 136t20.5 129h577l23 -100h-461zM305 0v53q92 19 126.5 38.5t34.5 33.5v1042q0 12 -34 19t-106 21v53
h473v-53q-67 -14 -105 -20t-38 -20v-1042q0 -13 34.5 -33t127.5 -39v-53h-513z" />
    <glyph glyph-name="U" unicode="U" horiz-adv-x="1349" 
d="M1288 1207q-68 -14 -105.5 -31t-37.5 -31v-621q0 -262 -129 -408t-345 -146q-137 0 -246 51t-172 156t-63 267v701q0 12 -35 30t-107 32v53h475v-53q-68 -14 -105.5 -31t-37.5 -31v-646q0 -192 83.5 -298t254.5 -106q95 0 157.5 57t93.5 147t31 189v657q0 12 -35 30
t-107 32v53h430v-53z" />
    <glyph glyph-name="V" unicode="V" horiz-adv-x="1341" 
d="M1303 1207q-68 -13 -107 -25.5t-48 -40.5l-381 -1074q-10 -30 -41 -49.5t-66 -31t-58 -16.5l-445 1171q-19 50 -139 66v53h460v-53q-80 -6 -108.5 -20.5t-17.5 -43.5l344 -912l323 910q10 29 -23 42.5t-114 23.5v53h421v-53z" />
    <glyph glyph-name="W" unicode="W" horiz-adv-x="1741" 
d="M1712 1207q-88 -18 -118.5 -32t-33.5 -30l-229 -1086q-6 -28 -32.5 -46.5t-57.5 -28t-51 -14.5l-331 952l-287 -863q-15 -43 -64 -61.5t-90 -27.5l-260 1167q-5 25 -36 41t-102 29v53h449v-53q-97 -10 -117.5 -29t-15.5 -41l189 -842l314 965h70l347 -965l179 850
q4 23 -41.5 37t-112.5 25v53h431v-53z" />
    <glyph glyph-name="X" unicode="X" horiz-adv-x="1270" 
d="M1193 1207q-73 -8 -115 -24.5t-68 -59.5l-375 -599l-56 148l282 451q27 45 -2.5 61t-118.5 23v53h453v-53zM763 0v53q88 9 110.5 26.5t-5.5 57.5l-673 986q-31 44 -60.5 59t-95.5 25v53h481v-53q-85 -8 -111 -24t4 -60l673 -986q29 -43 63 -59.5t93 -24.5v-53h-479z
M360 137q-29 -44 -1.5 -61t120.5 -23v-53h-450v53q64 5 110 24t72 60l385 615l43 -174z" />
    <glyph glyph-name="Y" unicode="Y" horiz-adv-x="1230" 
d="M1191 1207q-68 -13 -103.5 -26.5t-49.5 -39.5l-358 -654h-142q-36 83 -84 176t-100.5 183t-101.5 167t-86 128q-19 22 -49 37.5t-113 15.5l-4 53q59 8 126 15.5t108 7.5q53 0 86 -41q49 -65 106 -157t113.5 -194t102.5 -198l257 461q15 26 -9.5 41t-101.5 25v53h403v-53z
M355 0v53q91 19 126.5 38.5t35.5 33.5v512h190v-512q0 -13 34.5 -33t128.5 -39v-53h-515z" />
    <glyph glyph-name="Z" unicode="Z" horiz-adv-x="1086" 
d="M1009 313q-2 -43 -4.5 -101.5t-4.5 -115.5t-3 -96h-909l-31 48l698 1102h-436q-33 0 -73.5 -52.5t-62.5 -156.5l-67 14l32 321q54 -12 92.5 -14t97.5 -2h633l28 -45l-693 -1105h501q42 0 70 48.5t67 171.5z" />
    <glyph glyph-name="bracketleft" unicode="[" horiz-adv-x="650" 
d="M615 -241q-4 -20 -14 -48.5t-17 -45.5h-449v1935h443l35 -28q-4 -25 -13.5 -55t-15.5 -42h-279v-1685h273z" />
    <glyph glyph-name="backslash" unicode="\" horiz-adv-x="961" 
d="M873 -335q-24 8 -66.5 24t-60.5 30l-696 1857l40 24q29 -7 63 -20.5t62 -30.5l695 -1856z" />
    <glyph glyph-name="bracketright" unicode="]" horiz-adv-x="630" 
d="M73 -335l-36 31q3 23 12 52t16 42h280v1685h-272l-38 29q3 21 13 50t17 46h450v-1935h-442z" />
    <glyph glyph-name="asciicircum" unicode="^" horiz-adv-x="1008" 
d="M907 635q-43 -41 -106 -70l-37 27l-283 723l-250 -680q-21 -20 -54.5 -40t-53.5 -30l-23 27l322 870q25 23 65 49t68 39z" />
    <glyph glyph-name="underscore" unicode="_" horiz-adv-x="805" 
d="M838 -158q-5 -21 -16 -50.5t-19 -47.5h-805l-27 29q5 20 16 48t20 48h805z" />
    <glyph glyph-name="grave" unicode="`" horiz-adv-x="653" 
d="M443 1081q-10 -9 -29.5 -20t-36.5 -16l-362 377l24 46q13 3 48 9t71 12t52 8z" />
    <glyph glyph-name="a" unicode="a" horiz-adv-x="968" 
d="M956 92q-85 -58 -151.5 -90t-97.5 -32q-37 0 -60.5 52.5t-23.5 141.5v533q0 66 -32.5 110.5t-122.5 42.5q-59 -1 -108 -37t-43 -96q1 -10 -24.5 -22t-62 -23t-69 -17t-44.5 -3l-16 44q31 71 104.5 131t168 96.5t188.5 36.5q118 0 179.5 -61.5t61.5 -163.5v-537
q0 -78 40 -78q14 0 35 5.5t61 21.5zM633 483q-105 -17 -164 -33t-90 -34t-52 -39q-26 -27 -42 -60t-16 -78q0 -50 18.5 -77t43 -37t41.5 -10q54 0 118 29.5t143 99.5l8 -87q-94 -101 -187 -144t-161 -43q-51 0 -101 23t-83.5 72t-33.5 126q0 74 26 123.5t63 86.5
q32 33 80 61.5t138.5 54t250.5 49.5v-83z" />
    <glyph glyph-name="b" unicode="b" horiz-adv-x="1060" 
d="M975 497q0 -87 -37.5 -179.5t-104.5 -171t-157.5 -127.5t-196.5 -49q-44 0 -140 34t-204 92v1190q0 59 -9 85t-36.5 34.5t-81.5 14.5v50q74 15 139.5 32t128.5 48q21 -18 39 -36v-762q100 109 194 158.5t151 49.5q140 0 227.5 -124t87.5 -339zM811 411q0 199 -72 300.5
t-167 101.5q-35 0 -106 -38.5t-151 -141.5v-425q80 -54 154.5 -74.5t107.5 -20.5q77 0 129.5 42t78.5 110.5t26 145.5z" />
    <glyph glyph-name="c" unicode="c" horiz-adv-x="908" 
d="M858 190q-87 -101 -151 -147.5t-119 -59.5t-118 -13q-101 0 -191.5 56.5t-147 163t-56.5 254.5q0 144 68 261t186 186t266 69q66 0 141 -22t109 -57q3 -16 -8 -56.5t-27.5 -81t-28.5 -58.5l-47 10q-22 56 -75.5 103t-148.5 47q-66 0 -124.5 -40t-94.5 -122t-36 -208
q0 -111 40.5 -192.5t107.5 -125.5t144 -44q38 0 71 6.5t78 33t118 86.5z" />
    <glyph glyph-name="d" unicode="d" horiz-adv-x="1093" 
d="M1081 94q-186 -124 -247 -124q-43 0 -66 73t-23 239v982q0 74 -7 108.5t-36.5 46.5t-98.5 17v49q91 11 164 29.5t125 35.5l33 -32v-1249q0 -70 6 -100.5t17 -42.5q9 -10 33 -6t82 27zM819 245q-72 -88 -132.5 -149.5t-123 -93.5t-142.5 -32q-79 0 -159 56.5t-133.5 163
t-53.5 254.5q0 91 34.5 182t98 167t150.5 121.5t193 45.5q60 0 121 -20.5t139 -96.5q0 -60 -13.5 -87t-45.5 -46q-33 63 -93 98t-134 35q-118 0 -194 -89t-76 -271q0 -111 39 -192.5t96 -126t112 -44.5q73 0 140 55t138 122q12 -6 23.5 -25t15.5 -27z" />
    <glyph glyph-name="e" unicode="e" horiz-adv-x="961" 
d="M886 555q-18 -21 -53 -40.5t-67 -31.5h-584l2 97h475q23 0 30.5 7.5t7.5 28.5q0 37 -15.5 92.5t-57.5 98.5t-123 43q-116 0 -179.5 -100t-63.5 -255q0 -104 33 -191t96 -139t152 -52q42 0 81.5 8t90.5 36t127 87q13 -7 25.5 -24t16.5 -25q-90 -96 -155 -144.5t-124 -64.5
t-131 -16q-106 0 -196 58t-144.5 163t-54.5 246q0 135 56.5 251t159.5 188q47 33 113.5 58.5t127.5 25.5q98 0 165.5 -36.5t109.5 -96.5t60.5 -131.5t18.5 -140.5z" />
    <glyph glyph-name="f" unicode="f" horiz-adv-x="657" 
d="M842 1454q0 -15 -27 -42.5t-60 -53t-53 -35.5q-47 48 -94.5 70t-75.5 22q-34 0 -70.5 -32.5t-61.5 -119t-25 -247.5v-86h255l32 -31q-19 -30 -49.5 -64t-48.5 -45q-24 12 -66.5 23.5t-122.5 11.5v-713q0 -12 45 -24.5t162 -34.5v-53h-524v53q68 12 102.5 29.5t34.5 29.5
v713h-129l-23 31l78 74h74v31q0 142 25 231.5t68 147t96 103.5q61 53 133.5 80t118.5 27q47 0 94.5 -19t79.5 -42t32 -35z" />
    <glyph glyph-name="g" unicode="g" horiz-adv-x="1019" 
d="M993 -115q0 -78 -45.5 -147.5t-120.5 -122t-166 -82.5t-181 -30q-73 0 -152.5 15t-148 47.5t-111.5 84t-43 124.5q0 36 23 77t89.5 92t196.5 118l22 -2t45 -8.5t26 -20.5q-103 -56 -150 -96.5t-59.5 -69.5t-12.5 -51q0 -53 45.5 -96.5t122 -70t167.5 -26.5q129 0 202 63
t73 155q0 33 -23 61t-84 49.5t-177 35.5q-197 23 -278 67t-81 92q0 20 37 67.5t153 122.5l155 17q-89 -60 -118.5 -100.5t-29.5 -48.5q0 -15 18 -28.5t70.5 -26.5t157.5 -26q149 -17 231 -52t114.5 -82.5t32.5 -100.5zM1012 928q-11 -26 -23.5 -53.5t-33.5 -51.5
q-54 -9 -111 -14t-142 -2l-44 82q122 7 203.5 30.5t127.5 40.5zM853 641q0 -102 -58.5 -180t-150.5 -122t-194 -44q-101 0 -181.5 38t-127 107t-46.5 162q0 98 57.5 179.5t149.5 130t196 48.5q101 0 181 -43.5t127 -116t47 -159.5zM683 600q0 105 -64 180t-188 75
q-33 0 -71.5 -22t-66.5 -65.5t-28 -108.5q0 -105 61 -179.5t191 -74.5q58 0 112 49t54 146z" />
    <glyph glyph-name="h" unicode="h" horiz-adv-x="1150" 
d="M668 0v53q137 36 137 61v499q0 122 -29.5 161t-93.5 39q-65 0 -146.5 -59.5t-165.5 -174.5v-465q0 -15 36.5 -31t101.5 -30v-53h-455v53q66 17 101.5 31t35.5 30v1174q0 56 -7.5 81t-36.5 34.5t-93 16.5v50q94 16 154.5 33.5t123.5 46.5l39 -36v-797q96 116 206 179.5
t188 63.5q86 0 153.5 -55t67.5 -176v-615q0 -13 29.5 -27t108.5 -34v-53h-455z" />
    <glyph glyph-name="i" unicode="i" horiz-adv-x="575" 
d="M418 1261q0 -60 -38.5 -101t-95.5 -41q-101 0 -101 101q0 61 38.5 101t93.5 40q47 0 75 -25t28 -75zM68 0v53q137 28 137 61v549q0 68 -6 102t-34.5 47.5t-96.5 20.5v50q70 12 143 32t130 45h44v-846q0 -12 32.5 -29.5t105.5 -31.5v-53h-455z" />
    <glyph glyph-name="j" unicode="j" horiz-adv-x="550" 
d="M414 1261q0 -60 -38 -101t-95 -41q-102 0 -102 101q0 61 38.5 101t93.5 40q47 0 75 -25t28 -75zM380 102q0 -154 -28.5 -247.5t-74.5 -150.5t-99 -99q-54 -42 -121 -72t-111 -30q-45 0 -88.5 14t-71.5 32t-28 30q0 14 27 41t61 53t54 35q32 -32 72.5 -45t77.5 -13
t71.5 32.5t56.5 117.5t22 243v620q0 68 -6 101.5t-34.5 47t-96.5 21.5v50q90 15 146.5 33t123.5 44h47v-858z" />
    <glyph glyph-name="k" unicode="k" horiz-adv-x="1040" 
d="M1008 877q-44 -4 -83.5 -17.5t-81.5 -46.5l-403 -317l-95 30l299 263q44 39 45.5 57.5t-23.5 24.5t-60 6v53h402v-53zM34 0v53q66 17 101.5 30t35.5 31v1172q0 59 -10.5 85t-40 34.5t-86.5 14.5v50q78 14 150 32t128 48l39 -36v-1400q0 -15 18 -26.5t92 -34.5v-53h-427z
M1043 23q-59 -13 -120 -23t-82 -10q-76 0 -117 53l-377 483l127 76l411 -478q28 -33 60.5 -42.5t91.5 -5.5z" />
    <glyph glyph-name="l" unicode="l" horiz-adv-x="575" 
d="M58 0v53q86 15 116.5 30t30.5 31v1172q0 59 -11 84.5t-40.5 34.5t-85.5 15v50q81 14 146 31t133 49l38 -36v-1400q0 -15 33 -31t115 -30v-53h-475z" />
    <glyph glyph-name="m" unicode="m" horiz-adv-x="1673" 
d="M1194 0v53q72 19 101.5 33.5t29.5 27.5v509q0 123 -26 161.5t-84 38.5q-59 0 -132 -58t-145 -162v-489q0 -13 28.5 -27t107.5 -34v-53h-448v53q72 19 102 33.5t30 27.5v509q0 123 -24.5 161.5t-83.5 38.5q-60 0 -129.5 -57.5t-150.5 -162.5v-489q0 -33 135 -61v-53h-452
v53q66 17 101.5 31t35.5 30v590q0 53 -7.5 77.5t-36.5 34t-93 17.5v50q85 12 145 31.5t120 45.5l37 -37l11 -194q97 121 186 176t161 55q95 0 155 -48.5t64 -158.5l1 -19q93 116 182.5 171t162.5 55q95 0 161 -55t66 -176v-615q0 -13 31 -27t110 -34v-53h-452z" />
    <glyph glyph-name="n" unicode="n" horiz-adv-x="1150" 
d="M668 0v53q137 36 137 61v504q0 118 -27 156.5t-93 38.5q-57 0 -137.5 -51.5t-177.5 -182.5v-465q0 -15 36.5 -31t101.5 -30v-53h-455v53q66 17 101.5 31t35.5 30v590q0 52 -6.5 76.5t-35.5 34.5t-95 18v50q76 10 139.5 29.5t125.5 47.5l37 -37l11 -214
q97 122 208.5 186.5t189.5 64.5q86 0 153.5 -55t67.5 -176v-615q0 -13 29.5 -27t108.5 -34v-53h-455z" />
    <glyph glyph-name="o" unicode="o" horiz-adv-x="1045" 
d="M970 485q0 -100 -37 -192t-102 -165t-149.5 -115.5t-177.5 -42.5q-130 0 -226.5 62t-149.5 169t-53 243q0 99 35.5 191.5t99.5 166t149 116t184 42.5q129 0 225 -62t149 -169t53 -244zM783 450q0 106 -39 195.5t-100.5 144.5t-129.5 55q-96 0 -150.5 -49t-77.5 -133.5
t-23 -189.5t41.5 -193.5t103.5 -141.5t124 -53q134 0 192.5 98t58.5 267z" />
    <glyph glyph-name="p" unicode="p" horiz-adv-x="1105" 
d="M646 -30q-124 0 -276 123v-458q0 -16 37.5 -32t131.5 -30v-53h-486v53q66 16 101.5 30.5t35.5 31.5v1069q0 50 -8 76.5t-37 38t-92 14.5v50q84 15 142 32t123 45l37 -37l9 -173q104 112 195.5 161t148.5 49q136 0 229 -120.5t93 -344.5q0 -91 -33.5 -183.5t-89.5 -170
t-124 -124.5t-137 -47zM623 820q-36 0 -100.5 -38.5t-152.5 -148.5v-415q95 -66 157 -85.5t114 -19.5q97 0 160.5 80t63.5 233q0 120 -34.5 208.5t-90 137t-117.5 48.5z" />
    <glyph glyph-name="q" unicode="q" horiz-adv-x="1078" 
d="M573 -480v53q93 14 131.5 29.5t38.5 32.5v1206q21 7 56.5 29t70 48t50.5 42l34 -32l-15.5 -64t-15.5 -154v-1075q0 -16 30 -32t106 -30v-53h-486zM817 245q-73 -88 -133.5 -149.5t-124.5 -93.5t-145 -32q-76 0 -154 56.5t-131.5 163t-53.5 254.5q0 117 43.5 206.5
t102.5 149.5t106 88q56 32 117 52t107 20q60 0 120 -21t138 -99q0 -60 -13.5 -86.5t-45.5 -46.5q-31 63 -94 99.5t-133 36.5q-71 0 -132 -39t-98.5 -118.5t-37.5 -200.5q0 -113 38 -195t95 -126t112 -44q73 0 140 55t137 122q13 -6 24 -25t16 -27z" />
    <glyph glyph-name="r" unicode="r" horiz-adv-x="844" 
d="M805 921q9 -6 7.5 -39t-11 -78.5t-22 -89t-24.5 -70.5h-53q-11 81 -40.5 121t-70.5 40q-43 0 -106 -63.5t-115 -220.5v-407q0 -15 39 -31t133 -30v-53h-489v53q137 31 137 61v565q0 66 -7 92t-16 35q-13 13 -36 18.5t-78 8.5v50q79 15 141.5 32t123.5 45l37 -37l13 -200
q54 100 128.5 168.5t160.5 68.5q34 0 73 -9t75 -30z" />
    <glyph glyph-name="s" unicode="s" horiz-adv-x="813" 
d="M727 283q0 -106 -42.5 -169t-104 -94t-121 -40.5t-93.5 -9.5q-53 0 -125.5 17.5t-139.5 55.5q-7 4 -9.5 33.5t-1.5 71.5t5.5 83.5t12.5 69.5l55 -11q10 -92 80 -152t168 -60q71 0 113.5 38t42.5 104q0 71 -61.5 115.5t-183.5 108.5q-56 29 -107 63.5t-83.5 80.5
t-32.5 110q0 83 45.5 141.5t118 89.5t153.5 31q70 0 151.5 -21t123.5 -56q8 -7 -1 -43.5t-24.5 -75.5t-26.5 -53l-49 8q-40 76 -90.5 111t-104.5 35q-64 0 -100 -35.5t-36 -76.5q0 -57 54.5 -96t168.5 -98q58 -30 114.5 -65.5t93.5 -85.5t37 -125z" />
    <glyph glyph-name="t" unicode="t" horiz-adv-x="723" 
d="M696 130q-109 -81 -200.5 -120.5t-144.5 -39.5q-74 0 -130 59.5t-56 199.5v596h-126l-24 31l78 74h72v234l147 119l33 -28v-325h320l31 -31q-19 -30 -50 -64t-51 -45q-24 12 -72.5 23.5t-120.5 11.5h-57v-508q0 -114 24 -156.5t76 -42.5q36 0 86.5 14t130.5 56z" />
    <glyph glyph-name="u" unicode="u" horiz-adv-x="1108" 
d="M1094 92q-73 -48 -145 -85t-96 -37q-36 0 -60.5 41.5t-32.5 144.5q-83 -79 -146.5 -119t-113 -53.5t-92.5 -13.5q-62 0 -117.5 25t-90.5 92t-35 192v425q0 63 -6.5 91t-33 37t-86.5 15v50q81 9 142.5 23t133.5 40l30 -41v-582q0 -135 37 -182t104 -47q57 0 122.5 34
t151.5 120v442q0 60 -9 89t-38 40t-90 14v50q81 9 152.5 26.5t132.5 36.5l32 -41v-655q0 -122 23 -140q11 -8 38 -3.5t78 26.5z" />
    <glyph glyph-name="v" unicode="v" horiz-adv-x="1020" 
d="M1002 877q-60 -14 -78.5 -26.5t-29.5 -41.5l-283 -742q-17 -45 -65.5 -67t-81.5 -30l-338 839q-11 26 -35 41.5t-73 26.5v53h408v-53q-77 -10 -99 -23t-9 -45l236 -595l221 595q11 30 -7 43.5t-89 24.5v53h323v-53z" />
    <glyph glyph-name="w" unicode="w" horiz-adv-x="1454" 
d="M1435 877q-60 -14 -77 -26.5t-23 -35.5l-221 -756q-8 -29 -35.5 -47.5t-57 -28t-46.5 -13.5l-264 701l20 259h27h39l257 -696l163 581q6 23 -16 37t-91 25v53h325v-53zM527 59q-15 -46 -62.5 -64.5t-73.5 -24.5l-264 845q-11 40 -109 62v53h408v-53q-94 -10 -110.5 -26.5
t-9.5 -35.5l175 -581l244 696h37h23l16 -125z" />
    <glyph glyph-name="x" unicode="x" horiz-adv-x="1043" 
d="M1005 877q-81 -6 -122.5 -29t-68.5 -60l-251 -343l-65 77l193 268q34 49 14.5 65t-81.5 22v53h381v-53zM597 0v53q33 3 59 9.5t32 24t-20 53.5l-472 648q-26 36 -57 59.5t-110 29.5v53h445v-53q-62 -6 -83.5 -22.5t12.5 -64.5l468 -644q22 -30 57 -57t101 -36v-53h-432z
M309 140q-26 -36 -14.5 -53.5t42.5 -24t62 -9.5v-53h-381v53q78 12 113 37t57 56l261 354l64 -80z" />
    <glyph glyph-name="y" unicode="y" horiz-adv-x="1020" 
d="M1002 877q-60 -14 -80 -26t-30 -41l-334 -889q-84 -222 -200.5 -320t-225.5 -98q-76 0 -130 19.5t-54 38.5q0 9 23 40t53 64t51 46q48 -30 96.5 -33t86.5 10q36 12 86 73t86 147l29 69l-330 832q-11 28 -36.5 42.5t-74.5 25.5v53h408v-53q-75 -10 -96.5 -22.5t-8.5 -45.5
l232 -592l220 592q11 31 -10.5 44t-92.5 24v53h332v-53z" />
    <glyph glyph-name="z" unicode="z" horiz-adv-x="896" 
d="M847 276q0 -42 -1.5 -98t-4 -105t-6.5 -73h-738l-26 45l546 785h-317q-36 0 -70.5 -36t-56.5 -134l-56 15l20 271q44 -12 78 -14t98 -2h515l22 -43l-549 -787h396q29 0 50 46t45 142z" />
    <glyph glyph-name="braceleft" unicode="{" horiz-adv-x="698" 
d="M664 1543q-78 -49 -130 -120.5t-52 -165.5q0 -75 10.5 -121t20.5 -92t10 -121q0 -83 -50.5 -158t-134.5 -112q100 -18 142.5 -88t42.5 -180q0 -77 -10 -131t-20.5 -103t-10.5 -113q0 -101 33 -162t139 -120l-28 -71q-173 68 -256.5 152.5t-83.5 229.5q0 76 10.5 125
t20.5 99.5t10 130.5q0 81 -39 120t-109 39q-28 0 -32 -0.5t-33 -5.5l-17 63q115 31 172.5 90.5t57.5 134.5q0 59 -6 97.5t-14.5 70.5t-14.5 70.5t-6 98.5q0 135 96 234t251 166z" />
    <glyph glyph-name="bar" unicode="|" horiz-adv-x="500" 
d="M325 -422q-18 -15 -53 -30.5t-59 -23.5l-38 25v2070q28 16 55 30t57 21l38 -24v-2068z" />
    <glyph glyph-name="braceright" unicode="}" horiz-adv-x="698" 
d="M603 646q-116 -31 -173.5 -89.5t-57.5 -134.5q0 -59 6 -97t14 -70t14 -70.5t6 -98.5q0 -135 -96 -234.5t-250 -166.5l-32 58q78 49 130 120.5t52 165.5q0 75 -10 121l-20 92t-10 122q0 83 50 156.5t136 110.5q-101 19 -143.5 89t-42.5 181q0 77 10 130.5t20 103t10 112.5
q0 102 -33.5 163t-138.5 119l28 71q174 -67 257 -152t83 -229q0 -76 -10 -125t-20 -99.5t-10 -130.5q0 -159 149 -159h30t35 6z" />
    <glyph glyph-name="asciitilde" unicode="~" horiz-adv-x="999" 
d="M955 777q-27 -66 -74.5 -136.5t-107.5 -119.5t-126 -49q-42 0 -88.5 24t-94.5 56t-95 56t-90 24q-95 0 -177 -162l-58 30q29 65 76 135.5t106.5 119.5t125.5 49q48 0 96.5 -24t95 -56t90.5 -56t85 -24q45 0 91 39t87 121z" />
    <glyph glyph-name="uni00A0" unicode="&#xa0;" horiz-adv-x="451" 
 />
    <glyph glyph-name="exclamdown" unicode="&#xa1;" horiz-adv-x="582" 
d="M419 841q0 -72 -45.5 -119.5t-107.5 -47.5q-52 0 -83 30.5t-31 91.5q0 72 44 118.5t109 46.5q114 0 114 -120zM399 -472q-41 -24 -94.5 -51.5t-89.5 -40.5l-45 26l57 1061q20 15 40 23t46 16l27 -19z" />
    <glyph glyph-name="cent" unicode="&#xa2;" horiz-adv-x="986" 
d="M583 -3q-18 -16 -33.5 -23t-39.5 -15l-27 28v1222q27 17 33.5 23t37.5 13l29 -24v-1224zM892 353q-87 -101 -150 -148.5t-119 -61.5t-121 -14q-96 0 -189 52.5t-153.5 154.5t-60.5 250q0 142 69 253.5t188.5 175.5t270.5 64q66 0 142.5 -21t110.5 -59q3 -15 -8.5 -51.5
t-27.5 -73t-28 -53.5l-45 12q-13 24 -41.5 54.5t-76 53.5t-116.5 23q-67 0 -127.5 -35.5t-98 -112t-37.5 -200.5q0 -115 41.5 -192.5t109.5 -117t149 -39.5q39 0 74.5 7.5t80.5 36.5t116 93z" />
    <glyph glyph-name="sterling" unicode="&#xa3;" horiz-adv-x="986" 
d="M891 1165q-1 -34 -7.5 -91t-15 -111.5t-16.5 -79.5h-57q-28 246 -227 246q-38 0 -77 -15t-68 -67t-39 -159.5t12 -292.5q17 -151 -15.5 -275t-92.5 -206q68 5 113 5.5t80.5 -1.5t74 -4t93.5 0q62 1 101.5 13t68 49.5t56.5 115.5l53 -20q-7 -87 -21.5 -165t-21.5 -107
q-54 -30 -132.5 -30t-169.5 12.5t-182.5 24t-173 6.5t-140.5 -43l-28 57q48 39 79 74t47 88t17.5 144.5t-10.5 244.5q-15 200 28.5 347.5t145.5 228.5t261 81q52 0 111.5 -11.5t152.5 -58.5zM650 531h-569l-24 28q4 15 12.5 36t14.5 37h569l27 -25z" />
    <glyph glyph-name="currency" unicode="&#xa4;" horiz-adv-x="986" 
d="M364 733q-55 -55 -55 -132q0 -76 54 -129q55 -55 132 -55q76 0 130 54q54 56 54 131q0 76 -55 131q-54 54 -129 54q-77 0 -131 -54zM290 807q43 43 96 64.5t109 21.5q117 0 203 -86q42 -42 64 -96.5t22 -110.5q0 -55 -21.5 -108.5t-63.5 -95.5q-41 -42 -94.5 -62.5
t-109.5 -20.5q-57 0 -110.5 21t-96.5 64q-42 42 -62.5 94.5t-20.5 107.5q0 56 21 110t64 97zM373 410l-164 -163l-36 2q-9 15 -18 33t-16 35l162 163l38 2zM295 730l-155 156l2 36q15 9 33 18t35 16l155 -155l2 -37zM776 248l-155 155l2 37q31 18 68 35l156 -157l1 -37z
M846 884l-163 -163l-37 2q-18 32 -34 68l164 164l37 1z" />
    <glyph glyph-name="yen" unicode="&#xa5;" horiz-adv-x="986" 
d="M234 0v53q90 19 125.5 38.5t35.5 33.5v295h-277l-22 25q4 15 12 37.5t14 38.5h273v42q-69 149 -151 291.5t-150 230.5q-18 23 -48 38t-114 15l-4 53q59 8 127.5 15.5t109.5 7.5q53 0 85 -41q75 -98 138.5 -208.5t133.5 -254.5l207 375q15 26 -9.5 41t-101.5 25v53h403
v-53q-68 -13 -103.5 -26.5t-49.5 -39.5l-283 -524v-40h270l25 -23l-29 -78h-266v-295q0 -13 35 -33t129 -39v-53h-515z" />
    <glyph glyph-name="brokenbar" unicode="&#xa6;" horiz-adv-x="500" 
d="M327 747q-21 -16 -55 -31t-59 -22l-39 24v901q29 16 55.5 30t57.5 21l40 -24v-899zM327 -422q-21 -16 -55 -31t-59 -23l-39 25v890q29 17 55.5 30.5t57.5 23.5l40 -27v-888z" />
    <glyph glyph-name="section" unicode="&#xa7;" horiz-adv-x="982" 
d="M447 -30q-53 0 -125.5 22t-139.5 59q-6 3 -9 32.5t-2 71.5t5.5 84t12.5 69l56 -11q10 -91 79.5 -156t167.5 -65q72 0 114.5 31t42.5 98q0 53 -38 89t-96.5 65.5t-118.5 62.5q-121 65 -201.5 144.5t-80.5 209.5q0 64 35 124.5t93 105.5t125 61l61 -79q-69 -9 -112 -55.5
t-43 -108.5q0 -60 29.5 -103.5t92 -85t159.5 -96.5q58 -29 117 -63.5t98.5 -83.5t39.5 -124q0 -106 -42.5 -166.5t-104.5 -88.5t-121.5 -35.5t-93.5 -7.5zM653 361l-98 85q66 1 110.5 46t44.5 105q0 95 -72.5 157.5t-224.5 144.5q-94 51 -163.5 122.5t-69.5 171.5
q0 83 46 137.5t118.5 82t152.5 27.5q71 0 152 -24.5t124 -59.5q8 -8 -1.5 -44.5t-25 -75.5t-26.5 -53l-49 8q-79 154 -195 154q-64 0 -100 -27.5t-36 -77.5q0 -68 60.5 -115t170.5 -108q82 -46 149 -92t107.5 -108t40.5 -157q0 -90 -35.5 -155t-86 -102t-93.5 -42z" />
    <glyph glyph-name="dieresis" unicode="&#xa8;" horiz-adv-x="801" 
d="M309 1263q0 -62 -37.5 -106t-91.5 -44q-96 0 -96 105q0 62 38.5 105.5t90.5 43.5q96 0 96 -104zM717 1263q0 -62 -37.5 -106t-92.5 -44q-95 0 -95 105q0 62 38.5 105.5t90.5 43.5q96 0 96 -104z" />
    <glyph glyph-name="copyright" unicode="&#xa9;" horiz-adv-x="1472" 
d="M735 -30q-139 0 -256 52.5t-203 145t-133.5 214t-47.5 261.5q0 138 47.5 260t133.5 214t203 144t256 52t256.5 -52t204 -144t134 -214t47.5 -260q0 -140 -47.5 -261.5t-134 -214t-204 -145t-256.5 -52.5zM713 223q-88 0 -169.5 46.5t-133 134.5t-51.5 210
q0 131 58.5 231.5t157.5 157.5t220 57q72 0 132 -20t95 -47q5 -6 -7.5 -35t-30 -59.5t-28.5 -41.5l-34 5q-31 41 -72.5 75t-106.5 34q-47 0 -101 -30.5t-91.5 -103t-37.5 -196.5q0 -102 45 -172t109 -106t121 -36q44 0 89 17.5t125 75.5l33 -37q-95 -95 -171.5 -127.5
t-150.5 -32.5zM735 68q159 0 282 77.5t193 208t70 289.5q0 157 -70 287t-193 208t-282 78q-157 0 -280 -78t-193 -208t-70 -287q0 -159 70 -289.5t193 -208t280 -77.5z" />
    <glyph glyph-name="ordfeminine" unicode="&#xaa;" horiz-adv-x="537" 
d="M526 779q-93 -63 -137 -63q-18 0 -34.5 32.5t-16.5 112.5v195q0 62 -14 94.5t-66 32.5q-30 0 -57 -23.5t-14 -63.5q2 -6 -23.5 -14.5t-54.5 -14t-38 -3.5l-9 22q9 43 52.5 79t97.5 57.5t95 21.5q72 0 104 -41t32 -150v-196q0 -28 4 -40.5t10 -19.5q5 -3 19 -1t42 13z
M292 984q-75 -20 -104.5 -51.5t-29.5 -74.5q0 -39 18 -52t32 -13q30 0 65 15.5t77 52.5l5 -47q-52 -54 -102.5 -76t-87.5 -22q-40 0 -79 25.5t-39 88.5q0 62 46.5 111.5t148.5 75.5l166 41l3 -44zM49 586v78h449v-78h-449z" />
    <glyph glyph-name="guillemotleft" unicode="&#xab;" horiz-adv-x="1014" 
d="M458 430v17.5t0.5 36t1.5 19.5l371 415l47 -35l-22.5 -42t-55.5 -104.5t-66 -124.5t-55 -104t-21 -41l221 -420l-48 -35zM75 430v17.5t0.5 36t1.5 19.5l372 415l47 -35l-22.5 -42t-55.5 -104.5t-66 -124.5t-55 -104t-21 -41l221 -420l-48 -35z" />
    <glyph glyph-name="logicalnot" unicode="&#xac;" horiz-adv-x="986" 
d="M911 233q-20 -15 -45.5 -31.5t-50.5 -24.5l-27 28v296h-695l-27 27q5 20 16 48t20 47h384h230h116h41h7l31 -24v-366z" />
    <glyph glyph-name="uni00AD" unicode="&#xad;" horiz-adv-x="703" 
d="M644 549q-6 -22 -17 -52t-19 -47h-522l-28 27q6 21 16.5 50t19.5 48h523z" />
    <glyph glyph-name="registered" unicode="&#xae;" horiz-adv-x="730" 
d="M701 1084q0 -97 -43.5 -176.5t-120 -127t-173.5 -47.5t-172.5 47.5t-118.5 127t-43 176.5t43 176.5t118.5 127t172.5 47.5t173.5 -47.5t120 -127t43.5 -176.5zM637 1084q0 79 -35 144t-96.5 104t-141.5 39q-78 0 -139.5 -39t-96.5 -104t-35 -144t35 -144.5t96.5 -104
t139.5 -38.5q80 0 141.5 38.5t96.5 104t35 144.5zM504 1196q0 -60 -45 -93.5t-115 -33.5q-15 0 -37 5l-2 38q19 -4 35 -4q96 0 96 79q0 29 -22.5 49t-75.5 20q-28 0 -60.5 -3.5t-65.5 -8.5l-2 31q29 6 63 11.5t76 5.5q78 0 116.5 -27.5t38.5 -68.5zM557 899q-20 -6 -44 -12
t-35 -6q-20 0 -30 17l-106 182l48 18l115 -162q11 -18 50 -16zM212 886v20q42 9 42 18v347h61v-347q0 -10 41 -18v-20h-144z" />
    <glyph glyph-name="macron" unicode="&#xaf;" horiz-adv-x="1010" 
d="M872 1290q-5 -22 -21 -59.5t-23 -55.5h-665l-25 27q4 22 20 58.5t26 55.5h663z" />
    <glyph glyph-name="degree" unicode="&#xb0;" horiz-adv-x="733" 
d="M602 1047q0 -85 -42 -152t-105.5 -106t-126.5 -39q-86 0 -141 58t-55 138q0 86 41 153.5t104.5 106t128.5 38.5q80 0 138 -59t58 -138zM478 995q0 56 -27 98t-73 42q-48 0 -85 -37t-37 -100q0 -53 26.5 -96.5t73.5 -43.5q45 0 83.5 36t38.5 101z" />
    <glyph glyph-name="plusminus" unicode="&#xb1;" horiz-adv-x="848" 
d="M789 704q-5 -21 -16.5 -49.5t-19.5 -45.5h-667l-28 27q6 20 16.5 47.5t19.5 46.5h668zM487 344q-46 -23 -98 -34l-27 25v664q18 6 47 16t51 15l27 -25v-661zM789 222q-5 -20 -16.5 -49t-19.5 -45h-667l-28 26q6 21 16.5 48t19.5 47h668z" />
    <glyph glyph-name="twosuperior" unicode="&#xb2;" horiz-adv-x="690" 
d="M604 620h-526l-20 44q124 124 202.5 207t121.5 138t60 93.5t17 71.5q0 54 -28 87t-95 33q-54 0 -84.5 -36.5t-27.5 -80.5q-54 -25 -127 -32l-20 26q0 41 43 85t113 74.5t151 30.5q97 0 158.5 -40.5t61.5 -123.5q0 -54 -35.5 -111t-119.5 -144.5t-229 -230.5h273
q32 0 47 26t19.5 51.5l4.5 25.5l50 -8z" />
    <glyph glyph-name="threesuperior" unicode="&#xb3;" horiz-adv-x="690" 
d="M606 849q0 -101 -82 -174t-220 -73q-61 0 -130 24t-132 76l25 47q64 -41 114 -56t103 -15q76 0 124.5 38t48.5 115q0 58 -26 92t-63.5 48.5t-73.5 14.5q-19 0 -24.5 -0.5t-26.5 -3.5l-10 49q81 20 120.5 46t51.5 54.5t12 52.5q0 41 -25 75.5t-85 34.5q-47 0 -73 -26
t-16 -67q-26 -12 -62.5 -19.5t-69.5 -10.5l-20 25q0 34 38 72t101.5 65.5t141.5 27.5q115 0 166.5 -52.5t51.5 -113.5q0 -45 -40 -90.5t-108 -65.5q82 -8 135.5 -62.5t53.5 -127.5z" />
    <glyph glyph-name="acute" unicode="&#xb4;" horiz-adv-x="653" 
d="M279 1045q-18 3 -36.5 13.5t-30.5 19.5l227 419q15 -1 50.5 -6.5t71 -11.5t50.5 -10l26 -44z" />
    <glyph glyph-name="mu" unicode="&#xb5;" horiz-adv-x="1125" 
d="M1110 87q-40 -26 -86 -53.5t-88 -46t-68 -18.5q-51 0 -73 75t-22 172v62v128v150v128.5v63.5q0 32 -12.5 82.5t-25.5 69.5q47 11 102 27t101 33l31 -41q-4 -26 -9.5 -62t-6.5 -98v-54v-113.5v-134v-117.5v-62q0 -93 9 -128.5t30 -35.5t45.5 7t57.5 21zM834 257
q-98 -146 -184.5 -217t-156.5 -71q-68 0 -140 63t-121 171t-49 244v48.5v90.5v89v44q0 51 -5.5 75.5t-32 34t-89.5 15.5v50q82 12 144 25.5t122 40.5q1 0 16.5 -17.5t24.5 -27.5v-57.5v-133.5v-158.5v-135v-59.5q0 -50 23 -103t62.5 -88.5t87.5 -35.5q36 0 77.5 13.5
t91.5 59.5t114 141zM279 459q-5 -61 -3.5 -111.5t4 -107t1.5 -134.5q-2 -209 45.5 -335.5t102.5 -189.5q-20 -6 -63 -22.5t-84.5 -33.5t-57.5 -25l-41 32v64v150v201.5v220.5v207v160.5v79.5l22 -28t46 -64.5t28 -63.5z" />
    <glyph glyph-name="paragraph" unicode="&#xb6;" horiz-adv-x="1170" 
d="M1023 1260l-21.5 -20t-51 -45.5t-53 -43.5t-27.5 -14q-65 25 -134 37.5t-128.5 17t-95.5 4.5q-75 0 -136 -33.5t-97 -91.5t-36 -133q0 -72 32.5 -146.5t102 -124t179.5 -49.5q65 0 93 4l28 4l8 -65l-35 -18.5t-137 -18.5q-130 0 -236.5 42.5t-170 127t-63.5 209.5
q0 114 60 201t166.5 136.5t247.5 49.5q35 0 96.5 -3t131.5 -7.5t133.5 -9t103.5 -7.5zM457 -250v53q68 14 105.5 31t37.5 31l2 1346q0 8 -16 2.5t-48.5 -10.5t-81.5 4v53h637v-53q-68 -14 -106 -31t-38 -31v-1280q0 -13 35.5 -30.5t108.5 -31.5v-53h-636zM816 1194l-80 19
v-1348q0 -11 15 -19.5t24 -11.5q12 3 26.5 11.5t14.5 19.5v1329z" />
    <glyph glyph-name="periodcentered" unicode="&#xb7;" horiz-adv-x="340" 
d="M290 717q0 -64 -39.5 -105t-97.5 -41q-103 0 -103 107q0 63 40.5 104.5t95.5 41.5q47 0 75.5 -26.5t28.5 -80.5z" />
    <glyph glyph-name="cedilla" unicode="&#xb8;" horiz-adv-x="469" 
d="M423 -229q0 -74 -82 -133.5t-243 -81.5l-27 57q98 16 140 48.5t42 65.5t-25.5 47t-81.5 20l7.5 18t26.5 73.5t55 166.5l93 -2l-52 -149q60 -12 103.5 -43t43.5 -87z" />
    <glyph glyph-name="onesuperior" unicode="&#xb9;" horiz-adv-x="690" 
d="M116 620v46q109 11 145 26t36 28v451q0 47 -13 59q-8 7 -44.5 7.5t-129.5 -16.5l-16 44q39 9 101.5 28t123 39.5t91.5 34.5l28 -22v-625q0 -12 31 -27.5t137 -26.5v-46h-490z" />
    <glyph glyph-name="ordmasculine" unicode="&#xba;" horiz-adv-x="577" 
d="M532 990q0 -69 -37.5 -131.5t-97 -102.5t-124.5 -40q-103 0 -166 72t-63 181q0 70 34.5 133t93 102.5t131.5 39.5q101 0 165 -73t64 -181zM56 586v78h465v-78h-465zM424 971q0 84 -42.5 148t-106.5 64q-60 0 -91.5 -56t-31.5 -141q0 -84 46 -147t104 -63q56 0 89 55
t33 140z" />
    <glyph glyph-name="guillemotright" unicode="&#xbb;" horiz-adv-x="1014" 
d="M556 429l-373 -417l-48 35l221 419l-220 417l47 35l372 -416zM939 429l-373 -417l-48 35l221 419l-221 417l48 35l372 -416z" />
    <glyph glyph-name="onequarter" unicode="&#xbc;" horiz-adv-x="1225" 
d="M321 3q-23 -11 -50.5 -18.5t-54.5 -14.5l-25 30l804 1203q20 8 50 18t52 14l25 -28zM1153 212q-12 -16 -24.5 -28.5t-24.5 -20.5h-31v-102q0 -8 13 -14t59 -15v-32h-292v32q73 10 93 18t20 16v97h-275l-21 17l278 382q24 9 54 18.5t49 17.5l22 -18v-353h65zM966 484
l-194 -257h194v257zM94 637v37q88 9 117 20.5t29 22.5v360q0 39 -10 47q-7 6 -36.5 6.5t-103.5 -13.5l-13 36q31 7 81.5 22t99 32t74.5 28l21 -18v-500q0 -10 25 -22t110 -21v-37h-394z" />
    <glyph glyph-name="onehalf" unicode="&#xbd;" horiz-adv-x="1225" 
d="M314 3q-23 -11 -50.5 -18.5t-54.5 -14.5l-25 30l804 1203q20 8 50 18t52 14l25 -28zM94 637v37q88 9 117 20.5t29 22.5v360q0 39 -10 47q-7 6 -36.5 6.5t-103.5 -13.5l-13 36q31 7 81.5 22t99 32t74.5 28l21 -18v-500q0 -10 25 -22t110 -21v-37h-394zM1141 0h-423l-16 35
q133 133 202.5 209t94.5 119.5t25 79.5q0 43 -22.5 69t-75.5 26q-44 0 -68 -28.5t-22 -63.5q-19 -10 -48 -17t-54 -9l-17 20q0 34 35 69t91 59.5t121 24.5q79 0 128 -32.5t49 -98.5q0 -43 -28.5 -89t-96 -116t-184.5 -184h220q25 0 37.5 20.5t16 41l3.5 20.5l40 -6z" />
    <glyph glyph-name="threequarters" unicode="&#xbe;" horiz-adv-x="1225" 
d="M314 3q-24 -11 -51.5 -18.5t-54.5 -14.5l-25 30l805 1203q19 8 49 18t52 14l25 -28zM524 821q0 -81 -66 -139.5t-176 -58.5q-49 0 -104.5 19t-106.5 61l20 37q51 -32 92 -44t83 -12q61 0 99.5 30.5t38.5 91.5q0 70 -43.5 97t-87.5 27q-15 0 -19 -0.5t-22 -3.5l-7 40
q98 23 122.5 58t24.5 65q0 33 -20 59.5t-68 26.5q-38 0 -59 -20t-13 -53q-20 -9 -49.5 -15.5t-56.5 -8.5l-16 21q0 26 30.5 56.5t82 52.5t113.5 22q92 0 133.5 -42t41.5 -91q0 -36 -32 -72t-86 -52q66 -7 108.5 -50.5t42.5 -101.5zM1153 212q-12 -16 -24.5 -28.5
t-24.5 -20.5h-31v-102q0 -8 13 -14t59 -15v-32h-292v32q73 10 93 18t20 16v97h-275l-21 17l278 382q24 9 54 18.5t49 17.5l22 -18v-353h65zM966 484l-194 -257h194v257z" />
    <glyph glyph-name="questiondown" unicode="&#xbf;" horiz-adv-x="902" 
d="M608 841q0 -72 -46 -119.5t-109 -47.5q-52 0 -82.5 30.5t-30.5 91.5q0 72 44.5 118t107.5 46q116 0 116 -119zM427 523q29 26 82 41l28 -23l6 -114q5 -69 -21 -135t-67 -130t-82.5 -125.5t-70 -121t-28.5 -116.5q0 -123 50.5 -189.5t143.5 -66.5q65 0 114 56t49 135
q0 15 -4 30.5t-10 29.5q33 18 83.5 30.5t95.5 15.5l29 -33q2 -8 2 -19v-18q0 -95 -60.5 -169.5t-159.5 -117t-214 -42.5q-154 0 -236 87.5t-82 225.5q0 91 33 161t82.5 130t100.5 117.5t87.5 121t42.5 143.5z" />
    <glyph glyph-name="Agrave" unicode="&#xc0;" horiz-adv-x="1242" 
d="M385 440l-106 -319q-10 -31 26 -45t118 -23v-53h-423v53q68 12 107 25t49 43l364 1106q31 30 74 52.5t78 37.5l420 -1196q10 -28 37 -44t92 -24v-53h-447v53q77 5 106.5 20t18.5 48l-110 319h-404zM754 540l-172 498l-164 -498h336zM792 1417q-13 -19 -24.5 -32.5
t-28.5 -21.5l-479 247l8 51q10 9 39 26t59.5 33t45.5 24z" />
    <glyph glyph-name="Aacute" unicode="&#xc1;" horiz-adv-x="1242" 
d="M385 440l-106 -319q-10 -31 26 -45t118 -23v-53h-423v53q68 12 107 25t49 43l364 1106q31 30 74 52.5t78 37.5l420 -1196q10 -28 37 -44t92 -24v-53h-447v53q77 5 106.5 20t18.5 48l-110 319h-404zM754 540l-172 498l-164 -498h336zM474 1364q-17 8 -29 22t-24 31
l381 325q14 -7 44.5 -23.5t60 -34t40.5 -27.5l9 -51z" />
    <glyph glyph-name="Acircumflex" unicode="&#xc2;" horiz-adv-x="1242" 
d="M385 440l-106 -319q-10 -31 26 -45t118 -23v-53h-423v53q68 12 107 25t49 43l364 1106q31 30 74 52.5t78 37.5l420 -1196q10 -28 37 -44t92 -24v-53h-447v53q77 5 106.5 20t18.5 48l-110 319h-404zM754 540l-172 498l-164 -498h336zM934 1417q-12 -19 -21.5 -32
t-26.5 -20l-276 195l-274 -195q-16 7 -27 20t-25 32l269 317h117z" />
    <glyph glyph-name="Atilde" unicode="&#xc3;" horiz-adv-x="1242" 
d="M385 440l-106 -319q-10 -31 26 -45t118 -23v-53h-423v53q68 12 107 25t49 43l364 1106q31 30 74 52.5t78 37.5l420 -1196q10 -28 37 -44t92 -24v-53h-447v53q77 5 106.5 20t18.5 48l-110 319h-404zM754 540l-172 498l-164 -498h336zM969 1634q-23 -54 -60 -110.5
t-84.5 -94.5t-102.5 -38q-50 0 -94.5 27.5t-87 55t-84.5 27.5t-74.5 -31.5t-68.5 -87.5l-61 23q24 54 60.5 110.5t84 95t102.5 38.5q54 0 100.5 -27.5t87 -55t76.5 -27.5q75 0 145 120z" />
    <glyph glyph-name="Adieresis" unicode="&#xc4;" horiz-adv-x="1242" 
d="M385 440l-106 -319q-10 -31 26 -45t118 -23v-53h-423v53q68 12 107 25t49 43l364 1106q31 30 74 52.5t78 37.5l420 -1196q10 -28 37 -44t92 -24v-53h-447v53q77 5 106.5 20t18.5 48l-110 319h-404zM754 540l-172 498l-164 -498h336zM519 1543q0 -62 -37.5 -106t-91.5 -44
q-96 0 -96 105q0 62 38.5 105.5t90.5 43.5q96 0 96 -104zM927 1543q0 -62 -37.5 -106t-92.5 -44q-95 0 -95 105q0 62 38.5 105.5t90.5 43.5q96 0 96 -104z" />
    <glyph glyph-name="Aring" unicode="&#xc5;" horiz-adv-x="1242" 
d="M385 440l-106 -319q-10 -31 26 -45t118 -23v-53h-423v53q68 12 107 25t49 43l364 1106q31 30 74 52.5t78 37.5l420 -1196q10 -28 37 -44t92 -24v-53h-447v53q77 5 106.5 20t18.5 48l-110 319h-404zM754 540l-172 498l-164 -498h336zM805 1612q0 -69 -34 -124t-85.5 -86.5
t-105.5 -31.5q-71 0 -116.5 46.5t-45.5 115.5t33 124t84.5 87t106.5 32q70 0 116 -47.5t47 -115.5zM700 1571q0 48 -22.5 80.5t-56.5 32.5q-41 0 -69.5 -31.5t-28.5 -79.5q0 -46 22 -79t56 -33q40 0 69.5 29t29.5 81z" />
    <glyph glyph-name="AE" unicode="&#xc6;" horiz-adv-x="1615" 
d="M1560 264q-9 -86 -21.5 -160.5t-20.5 -103.5h-889v53q140 28 140 61v528h-264l-212 -521q-13 -29 15.5 -44t107.5 -24v-53h-416v53q65 11 103 25t51 43l405 1002q14 34 -33 49.5t-145 34.5v53h530h168h382l32 -27q-2 -34 -8 -81.5t-14.5 -91.5t-18.5 -70h-55
q-4 92 -23.5 131t-58.5 39h-356v-425h403l29 -30q-17 -28 -44 -65t-48 -53q-55 55 -174 55h-166v-478q0 -19 15 -33.5t59.5 -22.5t132.5 -8h118q61 0 99.5 13.5t66.5 53.5t56 118zM769 1138q0 22 -29.5 20t-43.5 -37l-154 -386h227v403z" />
    <glyph glyph-name="Ccedilla" unicode="&#xc7;" horiz-adv-x="1113" 
d="M1036 211q-128 -135 -240.5 -188t-219.5 -53q-95 0 -186.5 41.5t-164.5 121t-116.5 194t-43.5 259.5q0 213 83.5 371t223.5 245.5t309 87.5q107 0 195.5 -29.5t140.5 -70.5q7 -6 -11 -37.5t-43.5 -65.5t-40.5 -50l-45 9q-51 60 -120 93.5t-155 33.5q-51 0 -111.5 -28
t-114.5 -91.5t-88.5 -169t-34.5 -261.5q0 -175 62 -290t155 -171.5t186 -56.5q54 0 141.5 34t196.5 125q10 -6 24 -25.5t18 -27.5zM772 -229q0 -74 -82 -133.5t-243 -81.5l-27 57q98 16 140 48.5t42 65.5t-25.5 47t-81.5 20l7 18t26 73.5t55 166.5l93 -2l-51 -149
q60 -12 103.5 -43t43.5 -87z" />
    <glyph glyph-name="Egrave" unicode="&#xc8;" horiz-adv-x="1036" 
d="M914 1233q-2 -34 -8.5 -81.5t-15.5 -91.5t-17 -70h-55q-4 92 -24.5 131t-57.5 39h-408l29 100h522zM811 705q-16 -28 -43 -64.5t-49 -51.5q-31 29 -72.5 42t-125.5 13h-207l22 91h447zM979 264q-7 -86 -20 -160.5t-21 -103.5h-890v53q67 14 104.5 31t37.5 30v1031
q0 12 -35 30t-107 32v53h477v-53q-67 -7 -106 -16.5t-39 -23.5v-1003q0 -19 14.5 -33.5t58 -22.5t131.5 -8h119q62 0 100.5 13.5t66.5 53.5t56 118zM695 1417q-13 -19 -24.5 -32.5t-28.5 -21.5l-479 247l8 51q10 9 39 26t59.5 33t45.5 24z" />
    <glyph glyph-name="Eacute" unicode="&#xc9;" horiz-adv-x="1036" 
d="M914 1233q-2 -34 -8.5 -81.5t-15.5 -91.5t-17 -70h-55q-4 92 -24.5 131t-57.5 39h-408l29 100h522zM811 705q-16 -28 -43 -64.5t-49 -51.5q-31 29 -72.5 42t-125.5 13h-207l22 91h447zM979 264q-7 -86 -20 -160.5t-21 -103.5h-890v53q67 14 104.5 31t37.5 30v1031
q0 12 -35 30t-107 32v53h477v-53q-67 -7 -106 -16.5t-39 -23.5v-1003q0 -19 14.5 -33.5t58 -22.5t131.5 -8h119q62 0 100.5 13.5t66.5 53.5t56 118zM377 1364q-17 8 -29 22t-24 31l381 325q14 -7 44.5 -23.5t60 -34t40.5 -27.5l9 -51z" />
    <glyph glyph-name="Ecircumflex" unicode="&#xca;" horiz-adv-x="1036" 
d="M914 1233q-2 -34 -8.5 -81.5t-15.5 -91.5t-17 -70h-55q-4 92 -24.5 131t-57.5 39h-408l29 100h522zM811 705q-16 -28 -43 -64.5t-49 -51.5q-31 29 -72.5 42t-125.5 13h-207l22 91h447zM979 264q-7 -86 -20 -160.5t-21 -103.5h-890v53q67 14 104.5 31t37.5 30v1031
q0 12 -35 30t-107 32v53h477v-53q-67 -7 -106 -16.5t-39 -23.5v-1003q0 -19 14.5 -33.5t58 -22.5t131.5 -8h119q62 0 100.5 13.5t66.5 53.5t56 118zM837 1417q-12 -19 -21.5 -32t-26.5 -20l-276 195l-274 -195q-16 7 -27 20t-25 32l269 317h117z" />
    <glyph glyph-name="Edieresis" unicode="&#xcb;" horiz-adv-x="1036" 
d="M914 1233q-2 -34 -8.5 -81.5t-15.5 -91.5t-17 -70h-55q-4 92 -24.5 131t-57.5 39h-408l29 100h522zM811 705q-16 -28 -43 -64.5t-49 -51.5q-31 29 -72.5 42t-125.5 13h-207l22 91h447zM979 264q-7 -86 -20 -160.5t-21 -103.5h-890v53q67 14 104.5 31t37.5 30v1031
q0 12 -35 30t-107 32v53h477v-53q-67 -7 -106 -16.5t-39 -23.5v-1003q0 -19 14.5 -33.5t58 -22.5t131.5 -8h119q62 0 100.5 13.5t66.5 53.5t56 118zM422 1543q0 -62 -37.5 -106t-91.5 -44q-96 0 -96 105q0 62 38.5 105.5t90.5 43.5q96 0 96 -104zM830 1543q0 -62 -37.5 -106
t-92.5 -44q-95 0 -95 105q0 62 38.5 105.5t90.5 43.5q96 0 96 -104z" />
    <glyph glyph-name="Igrave" unicode="&#xcc;" horiz-adv-x="630" 
d="M68 0v53q67 14 104.5 31t37.5 30v1031q0 12 -35 30t-107 32v53h475v-53q-68 -14 -105.5 -31t-37.5 -31v-1031q0 -12 35.5 -29.5t107.5 -31.5v-53h-475zM486 1417q-13 -19 -24.5 -32.5t-28.5 -21.5l-479 247l8 51q10 9 39 26t59.5 33t45.5 24z" />
    <glyph glyph-name="Iacute" unicode="&#xcd;" horiz-adv-x="630" 
d="M68 0v53q67 14 104.5 31t37.5 30v1031q0 12 -35 30t-107 32v53h475v-53q-68 -14 -105.5 -31t-37.5 -31v-1031q0 -12 35.5 -29.5t107.5 -31.5v-53h-475zM168 1364q-17 8 -29 22t-24 31l381 325q14 -7 44.5 -23.5t60 -34t40.5 -27.5l9 -51z" />
    <glyph glyph-name="Icircumflex" unicode="&#xce;" horiz-adv-x="630" 
d="M68 0v53q67 14 104.5 31t37.5 30v1031q0 12 -35 30t-107 32v53h475v-53q-68 -14 -105.5 -31t-37.5 -31v-1031q0 -12 35.5 -29.5t107.5 -31.5v-53h-475zM628 1417q-12 -19 -21.5 -32t-26.5 -20l-276 195l-274 -195q-16 7 -27 20t-25 32l269 317h117z" />
    <glyph glyph-name="Idieresis" unicode="&#xcf;" horiz-adv-x="630" 
d="M68 0v53q67 14 104.5 31t37.5 30v1031q0 12 -35 30t-107 32v53h475v-53q-68 -14 -105.5 -31t-37.5 -31v-1031q0 -12 35.5 -29.5t107.5 -31.5v-53h-475zM213 1543q0 -62 -37.5 -106t-91.5 -44q-96 0 -96 105q0 62 38.5 105.5t90.5 43.5q96 0 96 -104zM621 1543
q0 -62 -37.5 -106t-92.5 -44q-95 0 -95 105q0 62 38.5 105.5t90.5 43.5q96 0 96 -104z" />
    <glyph glyph-name="Eth" unicode="&#xd0;" horiz-adv-x="1244" 
d="M629 615h-580l-22 25q11 36 26 75h580l25 -23zM48 0v53q67 14 104.5 31t37.5 30v1065q-77 -11 -142 -21l-11 72q61 17 147.5 30.5t179.5 21.5t174 8q288 0 453 -162t165 -452q0 -187 -54.5 -316.5t-141 -209t-187.5 -115t-194 -35.5h-66h-139.5h-129h-162.5h-34zM552 92
q65 0 135 32.5t130.5 99.5t98 169.5t37.5 243.5q0 266 -124.5 414t-357.5 148q-44 0 -91 -3v-1037q0 -44 54.5 -55.5t117.5 -11.5z" />
    <glyph glyph-name="Ntilde" unicode="&#xd1;" horiz-adv-x="1339" 
d="M1293 1207q-72 -10 -107.5 -29t-35.5 -33v-1113l-130 39v1074q0 12 -31 31.5t-111 30.5v53h415v-53zM1150 -30q-65 7 -103.5 26t-55.5 43l-753 1044q-41 57 -89.5 86.5t-100.5 37.5v53h234q29 0 44 -13t52 -65l649 -896q14 -20 43.5 -58t54.5 -69l25 -31v-158zM48 0v53
q73 9 107.5 28.5t34.5 32.5v1072l130 35v-1107q0 -12 32.5 -31t110.5 -30v-53h-415zM1028 1634q-23 -54 -60 -110.5t-84.5 -94.5t-102.5 -38q-50 0 -94.5 27.5t-87 55t-84.5 27.5t-74.5 -31.5t-68.5 -87.5l-61 23q24 54 60.5 110.5t84 95t102.5 38.5q54 0 100.5 -27.5
t87 -55t76.5 -27.5q75 0 145 120z" />
    <glyph glyph-name="Ograve" unicode="&#xd2;" horiz-adv-x="1244" 
d="M584 -30q-122 0 -218 52.5t-163 142.5t-101.5 205.5t-34.5 241.5q0 136 43.5 258.5t121.5 217t183 148.5t227 54q127 0 223.5 -54t162 -145.5t99 -206.5t33.5 -237q0 -136 -46 -258t-126 -216.5t-183.5 -148.5t-220.5 -54zM618 95q155 0 254.5 134.5t99.5 399.5
q0 104 -26 200.5t-74.5 173.5t-116 122t-149.5 45q-167 0 -259.5 -142t-92.5 -387q0 -149 50 -273.5t132.5 -198.5t181.5 -74zM806 1417q-13 -19 -24.5 -32.5t-28.5 -21.5l-479 247l8 51q10 9 39 26t59.5 33t45.5 24z" />
    <glyph glyph-name="Oacute" unicode="&#xd3;" horiz-adv-x="1244" 
d="M584 -30q-122 0 -218 52.5t-163 142.5t-101.5 205.5t-34.5 241.5q0 136 43.5 258.5t121.5 217t183 148.5t227 54q127 0 223.5 -54t162 -145.5t99 -206.5t33.5 -237q0 -136 -46 -258t-126 -216.5t-183.5 -148.5t-220.5 -54zM618 95q155 0 254.5 134.5t99.5 399.5
q0 104 -26 200.5t-74.5 173.5t-116 122t-149.5 45q-167 0 -259.5 -142t-92.5 -387q0 -149 50 -273.5t132.5 -198.5t181.5 -74zM488 1364q-17 8 -29 22t-24 31l381 325q14 -7 44.5 -23.5t60 -34t40.5 -27.5l9 -51z" />
    <glyph glyph-name="Ocircumflex" unicode="&#xd4;" horiz-adv-x="1244" 
d="M584 -30q-122 0 -218 52.5t-163 142.5t-101.5 205.5t-34.5 241.5q0 136 43.5 258.5t121.5 217t183 148.5t227 54q127 0 223.5 -54t162 -145.5t99 -206.5t33.5 -237q0 -136 -46 -258t-126 -216.5t-183.5 -148.5t-220.5 -54zM618 95q155 0 254.5 134.5t99.5 399.5
q0 104 -26 200.5t-74.5 173.5t-116 122t-149.5 45q-167 0 -259.5 -142t-92.5 -387q0 -149 50 -273.5t132.5 -198.5t181.5 -74zM948 1417q-12 -19 -21.5 -32t-26.5 -20l-276 195l-274 -195q-16 7 -27 20t-25 32l269 317h117z" />
    <glyph glyph-name="Otilde" unicode="&#xd5;" horiz-adv-x="1244" 
d="M584 -30q-122 0 -218 52.5t-163 142.5t-101.5 205.5t-34.5 241.5q0 136 43.5 258.5t121.5 217t183 148.5t227 54q127 0 223.5 -54t162 -145.5t99 -206.5t33.5 -237q0 -136 -46 -258t-126 -216.5t-183.5 -148.5t-220.5 -54zM618 95q155 0 254.5 134.5t99.5 399.5
q0 104 -26 200.5t-74.5 173.5t-116 122t-149.5 45q-167 0 -259.5 -142t-92.5 -387q0 -149 50 -273.5t132.5 -198.5t181.5 -74zM983 1634q-23 -54 -60 -110.5t-84.5 -94.5t-102.5 -38q-50 0 -94.5 27.5t-87 55t-84.5 27.5t-74.5 -31.5t-68.5 -87.5l-61 23q24 54 60.5 110.5
t84 95t102.5 38.5q54 0 100.5 -27.5t87 -55t76.5 -27.5q75 0 145 120z" />
    <glyph glyph-name="Odieresis" unicode="&#xd6;" horiz-adv-x="1244" 
d="M584 -30q-122 0 -218 52.5t-163 142.5t-101.5 205.5t-34.5 241.5q0 136 43.5 258.5t121.5 217t183 148.5t227 54q127 0 223.5 -54t162 -145.5t99 -206.5t33.5 -237q0 -136 -46 -258t-126 -216.5t-183.5 -148.5t-220.5 -54zM618 95q155 0 254.5 134.5t99.5 399.5
q0 104 -26 200.5t-74.5 173.5t-116 122t-149.5 45q-167 0 -259.5 -142t-92.5 -387q0 -149 50 -273.5t132.5 -198.5t181.5 -74zM533 1543q0 -62 -37.5 -106t-91.5 -44q-96 0 -96 105q0 62 38.5 105.5t90.5 43.5q96 0 96 -104zM941 1543q0 -62 -37.5 -106t-92.5 -44
q-95 0 -95 105q0 62 38.5 105.5t90.5 43.5q96 0 96 -104z" />
    <glyph glyph-name="multiply" unicode="&#xd7;" horiz-adv-x="840" 
d="M749 283q-20 -9 -52 -19.5t-51 -14.5l-555 554l-1 38q20 9 51.5 18t52.5 14l555 -555v-35zM91 319l554 554q21 -5 52 -14.5t51 -19.5v-36l-554 -554q-19 4 -50 13.5t-53 20.5v36z" />
    <glyph glyph-name="Oslash" unicode="&#xd8;" horiz-adv-x="1244" 
d="M1158 647q0 -136 -45.5 -258t-125.5 -216.5t-184 -148.5t-220 -54q-123 0 -219 52.5t-162.5 142.5t-101.5 205.5t-35 241.5q0 136 43.5 258.5t122 217t183 148.5t227.5 54q126 0 222.5 -54t162 -145.5t99 -206.5t33.5 -237zM971 629q0 104 -26.5 200.5t-75 173.5
t-116 122t-149.5 45q-166 0 -258.5 -142t-92.5 -387q0 -149 49.5 -273.5t132.5 -198.5t182 -74q154 0 254 134.5t100 399.5zM242 -2q-18 -16 -67 -30.5t-74 -20.5l-29 34l910 1283q28 17 68 30t70 19l30 -34z" />
    <glyph glyph-name="Ugrave" unicode="&#xd9;" horiz-adv-x="1349" 
d="M1288 1207q-68 -14 -105.5 -31t-37.5 -31v-621q0 -262 -129 -408t-345 -146q-137 0 -246 51t-172 156t-63 267v701q0 12 -35 30t-107 32v53h475v-53q-68 -14 -105.5 -31t-37.5 -31v-646q0 -192 83.5 -298t254.5 -106q95 0 157.5 57t93.5 147t31 189v657q0 12 -35 30
t-107 32v53h430v-53zM863 1417q-13 -19 -24.5 -32.5t-28.5 -21.5l-479 247l8 51q10 9 39 26t59.5 33t45.5 24z" />
    <glyph glyph-name="Uacute" unicode="&#xda;" horiz-adv-x="1349" 
d="M1288 1207q-68 -14 -105.5 -31t-37.5 -31v-621q0 -262 -129 -408t-345 -146q-137 0 -246 51t-172 156t-63 267v701q0 12 -35 30t-107 32v53h475v-53q-68 -14 -105.5 -31t-37.5 -31v-646q0 -192 83.5 -298t254.5 -106q95 0 157.5 57t93.5 147t31 189v657q0 12 -35 30
t-107 32v53h430v-53zM545 1364q-17 8 -29 22t-24 31l381 325q14 -7 44.5 -23.5t60 -34t40.5 -27.5l9 -51z" />
    <glyph glyph-name="Ucircumflex" unicode="&#xdb;" horiz-adv-x="1349" 
d="M1288 1207q-68 -14 -105.5 -31t-37.5 -31v-621q0 -262 -129 -408t-345 -146q-137 0 -246 51t-172 156t-63 267v701q0 12 -35 30t-107 32v53h475v-53q-68 -14 -105.5 -31t-37.5 -31v-646q0 -192 83.5 -298t254.5 -106q95 0 157.5 57t93.5 147t31 189v657q0 12 -35 30
t-107 32v53h430v-53zM1005 1417q-12 -19 -21.5 -32t-26.5 -20l-276 195l-274 -195q-16 7 -27 20t-25 32l269 317h117z" />
    <glyph glyph-name="Udieresis" unicode="&#xdc;" horiz-adv-x="1349" 
d="M1288 1207q-68 -14 -105.5 -31t-37.5 -31v-621q0 -262 -129 -408t-345 -146q-137 0 -246 51t-172 156t-63 267v701q0 12 -35 30t-107 32v53h475v-53q-68 -14 -105.5 -31t-37.5 -31v-646q0 -192 83.5 -298t254.5 -106q95 0 157.5 57t93.5 147t31 189v657q0 12 -35 30
t-107 32v53h430v-53zM590 1543q0 -62 -37.5 -106t-91.5 -44q-96 0 -96 105q0 62 38.5 105.5t90.5 43.5q96 0 96 -104zM998 1543q0 -62 -37.5 -106t-92.5 -44q-95 0 -95 105q0 62 38.5 105.5t90.5 43.5q96 0 96 -104z" />
    <glyph glyph-name="Yacute" unicode="&#xdd;" horiz-adv-x="1230" 
d="M1191 1207q-68 -13 -103.5 -26.5t-49.5 -39.5l-358 -654h-142q-36 83 -84 176t-100.5 183t-101.5 167t-86 128q-19 22 -49 37.5t-113 15.5l-4 53q59 8 126 15.5t108 7.5q53 0 86 -41q49 -65 106 -157t113.5 -194t102.5 -198l257 461q15 26 -9.5 41t-101.5 25v53h403v-53z
M355 0v53q91 19 126.5 38.5t35.5 33.5v512h190v-512q0 -13 34.5 -33t128.5 -39v-53h-515zM475 1364q-17 8 -29 22t-24 31l381 325q14 -7 44.5 -23.5t60 -34t40.5 -27.5l9 -51z" />
    <glyph glyph-name="Thorn" unicode="&#xde;" horiz-adv-x="1101" 
d="M1018 669q0 -104 -41 -180.5t-105 -127t-135.5 -75t-132.5 -23.5q-46 0 -88 7.5t-76 24.5l-25 82q41 -19 77 -24t72 -5q60 0 121.5 30.5t103 92.5t41.5 157q0 105 -47.5 172t-128 99t-180.5 32q-104 0 -224 -14l-11 83q60 11 129 17t163 6q220 0 353.5 -91.5
t133.5 -262.5zM47 0v53q68 14 106 31t38 30v1031q0 12 -36 30t-108 32v53h506v-53q-103 -17 -137.5 -32.5t-34.5 -29.5v-1031q0 -12 34 -28t138 -33v-53h-506z" />
    <glyph glyph-name="germandbls" unicode="&#xdf;" horiz-adv-x="1201" 
d="M1123 283q0 -80 -37.5 -151.5t-116 -116.5t-202.5 -45q-43 0 -102.5 12.5t-107.5 30.5t-58 33q-6 8 -7.5 44t0.5 81t6.5 82t12.5 48l52 -13q17 -110 90.5 -160t149.5 -50q69 0 114.5 36.5t45.5 100.5q0 67 -33 112.5t-84.5 78.5t-110 62t-110 62.5t-84.5 81t-33 117.5
q0 79 33.5 124t82.5 72.5t98 50.5t82.5 55.5t33.5 90.5q0 73 -27.5 140.5t-83.5 111.5t-142 44q-62 0 -110.5 -33t-76.5 -121t-28 -253v-1011h-317v53q67 12 102 29.5t35 29.5v844q0 161 31.5 256t80.5 150.5t101 95.5q55 42 126 67t147 25q119 0 195 -58t112.5 -141.5
t36.5 -160.5q0 -98 -35 -155t-86 -89t-102.5 -53.5t-86 -48t-34.5 -74.5q0 -44 32 -75.5t83 -57.5t108.5 -54.5t108.5 -67t83 -94.5t32 -138z" />
    <glyph glyph-name="agrave" unicode="&#xe0;" horiz-adv-x="968" 
d="M956 92q-85 -58 -151.5 -90t-97.5 -32q-37 0 -60.5 52.5t-23.5 141.5v533q0 66 -32.5 110.5t-122.5 42.5q-59 -1 -108 -37t-43 -96q1 -10 -24.5 -22t-62 -23t-69 -17t-44.5 -3l-16 44q31 71 104.5 131t168 96.5t188.5 36.5q118 0 179.5 -61.5t61.5 -163.5v-537
q0 -78 40 -78q14 0 35 5.5t61 21.5zM633 483q-105 -17 -164 -33t-90 -34t-52 -39q-26 -27 -42 -60t-16 -78q0 -50 18.5 -77t43 -37t41.5 -10q54 0 118 29.5t143 99.5l8 -87q-94 -101 -187 -144t-161 -43q-51 0 -101 23t-83.5 72t-33.5 126q0 74 26 123.5t63 86.5
q32 33 80 61.5t138.5 54t250.5 49.5v-83zM611 1081q-13 -12 -31 -21.5t-35 -14.5l-362 377l24 46q13 3 48 9.5t71 12.5t52 7z" />
    <glyph glyph-name="aacute" unicode="&#xe1;" horiz-adv-x="968" 
d="M956 92q-85 -58 -151.5 -90t-97.5 -32q-37 0 -60.5 52.5t-23.5 141.5v533q0 66 -32.5 110.5t-122.5 42.5q-59 -1 -108 -37t-43 -96q1 -10 -24.5 -22t-62 -23t-69 -17t-44.5 -3l-16 44q31 71 104.5 131t168 96.5t188.5 36.5q118 0 179.5 -61.5t61.5 -163.5v-537
q0 -78 40 -78q14 0 35 5.5t61 21.5zM633 483q-105 -17 -164 -33t-90 -34t-52 -39q-26 -27 -42 -60t-16 -78q0 -50 18.5 -77t43 -37t41.5 -10q54 0 118 29.5t143 99.5l8 -87q-94 -101 -187 -144t-161 -43q-51 0 -101 23t-83.5 72t-33.5 126q0 74 26 123.5t63 86.5
q32 33 80 61.5t138.5 54t250.5 49.5v-83zM443 1045q-18 3 -37 13.5t-30 19.5l227 419q15 -1 50.5 -6.5t71 -11.5t50.5 -10l26 -44z" />
    <glyph glyph-name="acircumflex" unicode="&#xe2;" horiz-adv-x="968" 
d="M956 92q-85 -58 -151.5 -90t-97.5 -32q-37 0 -60.5 52.5t-23.5 141.5v533q0 66 -32.5 110.5t-122.5 42.5q-59 -1 -108 -37t-43 -96q1 -10 -24.5 -22t-62 -23t-69 -17t-44.5 -3l-16 44q31 71 104.5 131t168 96.5t188.5 36.5q118 0 179.5 -61.5t61.5 -163.5v-537
q0 -78 40 -78q14 0 35 5.5t61 21.5zM633 483q-105 -17 -164 -33t-90 -34t-52 -39q-26 -27 -42 -60t-16 -78q0 -50 18.5 -77t43 -37t41.5 -10q54 0 118 29.5t143 99.5l8 -87q-94 -101 -187 -144t-161 -43q-51 0 -101 23t-83.5 72t-33.5 126q0 74 26 123.5t63 86.5
q32 33 80 61.5t138.5 54t250.5 49.5v-83zM815 1097q-12 -19 -21 -32t-27 -20l-276 253l-274 -253q-16 7 -27 20t-25 32l269 382h117z" />
    <glyph glyph-name="atilde" unicode="&#xe3;" horiz-adv-x="968" 
d="M956 92q-85 -58 -151.5 -90t-97.5 -32q-37 0 -60.5 52.5t-23.5 141.5v533q0 66 -32.5 110.5t-122.5 42.5q-59 -1 -108 -37t-43 -96q1 -10 -24.5 -22t-62 -23t-69 -17t-44.5 -3l-16 44q31 71 104.5 131t168 96.5t188.5 36.5q118 0 179.5 -61.5t61.5 -163.5v-537
q0 -78 40 -78q14 0 35 5.5t61 21.5zM633 483q-105 -17 -164 -33t-90 -34t-52 -39q-26 -27 -42 -60t-16 -78q0 -50 18.5 -77t43 -37t41.5 -10q54 0 118 29.5t143 99.5l8 -87q-94 -101 -187 -144t-161 -43q-51 0 -101 23t-83.5 72t-33.5 126q0 74 26 123.5t63 86.5
q32 33 80 61.5t138.5 54t250.5 49.5v-83zM848 1349q-24 -54 -60.5 -109.5t-84.5 -93t-105 -37.5q-47 0 -89 27.5t-81.5 55t-78.5 27.5q-38 0 -71 -33t-69 -89l-63 24q23 54 59.5 110t84.5 93.5t105 37.5q52 0 95 -28t80.5 -55.5t70.5 -27.5q37 0 73 33t70 92z" />
    <glyph glyph-name="adieresis" unicode="&#xe4;" horiz-adv-x="968" 
d="M956 92q-85 -58 -151.5 -90t-97.5 -32q-37 0 -60.5 52.5t-23.5 141.5v533q0 66 -32.5 110.5t-122.5 42.5q-59 -1 -108 -37t-43 -96q1 -10 -24.5 -22t-62 -23t-69 -17t-44.5 -3l-16 44q31 71 104.5 131t168 96.5t188.5 36.5q118 0 179.5 -61.5t61.5 -163.5v-537
q0 -78 40 -78q14 0 35 5.5t61 21.5zM633 483q-105 -17 -164 -33t-90 -34t-52 -39q-26 -27 -42 -60t-16 -78q0 -50 18.5 -77t43 -37t41.5 -10q54 0 118 29.5t143 99.5l8 -87q-94 -101 -187 -144t-161 -43q-51 0 -101 23t-83.5 72t-33.5 126q0 74 26 123.5t63 86.5
q32 33 80 61.5t138.5 54t250.5 49.5v-83zM401 1263q0 -62 -38 -106t-92 -44q-95 0 -95 105q0 62 38 105.5t90 43.5q97 0 97 -104zM808 1263q0 -62 -37.5 -106t-91.5 -44q-96 0 -96 105q0 62 38.5 105.5t90.5 43.5q96 0 96 -104z" />
    <glyph glyph-name="aring" unicode="&#xe5;" horiz-adv-x="968" 
d="M956 92q-85 -58 -151.5 -90t-97.5 -32q-37 0 -60.5 52.5t-23.5 141.5v533q0 66 -32.5 110.5t-122.5 42.5q-59 -1 -108 -37t-43 -96q1 -10 -24.5 -22t-62 -23t-69 -17t-44.5 -3l-16 44q31 71 104.5 131t168 96.5t188.5 36.5q118 0 179.5 -61.5t61.5 -163.5v-537
q0 -78 40 -78q14 0 35 5.5t61 21.5zM633 483q-105 -17 -164 -33t-90 -34t-52 -39q-26 -27 -42 -60t-16 -78q0 -50 18.5 -77t43 -37t41.5 -10q54 0 118 29.5t143 99.5l8 -87q-94 -101 -187 -144t-161 -43q-51 0 -101 23t-83.5 72t-33.5 126q0 74 26 123.5t63 86.5
q32 33 80 61.5t138.5 54t250.5 49.5v-83zM686 1292q0 -69 -34 -124t-85.5 -86.5t-105.5 -31.5q-71 0 -116.5 46.5t-45.5 115.5t33 124t84.5 87t106.5 32q70 0 116 -47.5t47 -115.5zM581 1251q0 48 -22.5 80.5t-56.5 32.5q-41 0 -69.5 -31.5t-28.5 -79.5q0 -46 22 -79t56 -33
q40 0 69.5 29t29.5 81z" />
    <glyph glyph-name="ae" unicode="&#xe6;" horiz-adv-x="1445" 
d="M293 -30q-48 0 -98.5 22t-85 70.5t-34.5 128.5q0 119 93.5 214.5t292.5 149.5q31 8 75 13t90 8v84q0 81 -29.5 135.5t-116.5 54.5q-40 0 -85 -22.5t-70.5 -60.5t-8.5 -86q2 -9 -23 -21.5t-61.5 -23t-69.5 -16t-45 -2.5l-16 41q15 66 67 121t122 95.5t140.5 62.5t122.5 22
q163 0 215 -131q65 74 140 102.5t134 28.5q121 0 193 -62t103.5 -155t31.5 -188q-19 -21 -53 -40.5t-66 -32.5h-448q0 -13 -0.5 -27.5t-0.5 -28.5q0 -72 27 -144t79.5 -119.5t127.5 -47.5q42 0 81 8.5t87 36t116 84.5q13 -7 25.5 -24t16.5 -25q-80 -93 -144 -141.5
t-124.5 -66t-128.5 -17.5q-88 0 -170.5 55t-129.5 155q-87 -107 -193 -158.5t-179 -51.5zM372 115q52 0 124.5 32.5t143.5 103.5q-8 32 -11 60t-3 70v97q-31 -2 -60.5 -5.5t-52.5 -8.5q-112 -25 -179 -83t-67 -142q0 -74 38.5 -99t66.5 -25zM812 580h334q38 0 38 36
q0 99 -42 169t-129 70q-30 0 -71 -20t-77.5 -79t-52.5 -176z" />
    <glyph glyph-name="ccedilla" unicode="&#xe7;" horiz-adv-x="908" 
d="M858 190q-87 -101 -151 -147.5t-119 -59.5t-118 -13q-101 0 -191.5 56.5t-147 163t-56.5 254.5q0 144 68 261t186 186t266 69q66 0 141 -22t109 -57q3 -16 -8 -56.5t-27.5 -81t-28.5 -58.5l-47 10q-22 56 -75.5 103t-148.5 47q-66 0 -124.5 -40t-94.5 -122t-36 -208
q0 -111 40.5 -192.5t107.5 -125.5t144 -44q38 0 71 6.5t78 33t118 86.5zM678 -229q0 -74 -82 -133.5t-243 -81.5l-27 57q98 16 140 48.5t42 65.5t-25.5 47t-81.5 20l7 18t26 73.5t55 166.5l93 -2l-51 -149q60 -12 103.5 -43t43.5 -87z" />
    <glyph glyph-name="egrave" unicode="&#xe8;" horiz-adv-x="961" 
d="M886 555q-18 -21 -53 -40.5t-67 -31.5h-584l2 97h475q23 0 30.5 7.5t7.5 28.5q0 37 -15.5 92.5t-57.5 98.5t-123 43q-116 0 -179.5 -100t-63.5 -255q0 -104 33 -191t96 -139t152 -52q42 0 81.5 8t90.5 36t127 87q13 -7 25.5 -24t16.5 -25q-90 -96 -155 -144.5t-124 -64.5
t-131 -16q-106 0 -196 58t-144.5 163t-54.5 246q0 135 56.5 251t159.5 188q47 33 113.5 58.5t127.5 25.5q98 0 165.5 -36.5t109.5 -96.5t60.5 -131.5t18.5 -140.5zM638 1081q-13 -12 -31 -21.5t-35 -14.5l-362 377l24 46q13 3 48 9.5t71 12.5t52 7z" />
    <glyph glyph-name="eacute" unicode="&#xe9;" horiz-adv-x="961" 
d="M886 555q-18 -21 -53 -40.5t-67 -31.5h-584l2 97h475q23 0 30.5 7.5t7.5 28.5q0 37 -15.5 92.5t-57.5 98.5t-123 43q-116 0 -179.5 -100t-63.5 -255q0 -104 33 -191t96 -139t152 -52q42 0 81.5 8t90.5 36t127 87q13 -7 25.5 -24t16.5 -25q-90 -96 -155 -144.5t-124 -64.5
t-131 -16q-106 0 -196 58t-144.5 163t-54.5 246q0 135 56.5 251t159.5 188q47 33 113.5 58.5t127.5 25.5q98 0 165.5 -36.5t109.5 -96.5t60.5 -131.5t18.5 -140.5zM470 1045q-18 3 -37 13.5t-30 19.5l227 419q15 -1 50.5 -6.5t71 -11.5t50.5 -10l26 -44z" />
    <glyph glyph-name="ecircumflex" unicode="&#xea;" horiz-adv-x="961" 
d="M886 555q-18 -21 -53 -40.5t-67 -31.5h-584l2 97h475q23 0 30.5 7.5t7.5 28.5q0 37 -15.5 92.5t-57.5 98.5t-123 43q-116 0 -179.5 -100t-63.5 -255q0 -104 33 -191t96 -139t152 -52q42 0 81.5 8t90.5 36t127 87q13 -7 25.5 -24t16.5 -25q-90 -96 -155 -144.5t-124 -64.5
t-131 -16q-106 0 -196 58t-144.5 163t-54.5 246q0 135 56.5 251t159.5 188q47 33 113.5 58.5t127.5 25.5q98 0 165.5 -36.5t109.5 -96.5t60.5 -131.5t18.5 -140.5zM842 1097q-12 -19 -21 -32t-27 -20l-276 253l-274 -253q-16 7 -27 20t-25 32l269 382h117z" />
    <glyph glyph-name="edieresis" unicode="&#xeb;" horiz-adv-x="961" 
d="M886 555q-18 -21 -53 -40.5t-67 -31.5h-584l2 97h475q23 0 30.5 7.5t7.5 28.5q0 37 -15.5 92.5t-57.5 98.5t-123 43q-116 0 -179.5 -100t-63.5 -255q0 -104 33 -191t96 -139t152 -52q42 0 81.5 8t90.5 36t127 87q13 -7 25.5 -24t16.5 -25q-90 -96 -155 -144.5t-124 -64.5
t-131 -16q-106 0 -196 58t-144.5 163t-54.5 246q0 135 56.5 251t159.5 188q47 33 113.5 58.5t127.5 25.5q98 0 165.5 -36.5t109.5 -96.5t60.5 -131.5t18.5 -140.5zM428 1263q0 -62 -38 -106t-92 -44q-95 0 -95 105q0 62 38 105.5t90 43.5q97 0 97 -104zM835 1263
q0 -62 -37.5 -106t-91.5 -44q-96 0 -96 105q0 62 38.5 105.5t90.5 43.5q96 0 96 -104z" />
    <glyph glyph-name="igrave" unicode="&#xec;" horiz-adv-x="575" 
d="M68 0v53q137 28 137 61v549q0 68 -5 102t-33.5 47.5t-98.5 20.5v50q70 12 143 32t130 45h44v-846q0 -12 32.5 -29.5t105.5 -31.5v-53h-455zM414 1081q-13 -12 -31 -21.5t-35 -14.5l-362 377l24 46q13 3 48 9.5t71 12.5t52 7z" />
    <glyph glyph-name="iacute" unicode="&#xed;" horiz-adv-x="575" 
d="M68 0v53q137 28 137 61v549q0 68 -5 102t-33.5 47.5t-98.5 20.5v50q70 12 143 32t130 45h44v-846q0 -12 32.5 -29.5t105.5 -31.5v-53h-455zM246 1045q-18 3 -37 13.5t-30 19.5l227 419q15 -1 50.5 -6.5t71 -11.5t50.5 -10l26 -44z" />
    <glyph glyph-name="icircumflex" unicode="&#xee;" horiz-adv-x="575" 
d="M68 0v53q137 28 137 61v549q0 68 -5 102t-33.5 47.5t-98.5 20.5v50q70 12 143 32t130 45h44v-846q0 -12 32.5 -29.5t105.5 -31.5v-53h-455zM618 1097q-12 -19 -21 -32t-27 -20l-276 253l-274 -253q-16 7 -27 20t-25 32l269 382h117z" />
    <glyph glyph-name="idieresis" unicode="&#xef;" horiz-adv-x="575" 
d="M68 0v53q137 28 137 61v549q0 68 -5 102t-33.5 47.5t-98.5 20.5v50q70 12 143 32t130 45h44v-846q0 -12 32.5 -29.5t105.5 -31.5v-53h-455zM204 1263q0 -62 -38 -106t-92 -44q-95 0 -95 105q0 62 38 105.5t90 43.5q97 0 97 -104zM611 1263q0 -62 -37.5 -106t-91.5 -44
q-96 0 -96 105q0 62 38.5 105.5t90.5 43.5q96 0 96 -104z" />
    <glyph glyph-name="eth" unicode="&#xf0;" horiz-adv-x="1029" 
d="M950 597q0 -173 -46.5 -293t-117.5 -193.5t-147 -107t-135 -33.5q-134 0 -230 62t-147.5 169t-51.5 243q0 99 34.5 191.5t95 166t138 116t163.5 42.5q60 0 122 -33.5t110 -83.5q-26 93 -71 169t-112 147l-221 -94q-37 3 -52.5 5t-49.5 13l-11 39l258 111q-55 45 -122 72
t-152 15l-8 51l223 79q55 -37 107 -76.5t95 -78.5l201 86q47 -7 63 -10t42 -12l7 -37l-239 -102q136 -148 195 -306t59 -317zM770 595q-24 75 -72.5 130.5t-106.5 86.5t-111 31q-109 0 -164.5 -102.5t-55.5 -262.5q0 -105 39.5 -194.5t98 -144t116.5 -54.5q110 0 183 112.5
t73 358.5v19.5v19.5z" />
    <glyph glyph-name="ntilde" unicode="&#xf1;" horiz-adv-x="1150" 
d="M668 0v53q137 36 137 61v504q0 118 -27 156.5t-93 38.5q-57 0 -137.5 -51.5t-177.5 -182.5v-465q0 -15 36.5 -31t101.5 -30v-53h-455v53q66 17 101.5 31t35.5 30v590q0 52 -6.5 76.5t-35.5 34.5t-95 18v50q76 10 139.5 29.5t125.5 47.5l37 -37l11 -214
q97 122 208.5 186.5t189.5 64.5q86 0 153.5 -55t67.5 -176v-615q0 -13 29.5 -27t108.5 -34v-53h-455zM943 1349q-24 -54 -60.5 -109.5t-84.5 -93t-105 -37.5q-47 0 -89 27.5t-81.5 55t-78.5 27.5q-38 0 -71 -33t-69 -89l-63 24q23 54 59.5 110t84.5 93.5t105 37.5
q52 0 95 -28t80.5 -55.5t70.5 -27.5q37 0 73 33t70 92z" />
    <glyph glyph-name="ograve" unicode="&#xf2;" horiz-adv-x="1045" 
d="M970 485q0 -100 -37 -192t-102 -165t-149.5 -115.5t-177.5 -42.5q-130 0 -226.5 62t-149.5 169t-53 243q0 99 35.5 191.5t99.5 166t149 116t184 42.5q129 0 225 -62t149 -169t53 -244zM783 450q0 106 -39 195.5t-100.5 144.5t-129.5 55q-96 0 -150.5 -49t-77.5 -133.5
t-23 -189.5t41.5 -193.5t103.5 -141.5t124 -53q134 0 192.5 98t58.5 267zM662 1081q-13 -12 -31 -21.5t-35 -14.5l-362 377l24 46q13 3 48 9.5t71 12.5t52 7z" />
    <glyph glyph-name="oacute" unicode="&#xf3;" horiz-adv-x="1045" 
d="M970 485q0 -100 -37 -192t-102 -165t-149.5 -115.5t-177.5 -42.5q-130 0 -226.5 62t-149.5 169t-53 243q0 99 35.5 191.5t99.5 166t149 116t184 42.5q129 0 225 -62t149 -169t53 -244zM783 450q0 106 -39 195.5t-100.5 144.5t-129.5 55q-96 0 -150.5 -49t-77.5 -133.5
t-23 -189.5t41.5 -193.5t103.5 -141.5t124 -53q134 0 192.5 98t58.5 267zM494 1045q-18 3 -37 13.5t-30 19.5l227 419q15 -1 50.5 -6.5t71 -11.5t50.5 -10l26 -44z" />
    <glyph glyph-name="ocircumflex" unicode="&#xf4;" horiz-adv-x="1045" 
d="M970 485q0 -100 -37 -192t-102 -165t-149.5 -115.5t-177.5 -42.5q-130 0 -226.5 62t-149.5 169t-53 243q0 99 35.5 191.5t99.5 166t149 116t184 42.5q129 0 225 -62t149 -169t53 -244zM783 450q0 106 -39 195.5t-100.5 144.5t-129.5 55q-96 0 -150.5 -49t-77.5 -133.5
t-23 -189.5t41.5 -193.5t103.5 -141.5t124 -53q134 0 192.5 98t58.5 267zM866 1097q-12 -19 -21 -32t-27 -20l-276 253l-274 -253q-16 7 -27 20t-25 32l269 382h117z" />
    <glyph glyph-name="otilde" unicode="&#xf5;" horiz-adv-x="1045" 
d="M970 485q0 -100 -37 -192t-102 -165t-149.5 -115.5t-177.5 -42.5q-130 0 -226.5 62t-149.5 169t-53 243q0 99 35.5 191.5t99.5 166t149 116t184 42.5q129 0 225 -62t149 -169t53 -244zM783 450q0 106 -39 195.5t-100.5 144.5t-129.5 55q-96 0 -150.5 -49t-77.5 -133.5
t-23 -189.5t41.5 -193.5t103.5 -141.5t124 -53q134 0 192.5 98t58.5 267zM899 1349q-24 -54 -60.5 -109.5t-84.5 -93t-105 -37.5q-47 0 -89 27.5t-81.5 55t-78.5 27.5q-38 0 -71 -33t-69 -89l-63 24q23 54 59.5 110t84.5 93.5t105 37.5q52 0 95 -28t80.5 -55.5t70.5 -27.5
q37 0 73 33t70 92z" />
    <glyph glyph-name="odieresis" unicode="&#xf6;" horiz-adv-x="1045" 
d="M970 485q0 -100 -37 -192t-102 -165t-149.5 -115.5t-177.5 -42.5q-130 0 -226.5 62t-149.5 169t-53 243q0 99 35.5 191.5t99.5 166t149 116t184 42.5q129 0 225 -62t149 -169t53 -244zM783 450q0 106 -39 195.5t-100.5 144.5t-129.5 55q-96 0 -150.5 -49t-77.5 -133.5
t-23 -189.5t41.5 -193.5t103.5 -141.5t124 -53q134 0 192.5 98t58.5 267zM452 1263q0 -62 -38 -106t-92 -44q-95 0 -95 105q0 62 38 105.5t90 43.5q97 0 97 -104zM859 1263q0 -62 -37.5 -106t-91.5 -44q-96 0 -96 105q0 62 38.5 105.5t90.5 43.5q96 0 96 -104z" />
    <glyph glyph-name="divide" unicode="&#xf7;" horiz-adv-x="848" 
d="M789 596q-5 -20 -16.5 -49t-19.5 -45h-667l-28 26q6 21 16.5 48t19.5 47h668zM512 828q0 -48 -29 -84t-72 -36q-74 0 -74 85q0 50 29.5 84.5t71.5 34.5q74 0 74 -84zM512 335q0 -49 -29 -84.5t-72 -35.5q-74 0 -74 85q0 49 29.5 83.5t71.5 34.5q74 0 74 -83z" />
    <glyph glyph-name="oslash" unicode="&#xf8;" horiz-adv-x="1045" 
d="M970 485q0 -100 -37 -192t-102 -165t-149.5 -115.5t-177.5 -42.5q-68 0 -128.5 18.5t-108.5 51.5l-18 -23q-18 -15 -63.5 -38.5t-71.5 -31.5l-28 32l101 133q-53 63 -82.5 148.5t-29.5 183.5q0 99 35.5 191.5t99.5 166t149 116t184 42.5q68 0 128 -18.5t109 -52.5l19 25
q27 17 65 39.5t68 29.5l31 -32l-103 -135q52 -62 81 -147.5t29 -183.5zM310 272l368 484q-35 41 -78 65t-86 24q-96 0 -151 -49t-78.5 -133.5t-23.5 -189.5q0 -53 13 -105t36 -96zM532 85q134 0 193.5 98t59.5 267q0 55 -13 108t-35 98l-366 -480q36 -42 78.5 -66.5
t82.5 -24.5z" />
    <glyph glyph-name="ugrave" unicode="&#xf9;" horiz-adv-x="1108" 
d="M1094 92q-73 -48 -145 -85t-96 -37q-36 0 -60.5 41.5t-32.5 144.5q-83 -79 -146.5 -119t-113 -53.5t-92.5 -13.5q-62 0 -117.5 25t-90.5 92t-35 192v425q0 63 -6.5 91t-33 37t-86.5 15v50q81 9 142.5 23t133.5 40l30 -41v-582q0 -135 37 -182t104 -47q57 0 122.5 34
t151.5 120v442q0 60 -9 89t-38 40t-90 14v50q81 9 152.5 26.5t132.5 36.5l32 -41v-655q0 -122 23 -140q11 -8 38 -3.5t78 26.5zM675 1081q-13 -12 -31 -21.5t-35 -14.5l-362 377l24 46q13 3 48 9.5t71 12.5t52 7z" />
    <glyph glyph-name="uacute" unicode="&#xfa;" horiz-adv-x="1108" 
d="M1094 92q-73 -48 -145 -85t-96 -37q-36 0 -60.5 41.5t-32.5 144.5q-83 -79 -146.5 -119t-113 -53.5t-92.5 -13.5q-62 0 -117.5 25t-90.5 92t-35 192v425q0 63 -6.5 91t-33 37t-86.5 15v50q81 9 142.5 23t133.5 40l30 -41v-582q0 -135 37 -182t104 -47q57 0 122.5 34
t151.5 120v442q0 60 -9 89t-38 40t-90 14v50q81 9 152.5 26.5t132.5 36.5l32 -41v-655q0 -122 23 -140q11 -8 38 -3.5t78 26.5zM507 1045q-18 3 -37 13.5t-30 19.5l227 419q15 -1 50.5 -6.5t71 -11.5t50.5 -10l26 -44z" />
    <glyph glyph-name="ucircumflex" unicode="&#xfb;" horiz-adv-x="1108" 
d="M1094 92q-73 -48 -145 -85t-96 -37q-36 0 -60.5 41.5t-32.5 144.5q-83 -79 -146.5 -119t-113 -53.5t-92.5 -13.5q-62 0 -117.5 25t-90.5 92t-35 192v425q0 63 -6.5 91t-33 37t-86.5 15v50q81 9 142.5 23t133.5 40l30 -41v-582q0 -135 37 -182t104 -47q57 0 122.5 34
t151.5 120v442q0 60 -9 89t-38 40t-90 14v50q81 9 152.5 26.5t132.5 36.5l32 -41v-655q0 -122 23 -140q11 -8 38 -3.5t78 26.5zM879 1097q-12 -19 -21 -32t-27 -20l-276 253l-274 -253q-16 7 -27 20t-25 32l269 382h117z" />
    <glyph glyph-name="udieresis" unicode="&#xfc;" horiz-adv-x="1108" 
d="M1094 92q-73 -48 -145 -85t-96 -37q-36 0 -60.5 41.5t-32.5 144.5q-83 -79 -146.5 -119t-113 -53.5t-92.5 -13.5q-62 0 -117.5 25t-90.5 92t-35 192v425q0 63 -6.5 91t-33 37t-86.5 15v50q81 9 142.5 23t133.5 40l30 -41v-582q0 -135 37 -182t104 -47q57 0 122.5 34
t151.5 120v442q0 60 -9 89t-38 40t-90 14v50q81 9 152.5 26.5t132.5 36.5l32 -41v-655q0 -122 23 -140q11 -8 38 -3.5t78 26.5zM465 1263q0 -62 -38 -106t-92 -44q-95 0 -95 105q0 62 38 105.5t90 43.5q97 0 97 -104zM872 1263q0 -62 -37.5 -106t-91.5 -44q-96 0 -96 105
q0 62 38.5 105.5t90.5 43.5q96 0 96 -104z" />
    <glyph glyph-name="yacute" unicode="&#xfd;" horiz-adv-x="1020" 
d="M1002 877q-60 -14 -80 -26t-30 -41l-334 -889q-84 -222 -200.5 -320t-225.5 -98q-76 0 -130 19.5t-54 38.5q0 9 23 40t53 64t51 46q48 -30 96.5 -33t86.5 10q36 12 86 73t86 147l29 69l-330 832q-11 28 -36.5 42.5t-74.5 25.5v53h408v-53q-75 -10 -96.5 -22.5t-8.5 -45.5
l232 -592l220 592q11 31 -10.5 44t-92.5 24v53h332v-53zM486 1045q-18 3 -37 13.5t-30 19.5l227 419q15 -1 50.5 -6.5t71 -11.5t50.5 -10l26 -44z" />
    <glyph glyph-name="thorn" unicode="&#xfe;" horiz-adv-x="1105" 
d="M1030 497q0 -91 -34.5 -184t-93.5 -170.5t-134 -125t-157 -47.5q-39 0 -102 23.5t-139 81.5v-440q0 -16 38 -32t132 -30v-53h-487v53q66 16 101.5 30.5t35.5 31.5v1652q0 60 -11 85.5t-40.5 33.5t-85.5 14v50q85 14 149 31.5t129 48.5l39 -37v-759q106 114 194.5 160
t145.5 46q137 0 228.5 -121.5t91.5 -341.5zM865 415q0 129 -34 219.5t-88.5 138t-116.5 47.5q-36 0 -102 -38.5t-154 -148.5v-415q85 -60 151.5 -86.5t129.5 -26.5q68 0 116 43.5t73 114t25 152.5z" />
    <glyph glyph-name="ydieresis" unicode="&#xff;" horiz-adv-x="1020" 
d="M1002 877q-60 -14 -80 -26t-30 -41l-334 -889q-84 -222 -200.5 -320t-225.5 -98q-76 0 -130 19.5t-54 38.5q0 9 23 40t53 64t51 46q48 -30 96.5 -33t86.5 10q36 12 86 73t86 147l29 69l-330 832q-11 28 -36.5 42.5t-74.5 25.5v53h408v-53q-75 -10 -96.5 -22.5t-8.5 -45.5
l232 -592l220 592q11 31 -10.5 44t-92.5 24v53h332v-53zM444 1263q0 -62 -38 -106t-92 -44q-95 0 -95 105q0 62 38 105.5t90 43.5q97 0 97 -104zM851 1263q0 -62 -37.5 -106t-91.5 -44q-96 0 -96 105q0 62 38.5 105.5t90.5 43.5q96 0 96 -104z" />
    <glyph glyph-name="Amacron" unicode="&#x100;" horiz-adv-x="1242" 
d="M385 440l-106 -319q-10 -31 26 -45t118 -23v-53h-423v53q68 12 107 25t49 43l364 1106q31 30 74 52.5t78 37.5l420 -1196q10 -28 37 -44t92 -24v-53h-447v53q77 5 106.5 20t18.5 48l-110 319h-404zM754 540l-172 498l-164 -498h336zM978 1565q-5 -22 -21 -59.5t-23 -55.5
h-650l-25 27q4 22 20 58.5t26 55.5h648z" />
    <glyph glyph-name="amacron" unicode="&#x101;" horiz-adv-x="968" 
d="M956 92q-85 -58 -151.5 -90t-97.5 -32q-37 0 -60.5 52.5t-23.5 141.5v533q0 66 -32.5 110.5t-122.5 42.5q-59 -1 -108 -37t-43 -96q1 -10 -24.5 -22t-62 -23t-69 -17t-44.5 -3l-16 44q31 71 104.5 131t168 96.5t188.5 36.5q118 0 179.5 -61.5t61.5 -163.5v-537
q0 -78 40 -78q14 0 35 5.5t61 21.5zM633 483q-105 -17 -164 -33t-90 -34t-52 -39q-26 -27 -42 -60t-16 -78q0 -50 18.5 -77t43 -37t41.5 -10q54 0 118 29.5t143 99.5l8 -87q-94 -101 -187 -144t-161 -43q-51 0 -101 23t-83.5 72t-33.5 126q0 74 26 123.5t63 86.5
q32 33 80 61.5t138.5 54t250.5 49.5v-83zM867 1290q-5 -22 -21 -59.5t-24 -55.5h-665l-25 27q5 22 20.5 58.5t25.5 55.5h663z" />
    <glyph glyph-name="Abreve" unicode="&#x102;" horiz-adv-x="1242" 
d="M385 440l-106 -319q-10 -31 26 -45t118 -23v-53h-423v53q68 12 107 25t49 43l364 1106q31 30 74 52.5t78 37.5l420 -1196q10 -28 37 -44t92 -24v-53h-447v53q77 5 106.5 20t18.5 48l-110 319h-404zM754 540l-172 498l-164 -498h336zM946 1683q-60 -162 -149.5 -228.5
t-183.5 -66.5q-102 0 -189.5 66.5t-147.5 228.5q24 35 60 52q50 -106 128 -150.5t145 -44.5q70 0 149 44t127 151q36 -16 61 -52z" />
    <glyph glyph-name="abreve" unicode="&#x103;" horiz-adv-x="968" 
d="M956 92q-85 -58 -151.5 -90t-97.5 -32q-37 0 -60.5 52.5t-23.5 141.5v533q0 66 -32.5 110.5t-122.5 42.5q-59 -1 -108 -37t-43 -96q1 -10 -24.5 -22t-62 -23t-69 -17t-44.5 -3l-16 44q31 71 104.5 131t168 96.5t188.5 36.5q118 0 179.5 -61.5t61.5 -163.5v-537
q0 -78 40 -78q14 0 35 5.5t61 21.5zM633 483q-105 -17 -164 -33t-90 -34t-52 -39q-26 -27 -42 -60t-16 -78q0 -50 18.5 -77t43 -37t41.5 -10q54 0 118 29.5t143 99.5l8 -87q-94 -101 -187 -144t-161 -43q-51 0 -101 23t-83.5 72t-33.5 126q0 74 26 123.5t63 86.5
q32 33 80 61.5t138.5 54t250.5 49.5v-83zM827 1363q-60 -162 -149.5 -228.5t-183.5 -66.5q-102 0 -189.5 66.5t-147.5 228.5q24 35 60 52q50 -106 128 -150.5t145 -44.5q70 0 149 44t127 151q36 -16 61 -52z" />
    <glyph glyph-name="Aogonek" unicode="&#x104;" horiz-adv-x="1242" 
d="M385 440l-106 -319q-10 -31 26 -45t118 -23v-53h-423v53q68 12 107 25t49 43l364 1106q31 30 74 52.5t78 37.5l420 -1196q10 -28 37 -44t92 -24v-53h-447v53q77 5 106.5 20t18.5 48l-110 319h-404zM754 540l-172 498l-164 -498h336zM1134 -299q-45 -54 -116 -99.5
t-132 -45.5q-38 0 -75.5 12t-62.5 43.5t-25 89.5q0 180 313 342l57 -19q-130 -88 -168 -158t-38 -117q0 -37 23.5 -54.5t59.5 -17.5q25 0 60.5 16.5t77.5 54.5z" />
    <glyph glyph-name="aogonek" unicode="&#x105;" horiz-adv-x="968" 
d="M956 92q-85 -58 -151.5 -90t-97.5 -32q-37 0 -60.5 52.5t-23.5 141.5v533q0 66 -32.5 110.5t-122.5 42.5q-59 -1 -108 -37t-43 -96q1 -10 -24.5 -22t-62 -23t-69 -17t-44.5 -3l-16 44q31 71 104.5 131t168 96.5t188.5 36.5q118 0 179.5 -61.5t61.5 -163.5v-537
q0 -78 40 -78q14 0 35 5.5t61 21.5zM633 483q-105 -17 -164 -33t-90 -34t-52 -39q-26 -27 -42 -60t-16 -78q0 -50 18.5 -77t43 -37t41.5 -10q54 0 118 29.5t143 99.5l8 -87q-94 -101 -187 -144t-161 -43q-51 0 -101 23t-83.5 72t-33.5 126q0 74 26 123.5t63 86.5
q32 33 80 61.5t138.5 54t250.5 49.5v-83zM893 -299q-45 -54 -116 -99.5t-132 -45.5q-38 0 -75.5 12t-62.5 43.5t-25 89.5q0 180 313 342l57 -19q-130 -88 -168 -158t-38 -117q0 -37 23.5 -54.5t59.5 -17.5q25 0 60.5 16.5t77.5 54.5z" />
    <glyph glyph-name="Cacute" unicode="&#x106;" horiz-adv-x="1113" 
d="M1036 211q-128 -135 -240.5 -188t-219.5 -53q-95 0 -186.5 41.5t-164.5 121t-116.5 194t-43.5 259.5q0 213 83.5 371t223.5 245.5t309 87.5q107 0 195.5 -29.5t140.5 -70.5q7 -6 -11 -37.5t-43.5 -65.5t-40.5 -50l-45 9q-51 60 -120 93.5t-155 33.5q-51 0 -111.5 -28
t-114.5 -91.5t-88.5 -169t-34.5 -261.5q0 -175 62 -290t155 -171.5t186 -56.5q54 0 141.5 34t196.5 125q10 -6 24 -25.5t18 -27.5zM485 1364q-17 8 -29 22t-24 31l381 325q14 -7 44.5 -23.5t60 -34t40.5 -27.5l9 -51z" />
    <glyph glyph-name="cacute" unicode="&#x107;" horiz-adv-x="908" 
d="M858 190q-87 -101 -151 -147.5t-119 -59.5t-118 -13q-101 0 -191.5 56.5t-147 163t-56.5 254.5q0 144 68 261t186 186t266 69q66 0 141 -22t109 -57q3 -16 -8 -56.5t-27.5 -81t-28.5 -58.5l-47 10q-22 56 -75.5 103t-148.5 47q-66 0 -124.5 -40t-94.5 -122t-36 -208
q0 -111 40.5 -192.5t107.5 -125.5t144 -44q38 0 71 6.5t78 33t118 86.5zM448 1045q-18 3 -37 13.5t-30 19.5l227 419q15 -1 50.5 -6.5t71 -11.5t50.5 -10l26 -44z" />
    <glyph glyph-name="Ccircumflex" unicode="&#x108;" horiz-adv-x="1113" 
d="M1036 211q-128 -135 -240.5 -188t-219.5 -53q-95 0 -186.5 41.5t-164.5 121t-116.5 194t-43.5 259.5q0 213 83.5 371t223.5 245.5t309 87.5q107 0 195.5 -29.5t140.5 -70.5q7 -6 -11 -37.5t-43.5 -65.5t-40.5 -50l-45 9q-51 60 -120 93.5t-155 33.5q-51 0 -111.5 -28
t-114.5 -91.5t-88.5 -169t-34.5 -261.5q0 -175 62 -290t155 -171.5t186 -56.5q54 0 141.5 34t196.5 125q10 -6 24 -25.5t18 -27.5zM945 1417q-12 -19 -21.5 -32t-26.5 -20l-276 195l-274 -195q-16 7 -27 20t-25 32l269 317h117z" />
    <glyph glyph-name="ccircumflex" unicode="&#x109;" horiz-adv-x="908" 
d="M858 190q-87 -101 -151 -147.5t-119 -59.5t-118 -13q-101 0 -191.5 56.5t-147 163t-56.5 254.5q0 144 68 261t186 186t266 69q66 0 141 -22t109 -57q3 -16 -8 -56.5t-27.5 -81t-28.5 -58.5l-47 10q-22 56 -75.5 103t-148.5 47q-66 0 -124.5 -40t-94.5 -122t-36 -208
q0 -111 40.5 -192.5t107.5 -125.5t144 -44q38 0 71 6.5t78 33t118 86.5zM820 1097q-12 -19 -21 -32t-27 -20l-276 253l-274 -253q-16 7 -27 20t-25 32l269 382h117z" />
    <glyph glyph-name="Cdotaccent" unicode="&#x10a;" horiz-adv-x="1113" 
d="M1036 211q-128 -135 -240.5 -188t-219.5 -53q-95 0 -186.5 41.5t-164.5 121t-116.5 194t-43.5 259.5q0 213 83.5 371t223.5 245.5t309 87.5q107 0 195.5 -29.5t140.5 -70.5q7 -6 -11 -37.5t-43.5 -65.5t-40.5 -50l-45 9q-51 60 -120 93.5t-155 33.5q-51 0 -111.5 -28
t-114.5 -91.5t-88.5 -169t-34.5 -261.5q0 -175 62 -290t155 -171.5t186 -56.5q54 0 141.5 34t196.5 125q10 -6 24 -25.5t18 -27.5zM735 1543q0 -62 -37.5 -106t-91.5 -44q-96 0 -96 105q0 62 38.5 105.5t90.5 43.5q96 0 96 -104z" />
    <glyph glyph-name="cdotaccent" unicode="&#x10b;" horiz-adv-x="908" 
d="M858 190q-87 -101 -151 -147.5t-119 -59.5t-118 -13q-101 0 -191.5 56.5t-147 163t-56.5 254.5q0 144 68 261t186 186t266 69q66 0 141 -22t109 -57q3 -16 -8 -56.5t-27.5 -81t-28.5 -58.5l-47 10q-22 56 -75.5 103t-148.5 47q-66 0 -124.5 -40t-94.5 -122t-36 -208
q0 -111 40.5 -192.5t107.5 -125.5t144 -44q38 0 71 6.5t78 33t118 86.5zM609 1263q0 -62 -37.5 -106t-91.5 -44q-96 0 -96 105q0 62 38.5 105.5t90.5 43.5q96 0 96 -104z" />
    <glyph glyph-name="Ccaron" unicode="&#x10c;" horiz-adv-x="1113" 
d="M1036 211q-128 -135 -240.5 -188t-219.5 -53q-95 0 -186.5 41.5t-164.5 121t-116.5 194t-43.5 259.5q0 213 83.5 371t223.5 245.5t309 87.5q107 0 195.5 -29.5t140.5 -70.5q7 -6 -11 -37.5t-43.5 -65.5t-40.5 -50l-45 9q-51 60 -120 93.5t-155 33.5q-51 0 -111.5 -28
t-114.5 -91.5t-88.5 -169t-34.5 -261.5q0 -175 62 -290t155 -171.5t186 -56.5q54 0 141.5 34t196.5 125q10 -6 24 -25.5t18 -27.5zM681 1389h-117l-266 311q14 20 23.5 32.5t26.5 21.5l277 -194l273 194q17 -9 27.5 -21.5t23.5 -32.5z" />
    <glyph glyph-name="ccaron" unicode="&#x10d;" horiz-adv-x="908" 
d="M858 190q-87 -101 -151 -147.5t-119 -59.5t-118 -13q-101 0 -191.5 56.5t-147 163t-56.5 254.5q0 144 68 261t186 186t266 69q66 0 141 -22t109 -57q3 -16 -8 -56.5t-27.5 -81t-28.5 -58.5l-47 10q-22 56 -75.5 103t-148.5 47q-66 0 -124.5 -40t-94.5 -122t-36 -208
q0 -111 40.5 -192.5t107.5 -125.5t144 -44q38 0 71 6.5t78 33t118 86.5zM556 1066h-117l-269 365q14 19 25 32t27 22l277 -241l273 241q18 -9 27 -22t21 -32z" />
    <glyph glyph-name="Dcaron" unicode="&#x10e;" horiz-adv-x="1244" 
d="M48 0v53q67 14 104.5 31t37.5 30v1065q-77 -11 -142 -21l-11 72q61 17 147.5 30.5t179.5 21.5t174 8q288 0 453 -162t165 -452q0 -187 -54.5 -316.5t-141 -209t-187.5 -115t-194 -35.5h-66h-139.5h-129h-162.5h-34zM552 92q65 0 135 32.5t130.5 99.5t98 169.5t37.5 243.5
q0 266 -124.5 414t-357.5 148q-44 0 -91 -3v-1037q0 -44 54.5 -55.5t117.5 -11.5zM623 1389h-117l-266 311q14 20 23.5 32.5t26.5 21.5l277 -194l273 194q17 -9 27.5 -21.5t23.5 -32.5z" />
    <glyph glyph-name="dcaron" unicode="&#x10f;" horiz-adv-x="1332" 
d="M1081 94q-186 -124 -247 -124q-43 0 -66 73t-23 239v982q0 74 -7 108.5t-36.5 46.5t-98.5 17v49q91 11 164 29.5t125 35.5l33 -32v-1249q0 -70 6 -100.5t17 -42.5q9 -10 33 -6t82 27zM819 245q-72 -88 -132.5 -149.5t-123 -93.5t-142.5 -32q-79 0 -159 56.5t-133.5 163
t-53.5 254.5q0 91 34.5 182t98 167t150.5 121.5t193 45.5q60 0 121 -20.5t139 -96.5q0 -60 -13.5 -87t-45.5 -46q-33 63 -93 98t-134 35q-118 0 -194 -89t-76 -271q0 -111 39 -192.5t96 -126t112 -44.5q73 0 140 55t138 122q12 -6 23.5 -25t15.5 -27zM1307 1334
q-4 -74 -53 -146.5t-146 -133.5l-44 39q84 76 88 161q3 51 -31.5 89t-115.5 38l-13 50q16 17 60 35t91.5 30t71.5 10q55 -23 75 -72t17 -100z" />
    <glyph glyph-name="Dcroat" unicode="&#x110;" horiz-adv-x="1244" 
d="M629 615h-580l-22 25q11 36 26 75h580l25 -23zM48 0v53q67 14 104.5 31t37.5 30v1065q-77 -11 -142 -21l-11 72q61 17 147.5 30.5t179.5 21.5t174 8q288 0 453 -162t165 -452q0 -187 -54.5 -316.5t-141 -209t-187.5 -115t-194 -35.5h-66h-139.5h-129h-162.5h-34zM552 92
q65 0 135 32.5t130.5 99.5t98 169.5t37.5 243.5q0 266 -124.5 414t-357.5 148q-44 0 -91 -3v-1037q0 -44 54.5 -55.5t117.5 -11.5z" />
    <glyph glyph-name="dcroat" unicode="&#x111;" horiz-adv-x="1093" 
d="M1065 1131h-603l-23 22q5 16 12.5 39.5t14.5 38.5h604l22 -25zM1081 94q-187 -125 -247 -125q-43 0 -66 73.5t-23 239.5v987q0 71 -7 105t-36.5 45.5t-98.5 16.5v49q91 11 164 30t125 35l33 -32v-1249q0 -70 6 -100.5t17 -42.5q10 -9 33.5 -5.5t81.5 26.5zM819 245
q-72 -88 -132.5 -149.5t-123 -93.5t-142.5 -32q-79 0 -159 56.5t-133.5 163t-53.5 254.5q0 91 34.5 182t98 167t150.5 121.5t193 45.5q60 0 121 -20.5t139 -96.5q0 -60 -13.5 -87t-45.5 -46q-33 63 -93 98t-134 35q-118 0 -194 -89t-76 -271q0 -111 39 -192.5t96 -126
t112 -44.5q73 0 140 55t138 122q12 -6 23.5 -25t15.5 -27z" />
    <glyph glyph-name="Emacron" unicode="&#x112;" horiz-adv-x="1036" 
d="M914 1233q-2 -34 -8.5 -81.5t-15.5 -91.5t-17 -70h-55q-4 92 -24.5 131t-57.5 39h-408l29 100h522zM811 705q-16 -28 -43 -64.5t-49 -51.5q-31 29 -72.5 42t-125.5 13h-207l22 91h447zM979 264q-7 -86 -20 -160.5t-21 -103.5h-890v53q67 14 104.5 31t37.5 30v1031
q0 12 -35 30t-107 32v53h477v-53q-67 -7 -106 -16.5t-39 -23.5v-1003q0 -19 14.5 -33.5t58 -22.5t131.5 -8h119q62 0 100.5 13.5t66.5 53.5t56 118zM881 1565q-5 -22 -21 -59.5t-23 -55.5h-650l-25 27q4 22 20 58.5t26 55.5h648z" />
    <glyph glyph-name="emacron" unicode="&#x113;" horiz-adv-x="961" 
d="M886 555q-18 -21 -53 -40.5t-67 -31.5h-584l2 97h475q23 0 30.5 7.5t7.5 28.5q0 37 -15.5 92.5t-57.5 98.5t-123 43q-116 0 -179.5 -100t-63.5 -255q0 -104 33 -191t96 -139t152 -52q42 0 81.5 8t90.5 36t127 87q13 -7 25.5 -24t16.5 -25q-90 -96 -155 -144.5t-124 -64.5
t-131 -16q-106 0 -196 58t-144.5 163t-54.5 246q0 135 56.5 251t159.5 188q47 33 113.5 58.5t127.5 25.5q98 0 165.5 -36.5t109.5 -96.5t60.5 -131.5t18.5 -140.5zM894 1290q-5 -22 -21 -59.5t-24 -55.5h-665l-25 27q5 22 20.5 58.5t25.5 55.5h663z" />
    <glyph glyph-name="Ebreve" unicode="&#x114;" horiz-adv-x="1036" 
d="M914 1233q-2 -34 -8.5 -81.5t-15.5 -91.5t-17 -70h-55q-4 92 -24.5 131t-57.5 39h-408l29 100h522zM811 705q-16 -28 -43 -64.5t-49 -51.5q-31 29 -72.5 42t-125.5 13h-207l22 91h447zM979 264q-7 -86 -20 -160.5t-21 -103.5h-890v53q67 14 104.5 31t37.5 30v1031
q0 12 -35 30t-107 32v53h477v-53q-67 -7 -106 -16.5t-39 -23.5v-1003q0 -19 14.5 -33.5t58 -22.5t131.5 -8h119q62 0 100.5 13.5t66.5 53.5t56 118zM849 1683q-60 -162 -149.5 -228.5t-183.5 -66.5q-102 0 -189.5 66.5t-147.5 228.5q24 35 60 52q50 -106 128 -150.5
t145 -44.5q70 0 149 44t127 151q36 -16 61 -52z" />
    <glyph glyph-name="ebreve" unicode="&#x115;" horiz-adv-x="961" 
d="M886 555q-18 -21 -53 -40.5t-67 -31.5h-584l2 97h475q23 0 30.5 7.5t7.5 28.5q0 37 -15.5 92.5t-57.5 98.5t-123 43q-116 0 -179.5 -100t-63.5 -255q0 -104 33 -191t96 -139t152 -52q42 0 81.5 8t90.5 36t127 87q13 -7 25.5 -24t16.5 -25q-90 -96 -155 -144.5t-124 -64.5
t-131 -16q-106 0 -196 58t-144.5 163t-54.5 246q0 135 56.5 251t159.5 188q47 33 113.5 58.5t127.5 25.5q98 0 165.5 -36.5t109.5 -96.5t60.5 -131.5t18.5 -140.5zM854 1363q-60 -162 -149.5 -228.5t-183.5 -66.5q-102 0 -189.5 66.5t-147.5 228.5q24 35 60 52
q50 -106 128 -150.5t145 -44.5q70 0 149 44t127 151q36 -16 61 -52z" />
    <glyph glyph-name="Edotaccent" unicode="&#x116;" horiz-adv-x="1036" 
d="M914 1233q-2 -34 -8.5 -81.5t-15.5 -91.5t-17 -70h-55q-4 92 -24.5 131t-57.5 39h-408l29 100h522zM811 705q-16 -28 -43 -64.5t-49 -51.5q-31 29 -72.5 42t-125.5 13h-207l22 91h447zM979 264q-7 -86 -20 -160.5t-21 -103.5h-890v53q67 14 104.5 31t37.5 30v1031
q0 12 -35 30t-107 32v53h477v-53q-67 -7 -106 -16.5t-39 -23.5v-1003q0 -19 14.5 -33.5t58 -22.5t131.5 -8h119q62 0 100.5 13.5t66.5 53.5t56 118zM627 1543q0 -62 -37.5 -106t-91.5 -44q-96 0 -96 105q0 62 38.5 105.5t90.5 43.5q96 0 96 -104z" />
    <glyph glyph-name="edotaccent" unicode="&#x117;" horiz-adv-x="961" 
d="M886 555q-18 -21 -53 -40.5t-67 -31.5h-584l2 97h475q23 0 30.5 7.5t7.5 28.5q0 37 -15.5 92.5t-57.5 98.5t-123 43q-116 0 -179.5 -100t-63.5 -255q0 -104 33 -191t96 -139t152 -52q42 0 81.5 8t90.5 36t127 87q13 -7 25.5 -24t16.5 -25q-90 -96 -155 -144.5t-124 -64.5
t-131 -16q-106 0 -196 58t-144.5 163t-54.5 246q0 135 56.5 251t159.5 188q47 33 113.5 58.5t127.5 25.5q98 0 165.5 -36.5t109.5 -96.5t60.5 -131.5t18.5 -140.5zM631 1263q0 -62 -37.5 -106t-91.5 -44q-96 0 -96 105q0 62 38.5 105.5t90.5 43.5q96 0 96 -104z" />
    <glyph glyph-name="Eogonek" unicode="&#x118;" horiz-adv-x="1036" 
d="M914 1233q-2 -34 -8.5 -81.5t-15.5 -91.5t-17 -70h-55q-4 92 -24.5 131t-57.5 39h-408l29 100h522zM811 705q-16 -28 -43 -64.5t-49 -51.5q-31 29 -72.5 42t-125.5 13h-207l22 91h447zM979 264q-7 -86 -20 -160.5t-21 -103.5h-890v53q67 14 104.5 31t37.5 30v1031
q0 12 -35 30t-107 32v53h477v-53q-67 -7 -106 -16.5t-39 -23.5v-1003q0 -19 14.5 -33.5t58 -22.5t131.5 -8h119q62 0 100.5 13.5t66.5 53.5t56 118zM925 -299q-45 -54 -116 -99.5t-132 -45.5q-38 0 -75.5 12t-62.5 43.5t-25 89.5q0 180 313 342l57 -19q-130 -88 -168 -158
t-38 -117q0 -37 23.5 -54.5t59.5 -17.5q25 0 60.5 16.5t77.5 54.5z" />
    <glyph glyph-name="eogonek" unicode="&#x119;" horiz-adv-x="961" 
d="M798 -299q-45 -54 -114 -99.5t-141 -45.5q-60 0 -108 31.5t-48 113.5q0 59 44.5 132t144.5 148q-22 -4 -51 -7.5t-55 -3.5q-106 0 -196 58t-144.5 163t-54.5 246q0 135 56.5 251t159.5 188q47 33 113.5 58.5t127.5 25.5q98 0 165.5 -36.5t109.5 -96.5t60.5 -131.5
t18.5 -140.5q-18 -21 -53 -40.5t-67 -31.5h-508v-3q0 -98 33.5 -182t96.5 -134.5t151 -50.5q42 0 81.5 8t90.5 36t127 87q13 -7 25.5 -24t16.5 -25q-128 -117 -199.5 -199.5t-100.5 -140t-29 -99.5q0 -43 20.5 -61t55.5 -18q33 0 68 16.5t77 54.5zM501 850q-99 0 -160 -73.5
t-78 -196.5h396q23 0 30.5 7.5t7.5 28.5q0 37 -15.5 92.5t-57.5 98.5t-123 43z" />
    <glyph glyph-name="Ecaron" unicode="&#x11a;" horiz-adv-x="1036" 
d="M914 1233q-2 -34 -8.5 -81.5t-15.5 -91.5t-17 -70h-55q-4 92 -24.5 131t-57.5 39h-408l29 100h522zM811 705q-16 -28 -43 -64.5t-49 -51.5q-31 29 -72.5 42t-125.5 13h-207l22 91h447zM979 264q-7 -86 -20 -160.5t-21 -103.5h-890v53q67 14 104.5 31t37.5 30v1031
q0 12 -35 30t-107 32v53h477v-53q-67 -7 -106 -16.5t-39 -23.5v-1003q0 -19 14.5 -33.5t58 -22.5t131.5 -8h119q62 0 100.5 13.5t66.5 53.5t56 118zM573 1389h-117l-266 311q14 20 23.5 32.5t26.5 21.5l277 -194l273 194q17 -9 27.5 -21.5t23.5 -32.5z" />
    <glyph glyph-name="ecaron" unicode="&#x11b;" horiz-adv-x="961" 
d="M886 555q-18 -21 -53 -40.5t-67 -31.5h-584l2 97h475q23 0 30.5 7.5t7.5 28.5q0 37 -15.5 92.5t-57.5 98.5t-123 43q-116 0 -179.5 -100t-63.5 -255q0 -104 33 -191t96 -139t152 -52q42 0 81.5 8t90.5 36t127 87q13 -7 25.5 -24t16.5 -25q-90 -96 -155 -144.5t-124 -64.5
t-131 -16q-106 0 -196 58t-144.5 163t-54.5 246q0 135 56.5 251t159.5 188q47 33 113.5 58.5t127.5 25.5q98 0 165.5 -36.5t109.5 -96.5t60.5 -131.5t18.5 -140.5zM578 1066h-117l-269 365q14 19 25 32t27 22l277 -241l273 241q18 -9 27 -22t21 -32z" />
    <glyph glyph-name="Gcircumflex" unicode="&#x11c;" horiz-adv-x="1207" 
d="M1160 562q-57 -13 -79.5 -36t-22.5 -46v-321l-27.5 -11.5t-63 -25.5t-62.5 -22.5t-27 -1.5v382q0 22 -36.5 42.5t-154.5 39.5v53h473v-53zM1060 1188q9 -7 -10 -36.5t-46.5 -62t-44.5 -48.5l-43 9q-66 74 -139.5 99.5t-168.5 25.5q-37 0 -96.5 -26t-119 -87t-99.5 -165
t-40 -260q0 -183 59 -301.5t151.5 -175.5t191.5 -57q102 0 175.5 29t125.5 78q9 -4 32 -14.5t44.5 -21t25.5 -15.5q-99 -81 -174.5 -121.5t-137.5 -54t-123 -13.5q-103 0 -202.5 37.5t-180 113.5t-128 191.5t-47.5 269.5q0 222 91 380.5t244.5 243t341.5 84.5q44 0 102 -12
t115 -34.5t101 -55.5zM969 1417q-12 -19 -21.5 -32t-26.5 -20l-276 195l-274 -195q-16 7 -27 20t-25 32l269 317h117z" />
    <glyph glyph-name="gcircumflex" unicode="&#x11d;" horiz-adv-x="1019" 
d="M993 -115q0 -78 -45.5 -147.5t-120.5 -122t-166 -82.5t-181 -30q-73 0 -152.5 15t-148 47.5t-111.5 84t-43 124.5q0 36 23 77t89.5 92t196.5 118l22 -2t45 -8.5t26 -20.5q-103 -56 -150 -96.5t-59.5 -69.5t-12.5 -51q0 -53 45.5 -96.5t122 -70t167.5 -26.5q129 0 202 63
t73 155q0 33 -23 61t-84 49.5t-177 35.5q-197 23 -278 67t-81 92q0 20 37 67.5t153 122.5l155 17q-89 -60 -118.5 -100.5t-29.5 -48.5q0 -15 18 -28.5t70.5 -26.5t157.5 -26q149 -17 231 -52t114.5 -82.5t32.5 -100.5zM1012 928q-11 -26 -23.5 -53.5t-33.5 -51.5
q-54 -9 -111 -14t-142 -2l-44 82q122 7 203.5 30.5t127.5 40.5zM853 641q0 -102 -58.5 -180t-150.5 -122t-194 -44q-101 0 -181.5 38t-127 107t-46.5 162q0 98 57.5 179.5t149.5 130t196 48.5q101 0 181 -43.5t127 -116t47 -159.5zM683 600q0 105 -64 180t-188 75
q-33 0 -71.5 -22t-66.5 -65.5t-28 -108.5q0 -105 61 -179.5t191 -74.5q58 0 112 49t54 146zM832 1097q-12 -19 -21 -32t-27 -20l-276 253l-274 -253q-16 7 -27 20t-25 32l269 382h117z" />
    <glyph glyph-name="Gbreve" unicode="&#x11e;" horiz-adv-x="1207" 
d="M1160 562q-57 -13 -79.5 -36t-22.5 -46v-321l-27.5 -11.5t-63 -25.5t-62.5 -22.5t-27 -1.5v382q0 22 -36.5 42.5t-154.5 39.5v53h473v-53zM1060 1188q9 -7 -10 -36.5t-46.5 -62t-44.5 -48.5l-43 9q-66 74 -139.5 99.5t-168.5 25.5q-37 0 -96.5 -26t-119 -87t-99.5 -165
t-40 -260q0 -183 59 -301.5t151.5 -175.5t191.5 -57q102 0 175.5 29t125.5 78q9 -4 32 -14.5t44.5 -21t25.5 -15.5q-99 -81 -174.5 -121.5t-137.5 -54t-123 -13.5q-103 0 -202.5 37.5t-180 113.5t-128 191.5t-47.5 269.5q0 222 91 380.5t244.5 243t341.5 84.5q44 0 102 -12
t115 -34.5t101 -55.5zM981 1683q-60 -162 -149.5 -228.5t-183.5 -66.5q-102 0 -189.5 66.5t-147.5 228.5q24 35 60 52q50 -106 128 -150.5t145 -44.5q70 0 149 44t127 151q36 -16 61 -52z" />
    <glyph glyph-name="gbreve" unicode="&#x11f;" horiz-adv-x="1019" 
d="M993 -115q0 -78 -45.5 -147.5t-120.5 -122t-166 -82.5t-181 -30q-73 0 -152.5 15t-148 47.5t-111.5 84t-43 124.5q0 36 23 77t89.5 92t196.5 118l22 -2t45 -8.5t26 -20.5q-103 -56 -150 -96.5t-59.5 -69.5t-12.5 -51q0 -53 45.5 -96.5t122 -70t167.5 -26.5q129 0 202 63
t73 155q0 33 -23 61t-84 49.5t-177 35.5q-197 23 -278 67t-81 92q0 20 37 67.5t153 122.5l155 17q-89 -60 -118.5 -100.5t-29.5 -48.5q0 -15 18 -28.5t70.5 -26.5t157.5 -26q149 -17 231 -52t114.5 -82.5t32.5 -100.5zM1012 928q-11 -26 -23.5 -53.5t-33.5 -51.5
q-54 -9 -111 -14t-142 -2l-44 82q122 7 203.5 30.5t127.5 40.5zM853 641q0 -102 -58.5 -180t-150.5 -122t-194 -44q-101 0 -181.5 38t-127 107t-46.5 162q0 98 57.5 179.5t149.5 130t196 48.5q101 0 181 -43.5t127 -116t47 -159.5zM683 600q0 105 -64 180t-188 75
q-33 0 -71.5 -22t-66.5 -65.5t-28 -108.5q0 -105 61 -179.5t191 -74.5q58 0 112 49t54 146zM844 1363q-60 -162 -149.5 -228.5t-183.5 -66.5q-102 0 -189.5 66.5t-147.5 228.5q24 35 60 52q50 -106 128 -150.5t145 -44.5q70 0 149 44t127 151q36 -16 61 -52z" />
    <glyph glyph-name="Gdotaccent" unicode="&#x120;" horiz-adv-x="1207" 
d="M1160 562q-57 -13 -79.5 -36t-22.5 -46v-321l-27.5 -11.5t-63 -25.5t-62.5 -22.5t-27 -1.5v382q0 22 -36.5 42.5t-154.5 39.5v53h473v-53zM1060 1188q9 -7 -10 -36.5t-46.5 -62t-44.5 -48.5l-43 9q-66 74 -139.5 99.5t-168.5 25.5q-37 0 -96.5 -26t-119 -87t-99.5 -165
t-40 -260q0 -183 59 -301.5t151.5 -175.5t191.5 -57q102 0 175.5 29t125.5 78q9 -4 32 -14.5t44.5 -21t25.5 -15.5q-99 -81 -174.5 -121.5t-137.5 -54t-123 -13.5q-103 0 -202.5 37.5t-180 113.5t-128 191.5t-47.5 269.5q0 222 91 380.5t244.5 243t341.5 84.5q44 0 102 -12
t115 -34.5t101 -55.5zM759 1543q0 -62 -37.5 -106t-91.5 -44q-96 0 -96 105q0 62 38.5 105.5t90.5 43.5q96 0 96 -104z" />
    <glyph glyph-name="gdotaccent" unicode="&#x121;" horiz-adv-x="1019" 
d="M993 -115q0 -78 -45.5 -147.5t-120.5 -122t-166 -82.5t-181 -30q-73 0 -152.5 15t-148 47.5t-111.5 84t-43 124.5q0 36 23 77t89.5 92t196.5 118l22 -2t45 -8.5t26 -20.5q-103 -56 -150 -96.5t-59.5 -69.5t-12.5 -51q0 -53 45.5 -96.5t122 -70t167.5 -26.5q129 0 202 63
t73 155q0 33 -23 61t-84 49.5t-177 35.5q-197 23 -278 67t-81 92q0 20 37 67.5t153 122.5l155 17q-89 -60 -118.5 -100.5t-29.5 -48.5q0 -15 18 -28.5t70.5 -26.5t157.5 -26q149 -17 231 -52t114.5 -82.5t32.5 -100.5zM1012 928q-11 -26 -23.5 -53.5t-33.5 -51.5
q-54 -9 -111 -14t-142 -2l-44 82q122 7 203.5 30.5t127.5 40.5zM853 641q0 -102 -58.5 -180t-150.5 -122t-194 -44q-101 0 -181.5 38t-127 107t-46.5 162q0 98 57.5 179.5t149.5 130t196 48.5q101 0 181 -43.5t127 -116t47 -159.5zM683 600q0 105 -64 180t-188 75
q-33 0 -71.5 -22t-66.5 -65.5t-28 -108.5q0 -105 61 -179.5t191 -74.5q58 0 112 49t54 146zM621 1263q0 -62 -37.5 -106t-91.5 -44q-96 0 -96 105q0 62 38.5 105.5t90.5 43.5q96 0 96 -104z" />
    <glyph glyph-name="Gcommaaccent" unicode="&#x122;" horiz-adv-x="1207" 
d="M1160 562q-57 -13 -79.5 -36t-22.5 -46v-321l-27.5 -11.5t-63 -25.5t-62.5 -22.5t-27 -1.5v382q0 22 -36.5 42.5t-154.5 39.5v53h473v-53zM1060 1188q9 -7 -10 -36.5t-46.5 -62t-44.5 -48.5l-43 9q-66 74 -139.5 99.5t-168.5 25.5q-37 0 -96.5 -26t-119 -87t-99.5 -165
t-40 -260q0 -183 59 -301.5t151.5 -175.5t191.5 -57q102 0 175.5 29t125.5 78q9 -4 32 -14.5t44.5 -21t25.5 -15.5q-99 -81 -174.5 -121.5t-137.5 -54t-123 -13.5q-103 0 -202.5 37.5t-180 113.5t-128 191.5t-47.5 269.5q0 222 91 380.5t244.5 243t341.5 84.5q44 0 102 -12
t115 -34.5t101 -55.5zM778 -283q-8 -62 -55.5 -129.5t-134.5 -108.5l-41 42q31 22 55 65t26 79q1 45 -33 81t-113 41l-11 50q16 14 61 29t92 24t69 6q50 -24 70.5 -77t14.5 -102z" />
    <glyph glyph-name="gcommaaccent" unicode="&#x123;" horiz-adv-x="1019" 
d="M993 -115q0 -78 -45.5 -147.5t-120.5 -122t-166 -82.5t-181 -30q-73 0 -152.5 15t-148 47.5t-111.5 84t-43 124.5q0 36 23 77t89.5 92t196.5 118l22 -2t45 -8.5t26 -20.5q-103 -56 -150 -96.5t-59.5 -69.5t-12.5 -51q0 -53 45.5 -96.5t122 -70t167.5 -26.5q129 0 202 63
t73 155q0 33 -23 61t-84 49.5t-177 35.5q-197 23 -278 67t-81 92q0 20 37 67.5t153 122.5l155 17q-89 -60 -118.5 -100.5t-29.5 -48.5q0 -15 18 -28.5t70.5 -26.5t157.5 -26q149 -17 231 -52t114.5 -82.5t32.5 -100.5zM1012 928q-11 -26 -23.5 -53.5t-33.5 -51.5
q-54 -9 -111 -14t-142 -2l-44 82q122 7 203.5 30.5t127.5 40.5zM853 641q0 -102 -58.5 -180t-150.5 -122t-194 -44q-101 0 -181.5 38t-127 107t-46.5 162q0 98 57.5 179.5t149.5 130t196 48.5q101 0 181 -43.5t127 -116t47 -159.5zM683 600q0 105 -64 180t-188 75
q-33 0 -71.5 -22t-66.5 -65.5t-28 -108.5q0 -105 61 -179.5t191 -74.5q58 0 112 49t54 146zM352 1239q3 75 52 147.5t146 133.5l44 -39q-84 -77 -88 -162q-3 -51 32 -88.5t115 -38.5l13 -49q-15 -17 -59.5 -35.5t-91.5 -30.5t-72 -9q-55 23 -74.5 71.5t-16.5 99.5z" />
    <glyph glyph-name="Hcircumflex" unicode="&#x124;" horiz-adv-x="1359" 
d="M818 0v53q67 14 104.5 31t37.5 30v1031q0 12 -35 30t-107 32v53h475v-53q-68 -14 -105.5 -31t-37.5 -31v-1031q0 -12 35.5 -29.5t107.5 -31.5v-53h-475zM352 610v100h628v-100h-628zM48 0v53q67 14 104.5 31t37.5 30v1031q0 12 -35 30t-107 32v53h475v-53
q-68 -14 -105.5 -31t-37.5 -31v-1031q0 -12 35 -29.5t108 -31.5v-53h-475zM993 1417q-12 -19 -21.5 -32t-26.5 -20l-276 195l-274 -195q-16 7 -27 20t-25 32l269 317h117z" />
    <glyph glyph-name="hcircumflex" unicode="&#x125;" horiz-adv-x="1150" 
d="M668 0v53q137 36 137 61v499q0 122 -29.5 161t-93.5 39q-65 0 -146.5 -59.5t-165.5 -174.5v-465q0 -15 36.5 -31t101.5 -30v-53h-455v53q66 17 101.5 31t35.5 30v1174q0 56 -7.5 81t-36.5 34.5t-93 16.5v50q94 16 154.5 33.5t123.5 46.5l39 -36v-797q96 116 206 179.5
t188 63.5q86 0 153.5 -55t67.5 -176v-615q0 -13 29.5 -27t108.5 -34v-53h-455zM600 1667q-12 -19 -21.5 -32t-26.5 -20l-276 195l-274 -195q-16 7 -27 20t-25 32l269 317h117z" />
    <glyph glyph-name="Hbar" unicode="&#x126;" horiz-adv-x="1359" 
d="M818 0v53q67 14 104.5 31t37.5 30v1031q0 12 -35 30t-107 32v53h475v-53q-68 -14 -105.5 -31t-37.5 -31v-1031q0 -12 35.5 -29.5t107.5 -31.5v-53h-475zM352 610v100h628v-100h-628zM48 0v53q67 14 104.5 31t37.5 30v1031q0 12 -35 30t-107 32v53h475v-53
q-68 -14 -105.5 -31t-37.5 -31v-1031q0 -12 35 -29.5t108 -31.5v-53h-475zM1278 886h-1222l-22 24q4 15 12 37.5t14 38.5h1222l24 -23z" />
    <glyph glyph-name="hbar" unicode="&#x127;" horiz-adv-x="1150" 
d="M647 1136h-604l-22 22q4 16 11.5 39t15.5 39h604l22 -25zM668 0v53q137 36 137 61v499q0 122 -29.5 161t-93.5 39q-65 0 -146.5 -59.5t-165.5 -174.5v-465q0 -15 36.5 -31t101.5 -30v-53h-455v53q66 17 101.5 31t35.5 30v1174q0 56 -7.5 81t-36.5 34.5t-93 16.5v50
q94 16 154.5 33.5t123.5 46.5l39 -36v-797q96 116 206 179.5t188 63.5q86 0 153.5 -55t67.5 -176v-615q0 -13 29.5 -27t108.5 -34v-53h-455z" />
    <glyph glyph-name="Itilde" unicode="&#x128;" horiz-adv-x="630" 
d="M68 0v53q67 14 104.5 31t37.5 30v1031q0 12 -35 30t-107 32v53h475v-53q-68 -14 -105.5 -31t-37.5 -31v-1031q0 -12 35.5 -29.5t107.5 -31.5v-53h-475zM663 1634q-23 -54 -60 -110.5t-84.5 -94.5t-102.5 -38q-50 0 -94.5 27.5t-87 55t-84.5 27.5t-74.5 -31.5t-68.5 -87.5
l-61 23q24 54 60.5 110.5t84 95t102.5 38.5q54 0 100.5 -27.5t87 -55t76.5 -27.5q75 0 145 120z" />
    <glyph glyph-name="itilde" unicode="&#x129;" horiz-adv-x="575" 
d="M68 0v53q137 28 137 61v549q0 68 -5 102t-33.5 47.5t-98.5 20.5v50q70 12 143 32t130 45h44v-846q0 -12 32.5 -29.5t105.5 -31.5v-53h-455zM651 1349q-24 -54 -60.5 -109.5t-84.5 -93t-105 -37.5q-47 0 -89 27.5t-81.5 55t-78.5 27.5q-38 0 -71 -33t-69 -89l-63 24
q23 54 59.5 110t84.5 93.5t105 37.5q52 0 95 -28t80.5 -55.5t70.5 -27.5q37 0 73 33t70 92z" />
    <glyph glyph-name="Imacron" unicode="&#x12a;" horiz-adv-x="630" 
d="M68 0v53q67 14 104.5 31t37.5 30v1031q0 12 -35 30t-107 32v53h475v-53q-68 -14 -105.5 -31t-37.5 -31v-1031q0 -12 35.5 -29.5t107.5 -31.5v-53h-475zM594 1565q-5 -22 -21 -59.5t-24 -55.5h-491l-25 27q5 22 20.5 58.5t25.5 55.5h490z" />
    <glyph glyph-name="imacron" unicode="&#x12b;" horiz-adv-x="575" 
d="M68 0v53q137 28 137 61v549q0 68 -5 102t-33.5 47.5t-98.5 20.5v50q70 12 143 32t130 45h44v-846q0 -12 32.5 -29.5t105.5 -31.5v-53h-455zM584 1290q-5 -22 -21 -59.5t-24 -55.5h-491l-25 27q5 22 20.5 58.5t25.5 55.5h490z" />
    <glyph glyph-name="Ibreve" unicode="&#x12c;" horiz-adv-x="630" 
d="M68 0v53q67 14 104.5 31t37.5 30v1031q0 12 -35 30t-107 32v53h475v-53q-68 -14 -105.5 -31t-37.5 -31v-1031q0 -12 35.5 -29.5t107.5 -31.5v-53h-475zM640 1683q-60 -162 -149.5 -228.5t-183.5 -66.5q-102 0 -189.5 66.5t-147.5 228.5q24 35 60 52q50 -106 128 -150.5
t145 -44.5q70 0 149 44t127 151q36 -16 61 -52z" />
    <glyph glyph-name="ibreve" unicode="&#x12d;" horiz-adv-x="575" 
d="M68 0v53q137 28 137 61v549q0 68 -5 102t-33.5 47.5t-98.5 20.5v50q70 12 143 32t130 45h44v-846q0 -12 32.5 -29.5t105.5 -31.5v-53h-455zM630 1363q-60 -162 -149.5 -228.5t-183.5 -66.5q-102 0 -189.5 66.5t-147.5 228.5q24 35 60 52q50 -106 128 -150.5t145 -44.5
q70 0 149 44t127 151q36 -16 61 -52z" />
    <glyph glyph-name="Iogonek" unicode="&#x12e;" horiz-adv-x="630" 
d="M68 0v53q67 14 104.5 31t37.5 30v1031q0 12 -35 30t-107 32v53h475v-53q-68 -14 -105.5 -31t-37.5 -31v-1031q0 -12 35.5 -29.5t107.5 -31.5v-53h-475zM514 -299q-45 -54 -116 -99.5t-132 -45.5q-38 0 -75.5 12t-62.5 43.5t-25 89.5q0 180 313 342l57 -19
q-130 -88 -168 -158t-38 -117q0 -37 23.5 -54.5t59.5 -17.5q25 0 60.5 16.5t77.5 54.5z" />
    <glyph glyph-name="iogonek" unicode="&#x12f;" horiz-adv-x="575" 
d="M418 1261q0 -60 -38.5 -101t-95.5 -41q-101 0 -101 101q0 61 38.5 101t93.5 40q47 0 75 -25t28 -75zM68 0v53q137 28 137 61v549q0 68 -6 102t-34.5 47.5t-96.5 20.5v50q70 12 143 32t130 45h44v-846q0 -12 32.5 -29.5t105.5 -31.5v-53h-455zM504 -299
q-45 -54 -116 -99.5t-132 -45.5q-38 0 -75.5 12t-62.5 43.5t-25 89.5q0 180 313 342l57 -19q-130 -88 -168 -158t-38 -117q0 -37 23.5 -54.5t59.5 -17.5q25 0 60.5 16.5t77.5 54.5z" />
    <glyph glyph-name="Idotaccent" unicode="&#x130;" horiz-adv-x="630" 
d="M68 0v53q67 14 104.5 31t37.5 30v1031q0 12 -35 30t-107 32v53h475v-53q-68 -14 -105.5 -31t-37.5 -31v-1031q0 -12 35.5 -29.5t107.5 -31.5v-53h-475zM418 1543q0 -62 -37.5 -106t-91.5 -44q-96 0 -96 105q0 62 38.5 105.5t90.5 43.5q96 0 96 -104z" />
    <glyph glyph-name="dotlessi" unicode="&#x131;" horiz-adv-x="575" 
d="M68 0v53q137 28 137 61v549q0 68 -5 102t-33.5 47.5t-98.5 20.5v50q70 12 143 32t130 45h44v-846q0 -12 32.5 -29.5t105.5 -31.5v-53h-455z" />
    <glyph glyph-name="IJ" unicode="&#x132;" horiz-adv-x="1275" 
d="M68 0v53q67 14 104.5 31t37.5 30v1031q0 12 -35 30t-107 32v53h475v-53q-68 -14 -105.5 -31t-37.5 -31v-1031q0 -12 35.5 -29.5t107.5 -31.5v-53h-475zM1208 1207q-68 -14 -105.5 -31t-37.5 -31v-947q0 -155 -31 -247.5t-79.5 -148t-100.5 -97.5q-54 -44 -127.5 -70.5
t-121.5 -26.5q-47 0 -90.5 15.5t-71.5 36t-28 33.5q0 12 25.5 38t57.5 50.5t51 31.5q55 -41 92 -54t76 -13q35 0 71.5 29.5t61.5 111.5t25 239v1019q0 12 -36 28.5t-156 33.5v53h525v-53z" />
    <glyph glyph-name="ij" unicode="&#x133;" horiz-adv-x="1125" 
d="M418 1261q0 -60 -38.5 -101t-95.5 -41q-101 0 -101 101q0 61 38.5 101t93.5 40q47 0 75 -25t28 -75zM68 0v53q137 28 137 61v549q0 68 -6 102t-34.5 47.5t-96.5 20.5v50q70 12 143 32t130 45h44v-846q0 -12 32.5 -29.5t105.5 -31.5v-53h-455zM989 1261q0 -60 -38 -101
t-95 -41q-102 0 -102 101q0 61 38.5 101t93.5 40q47 0 75 -25t28 -75zM955 102q0 -154 -28.5 -247.5t-74.5 -150.5t-99 -99q-54 -42 -121 -72t-111 -30q-45 0 -88.5 14t-71.5 32t-28 30q0 14 27 41t61 53t54 35q32 -32 72.5 -45t77.5 -13t71.5 32.5t56.5 117.5t22 243v620
q0 68 -6 101.5t-34.5 47t-96.5 21.5v50q90 15 146.5 33t123.5 44h47v-858z" />
    <glyph glyph-name="Jcircumflex" unicode="&#x134;" horiz-adv-x="645" 
d="M578 1207q-68 -14 -105.5 -31t-37.5 -31v-947q0 -155 -31 -247.5t-79.5 -148t-100.5 -97.5q-54 -44 -127.5 -70.5t-121.5 -26.5q-47 0 -90.5 15.5t-71.5 36t-28 33.5q0 12 25.5 38t57.5 50.5t51 31.5q55 -41 92 -54t76 -13q35 0 71.5 29.5t61.5 111.5t25 239v1019
q0 12 -36 28.5t-156 33.5v53h525v-53zM661 1417q-12 -19 -21.5 -32t-26.5 -20l-276 195l-274 -195q-16 7 -27 20t-25 32l269 317h117z" />
    <glyph glyph-name="jcircumflex" unicode="&#x135;" horiz-adv-x="550" 
d="M365 102q0 -154 -28.5 -247.5t-74.5 -150t-99 -99.5q-54 -43 -121 -72.5t-111 -29.5q-45 0 -88.5 14t-71.5 32t-28 30q0 14 27 41t61 53t54 35q32 -32 72.5 -45t77.5 -13t71.5 32.5t56.5 117.5t22 243v620q0 68 -5.5 101.5t-34 47t-97.5 21.5v50q90 15 145.5 33t124.5 44
h47v-858zM614 1097q-12 -19 -21 -32t-27 -20l-276 253l-274 -253q-16 7 -27 20t-25 32l269 382h117z" />
    <glyph glyph-name="Kcommaaccent" unicode="&#x136;" horiz-adv-x="1212" 
d="M1140 1207q-64 -8 -99 -18t-66 -44l-463 -502h-139l404 475q45 54 28.5 68t-95.5 21v53h430v-53zM1204 42q-58 -19 -124 -37.5t-114 -18.5q-30 0 -52 9t-42 34l-499 614l124 78l526 -581q34 -39 78 -45t96 0zM48 0v53q67 14 104.5 31t37.5 30v1031q0 12 -35 30t-107 32
v53h475v-53q-68 -14 -105.5 -31t-37.5 -31v-1031q0 -12 35 -29.5t108 -31.5v-53h-475zM758 -283q-8 -62 -55.5 -129.5t-134.5 -108.5l-41 42q31 22 55 65t26 79q1 45 -33 81t-113 41l-11 50q16 14 61 29t92 24t69 6q50 -24 70.5 -77t14.5 -102z" />
    <glyph glyph-name="kcommaaccent" unicode="&#x137;" horiz-adv-x="1040" 
d="M1008 877q-44 -4 -83.5 -17.5t-81.5 -46.5l-403 -317l-95 30l299 263q44 39 45.5 57.5t-23.5 24.5t-60 6v53h402v-53zM34 0v53q66 17 101.5 30t35.5 31v1172q0 59 -10.5 85t-40 34.5t-86.5 14.5v50q78 14 150 32t128 48l39 -36v-1400q0 -15 18 -26.5t92 -34.5v-53h-427z
M1043 23q-59 -13 -120 -23t-82 -10q-76 0 -117 53l-377 483l127 76l411 -478q28 -33 60.5 -42.5t91.5 -5.5zM670 -283q-8 -62 -55.5 -129.5t-134.5 -108.5l-41 42q31 22 55 65t26 79q1 45 -33 81t-113 41l-11 50q16 14 61 29t92 24t69 6q50 -24 70.5 -77t14.5 -102z" />
    <glyph glyph-name="kgreenlandic" unicode="&#x138;" horiz-adv-x="1072" 
d="M918 652q-17 82 -39 115t-50 33q-33 0 -53 -37.5t-38.5 -92.5t-44.5 -110t-69 -92.5t-113 -37.5h-146l2 100h131q51 0 81 42.5t52 105t48.5 125t71 105t121.5 42.5q33 0 70.5 -11t69.5 -24q7 -2 4 -44.5t-14.5 -102.5t-33.5 -116h-50zM53 0v53q66 15 101.5 29t35.5 32
v322q0 92 34.5 143t83.5 101l62 -34v-532q0 -15 18 -28t92 -33v-53h-427zM480 930v-53q-66 -13 -88 -28t-22 -33v-355q0 -61 -20.5 -98.5t-52.5 -60t-65 -42.5l-42 34v522q0 15 -31.5 29t-105.5 32v53h427zM840 -20q-31 0 -56.5 11t-37.5 34l-225 435l127 57l259 -403
q19 -30 52 -38t96 -3l10 -52q-62 -17 -123.5 -29t-101.5 -12z" />
    <glyph glyph-name="Lacute" unicode="&#x139;" horiz-adv-x="998" 
d="M969 264q-7 -86 -20 -160.5t-21 -103.5h-880v53q67 14 104.5 31t37.5 30v1031q0 12 -35 30t-107 32v53h475v-53q-68 -14 -105.5 -31t-37.5 -31v-971q0 -35 38.5 -54.5t147.5 -19.5h133q62 0 99 13.5t63.5 53.5t54.5 118zM341 1364q-17 8 -29 22t-24 31l381 325
q14 -7 44.5 -23.5t60 -34t40.5 -27.5l9 -51z" />
    <glyph glyph-name="lacute" unicode="&#x13a;" horiz-adv-x="575" 
d="M58 0v53q86 15 116.5 30t30.5 31v1172q0 59 -11 84.5t-40.5 34.5t-85.5 15v50q81 14 146 31t133 49l38 -36v-1400q0 -15 33 -31t115 -30v-53h-475zM158 1684q-17 8 -29 22t-24 31l381 325q14 -7 44.5 -23.5t60 -34t40.5 -27.5l9 -51z" />
    <glyph glyph-name="Lcommaaccent" unicode="&#x13b;" horiz-adv-x="998" 
d="M969 264q-7 -86 -20 -160.5t-21 -103.5h-880v53q67 14 104.5 31t37.5 30v1031q0 12 -35 30t-107 32v53h475v-53q-68 -14 -105.5 -31t-37.5 -31v-971q0 -35 38.5 -54.5t147.5 -19.5h133q62 0 99 13.5t63.5 53.5t54.5 118zM641 -283q-8 -62 -55.5 -129.5t-134.5 -108.5
l-41 42q31 22 55 65t26 79q1 45 -33 81t-113 41l-11 50q16 14 61 29t92 24t69 6q50 -24 70.5 -77t14.5 -102z" />
    <glyph glyph-name="lcommaaccent" unicode="&#x13c;" horiz-adv-x="575" 
d="M58 0v53q86 15 116.5 30t30.5 31v1172q0 59 -11 84.5t-40.5 34.5t-85.5 15v50q81 14 146 31t133 49l38 -36v-1400q0 -15 33 -31t115 -30v-53h-475zM427 -283q-8 -62 -55.5 -129.5t-134.5 -108.5l-41 42q31 22 55 65t26 79q1 45 -33 81t-113 41l-11 50q16 14 61 29t92 24
t69 6q50 -24 70.5 -77t14.5 -102z" />
    <glyph glyph-name="Lcaron" unicode="&#x13d;" horiz-adv-x="998" 
d="M969 264q-7 -86 -20 -160.5t-21 -103.5h-880v53q67 14 104.5 31t37.5 30v1031q0 12 -35 30t-107 32v53h475v-53q-68 -14 -105.5 -31t-37.5 -31v-971q0 -35 38.5 -54.5t147.5 -19.5h133q62 0 99 13.5t63.5 53.5t54.5 118zM952 1334q-4 -74 -53 -146.5t-146 -133.5l-44 39
q84 76 88 161q3 51 -31.5 89t-115.5 38l-13 50q16 17 60 35t91.5 30t71.5 10q55 -23 75 -72t17 -100z" />
    <glyph glyph-name="lcaron" unicode="&#x13e;" horiz-adv-x="795" 
d="M58 0v53q86 15 116.5 30t30.5 31v1172q0 59 -11 84.5t-40.5 34.5t-85.5 15v50q81 14 146 31t133 49l38 -36v-1400q0 -15 33 -31t115 -30v-53h-475zM770 1334q-4 -74 -53 -146.5t-146 -133.5l-44 39q84 76 88 161q3 51 -31.5 89t-115.5 38l-13 50q16 17 60 35t91.5 30
t71.5 10q55 -23 75 -72t17 -100z" />
    <glyph glyph-name="Ldot" unicode="&#x13f;" horiz-adv-x="998" 
d="M969 264q-7 -86 -20 -160.5t-21 -103.5h-880v53q67 14 104.5 31t37.5 30v1031q0 12 -35 30t-107 32v53h475v-53q-68 -14 -105.5 -31t-37.5 -31v-971q0 -35 38.5 -54.5t147.5 -19.5h133q62 0 99 13.5t63.5 53.5t54.5 118zM890 717q0 -64 -39.5 -105t-97.5 -41
q-103 0 -103 107q0 63 40.5 104.5t95.5 41.5q47 0 75.5 -26.5t28.5 -80.5z" />
    <glyph glyph-name="ldot" unicode="&#x140;" horiz-adv-x="905" 
d="M58 0v53q86 15 116.5 30t30.5 31v1172q0 59 -11 84.5t-40.5 34.5t-85.5 15v50q81 14 146 31t133 49l38 -36v-1400q0 -15 33 -31t115 -30v-53h-475zM860 717q0 -64 -39.5 -105t-97.5 -41q-103 0 -103 107q0 63 40.5 104.5t95.5 41.5q47 0 75.5 -26.5t28.5 -80.5z" />
    <glyph glyph-name="Lslash" unicode="&#x141;" horiz-adv-x="998" 
d="M686 838q-7 -22 -21.5 -52t-28.5 -48l-573 -290l-27 22q6 23 21 55.5t27 46.5l576 291zM969 264q-7 -86 -20 -160.5t-21 -103.5h-880v53q67 14 104.5 31t37.5 30v1031q0 12 -35 30t-107 32v53h475v-53q-68 -14 -105.5 -31t-37.5 -31v-971q0 -35 38.5 -54.5t147.5 -19.5
h133q62 0 99 13.5t63.5 53.5t54.5 118z" />
    <glyph glyph-name="lslash" unicode="&#x142;" horiz-adv-x="600" 
d="M70 0v53q86 15 117 30t31 31v543l-145 -102l-25 19q4 28 11.5 51.5t22.5 60.5l136 94v509q0 60 -11.5 86t-41 33.5t-85.5 14.5v50q81 14 146.5 30.5t132.5 49.5l39 -37v-611l148 104l24 -18q-6 -34 -14 -56.5t-21 -54.5l-137 -97v-669q0 -15 32.5 -31t114.5 -30v-53h-475
z" />
    <glyph glyph-name="Nacute" unicode="&#x143;" horiz-adv-x="1339" 
d="M1293 1207q-72 -10 -107.5 -29t-35.5 -33v-1113l-130 39v1074q0 12 -31 31.5t-111 30.5v53h415v-53zM1150 -30q-65 7 -103.5 26t-55.5 43l-753 1044q-41 57 -89.5 86.5t-100.5 37.5v53h234q29 0 44 -13t52 -65l649 -896q14 -20 43.5 -58t54.5 -69l25 -31v-158zM48 0v53
q73 9 107.5 28.5t34.5 32.5v1072l130 35v-1107q0 -12 32.5 -31t110.5 -30v-53h-415zM533 1364q-17 8 -29 22t-24 31l381 325q14 -7 44.5 -23.5t60 -34t40.5 -27.5l9 -51z" />
    <glyph glyph-name="nacute" unicode="&#x144;" horiz-adv-x="1150" 
d="M668 0v53q137 36 137 61v504q0 118 -27 156.5t-93 38.5q-57 0 -137.5 -51.5t-177.5 -182.5v-465q0 -15 36.5 -31t101.5 -30v-53h-455v53q66 17 101.5 31t35.5 30v590q0 52 -6.5 76.5t-35.5 34.5t-95 18v50q76 10 139.5 29.5t125.5 47.5l37 -37l11 -214
q97 122 208.5 186.5t189.5 64.5q86 0 153.5 -55t67.5 -176v-615q0 -13 29.5 -27t108.5 -34v-53h-455zM538 1045q-18 3 -37 13.5t-30 19.5l227 419q15 -1 50.5 -6.5t71 -11.5t50.5 -10l26 -44z" />
    <glyph glyph-name="Ncommaaccent" unicode="&#x145;" horiz-adv-x="1339" 
d="M1293 1207q-72 -10 -107.5 -29t-35.5 -33v-1113l-130 39v1074q0 12 -31 31.5t-111 30.5v53h415v-53zM1150 -30q-65 7 -103.5 26t-55.5 43l-753 1044q-41 57 -89.5 86.5t-100.5 37.5v53h234q29 0 44 -13t52 -65l649 -896q14 -20 43.5 -58t54.5 -69l25 -31v-158zM48 0v53
q73 9 107.5 28.5t34.5 32.5v1072l130 35v-1107q0 -12 32.5 -31t110.5 -30v-53h-415zM802 -283q-8 -62 -55.5 -129.5t-134.5 -108.5l-41 42q31 22 55 65t26 79q1 45 -33 81t-113 41l-11 50q16 14 61 29t92 24t69 6q50 -24 70.5 -77t14.5 -102z" />
    <glyph glyph-name="ncommaaccent" unicode="&#x146;" horiz-adv-x="1150" 
d="M668 0v53q137 36 137 61v504q0 118 -27 156.5t-93 38.5q-57 0 -137.5 -51.5t-177.5 -182.5v-465q0 -15 36.5 -31t101.5 -30v-53h-455v53q66 17 101.5 31t35.5 30v590q0 52 -6.5 76.5t-35.5 34.5t-95 18v50q76 10 139.5 29.5t125.5 47.5l37 -37l11 -214
q97 122 208.5 186.5t189.5 64.5q86 0 153.5 -55t67.5 -176v-615q0 -13 29.5 -27t108.5 -34v-53h-455zM719 -283q-8 -62 -55.5 -129.5t-134.5 -108.5l-41 42q31 22 55 65t26 79q1 45 -33 81t-113 41l-11 50q16 14 61 29t92 24t69 6q50 -24 70.5 -77t14.5 -102z" />
    <glyph glyph-name="Ncaron" unicode="&#x147;" horiz-adv-x="1339" 
d="M1293 1207q-72 -10 -107.5 -29t-35.5 -33v-1113l-130 39v1074q0 12 -31 31.5t-111 30.5v53h415v-53zM1150 -30q-65 7 -103.5 26t-55.5 43l-753 1044q-41 57 -89.5 86.5t-100.5 37.5v53h234q29 0 44 -13t52 -65l649 -896q14 -20 43.5 -58t54.5 -69l25 -31v-158zM48 0v53
q73 9 107.5 28.5t34.5 32.5v1072l130 35v-1107q0 -12 32.5 -31t110.5 -30v-53h-415zM729 1389h-117l-266 311q14 20 23.5 32.5t26.5 21.5l277 -194l273 194q17 -9 27.5 -21.5t23.5 -32.5z" />
    <glyph glyph-name="ncaron" unicode="&#x148;" horiz-adv-x="1150" 
d="M668 0v53q137 36 137 61v504q0 118 -27 156.5t-93 38.5q-57 0 -137.5 -51.5t-177.5 -182.5v-465q0 -15 36.5 -31t101.5 -30v-53h-455v53q66 17 101.5 31t35.5 30v590q0 52 -6.5 76.5t-35.5 34.5t-95 18v50q76 10 139.5 29.5t125.5 47.5l37 -37l11 -214
q97 122 208.5 186.5t189.5 64.5q86 0 153.5 -55t67.5 -176v-615q0 -13 29.5 -27t108.5 -34v-53h-455zM646 1066h-117l-269 365q14 19 25 32t27 22l277 -241l273 241q18 -9 27 -22t21 -32z" />
    <glyph glyph-name="Eng" unicode="&#x14a;" horiz-adv-x="1267" 
d="M1150 277q0 -207 -76 -343.5t-185 -223.5q-55 -43 -138 -72.5t-165 -29.5q-58 0 -119 18.5t-102.5 44.5t-41.5 47q0 12 31 41t68.5 57t57.5 36q54 -54 118 -83.5t121 -29.5q61 0 116.5 52.5t90 160t34.5 272.5v648q0 156 -41.5 208.5t-116.5 52.5q-49 0 -109 -29
t-137 -106t-176 -220v-664q0 -12 36 -29.5t109 -31.5v-53h-478v53q67 14 105 31t38 30v906q0 53 -6 79.5t-35 38.5t-96 19v53q68 11 149.5 31.5t140.5 48.5l37 -37v-292q105 128 193.5 200t166.5 100.5t149 28.5q58 0 118 -25t101.5 -92t41.5 -192v-704z" />
    <glyph glyph-name="eng" unicode="&#x14b;" horiz-adv-x="1130" 
d="M985 96q0 -151 -30.5 -242t-79.5 -147.5t-107 -101.5q-53 -45 -131 -73.5t-135 -28.5q-52 0 -109 17.5t-96.5 42t-39.5 44.5q0 12 29 40.5t65.5 56t56.5 36.5q54 -53 114.5 -78.5t95.5 -25.5q34 0 78 31t76.5 117t32.5 251v583q0 118 -27 156t-93 38q-57 0 -138 -51
t-178 -182v-465q0 -15 37 -31t102 -30v-53h-455v53q66 17 101.5 31t35.5 30v590q0 53 -7 77.5t-35.5 34t-94.5 17.5v51q67 8 138 28.5t127 48.5l37 -37l10 -215q97 122 209 186.5t190 64.5q90 0 155.5 -57t65.5 -169v-638z" />
    <glyph glyph-name="Omacron" unicode="&#x14c;" horiz-adv-x="1244" 
d="M584 -30q-122 0 -218 52.5t-163 142.5t-101.5 205.5t-34.5 241.5q0 136 43.5 258.5t121.5 217t183 148.5t227 54q127 0 223.5 -54t162 -145.5t99 -206.5t33.5 -237q0 -136 -46 -258t-126 -216.5t-183.5 -148.5t-220.5 -54zM618 95q155 0 254.5 134.5t99.5 399.5
q0 104 -26 200.5t-74.5 173.5t-116 122t-149.5 45q-167 0 -259.5 -142t-92.5 -387q0 -149 50 -273.5t132.5 -198.5t181.5 -74zM992 1565q-5 -22 -21 -59.5t-23 -55.5h-650l-25 27q4 22 20 58.5t26 55.5h648z" />
    <glyph glyph-name="omacron" unicode="&#x14d;" horiz-adv-x="1045" 
d="M970 485q0 -100 -37 -192t-102 -165t-149.5 -115.5t-177.5 -42.5q-130 0 -226.5 62t-149.5 169t-53 243q0 99 35.5 191.5t99.5 166t149 116t184 42.5q129 0 225 -62t149 -169t53 -244zM783 450q0 106 -39 195.5t-100.5 144.5t-129.5 55q-96 0 -150.5 -49t-77.5 -133.5
t-23 -189.5t41.5 -193.5t103.5 -141.5t124 -53q134 0 192.5 98t58.5 267zM918 1290q-5 -22 -21 -59.5t-24 -55.5h-665l-25 27q5 22 20.5 58.5t25.5 55.5h663z" />
    <glyph glyph-name="Obreve" unicode="&#x14e;" horiz-adv-x="1244" 
d="M584 -30q-122 0 -218 52.5t-163 142.5t-101.5 205.5t-34.5 241.5q0 136 43.5 258.5t121.5 217t183 148.5t227 54q127 0 223.5 -54t162 -145.5t99 -206.5t33.5 -237q0 -136 -46 -258t-126 -216.5t-183.5 -148.5t-220.5 -54zM618 95q155 0 254.5 134.5t99.5 399.5
q0 104 -26 200.5t-74.5 173.5t-116 122t-149.5 45q-167 0 -259.5 -142t-92.5 -387q0 -149 50 -273.5t132.5 -198.5t181.5 -74zM960 1683q-60 -162 -149.5 -228.5t-183.5 -66.5q-102 0 -189.5 66.5t-147.5 228.5q24 35 60 52q50 -106 128 -150.5t145 -44.5q70 0 149 44
t127 151q36 -16 61 -52z" />
    <glyph glyph-name="obreve" unicode="&#x14f;" horiz-adv-x="1045" 
d="M970 485q0 -100 -37 -192t-102 -165t-149.5 -115.5t-177.5 -42.5q-130 0 -226.5 62t-149.5 169t-53 243q0 99 35.5 191.5t99.5 166t149 116t184 42.5q129 0 225 -62t149 -169t53 -244zM783 450q0 106 -39 195.5t-100.5 144.5t-129.5 55q-96 0 -150.5 -49t-77.5 -133.5
t-23 -189.5t41.5 -193.5t103.5 -141.5t124 -53q134 0 192.5 98t58.5 267zM878 1363q-60 -162 -149.5 -228.5t-183.5 -66.5q-102 0 -189.5 66.5t-147.5 228.5q24 35 60 52q50 -106 128 -150.5t145 -44.5q70 0 149 44t127 151q36 -16 61 -52z" />
    <glyph glyph-name="Ohungarumlaut" unicode="&#x150;" horiz-adv-x="1244" 
d="M584 -30q-122 0 -218 52.5t-163 142.5t-101.5 205.5t-34.5 241.5q0 136 43.5 258.5t121.5 217t183 148.5t227 54q127 0 223.5 -54t162 -145.5t99 -206.5t33.5 -237q0 -136 -46 -258t-126 -216.5t-183.5 -148.5t-220.5 -54zM618 95q155 0 254.5 134.5t99.5 399.5
q0 104 -26 200.5t-74.5 173.5t-116 122t-149.5 45q-167 0 -259.5 -142t-92.5 -387q0 -149 50 -273.5t132.5 -198.5t181.5 -74zM763 1365q-18 3 -33.5 11.5t-33.5 20.5l169 417q24 -3 69.5 -10t66.5 -15l25 -46zM462 1365q-16 3 -31.5 11.5t-35.5 20.5l169 417
q25 -3 70.5 -10t65.5 -15l25 -46z" />
    <glyph glyph-name="ohungarumlaut" unicode="&#x151;" horiz-adv-x="1045" 
d="M970 485q0 -100 -37 -192t-102 -165t-149.5 -115.5t-177.5 -42.5q-130 0 -226.5 62t-149.5 169t-53 243q0 99 35.5 191.5t99.5 166t149 116t184 42.5q129 0 225 -62t149 -169t53 -244zM783 450q0 106 -39 195.5t-100.5 144.5t-129.5 55q-96 0 -150.5 -49t-77.5 -133.5
t-23 -189.5t41.5 -193.5t103.5 -141.5t124 -53q134 0 192.5 98t58.5 267zM681 1045q-18 3 -33.5 11.5t-33.5 20.5l169 417q24 -3 69.5 -10t66.5 -15l25 -46zM380 1045q-16 3 -31.5 11.5t-35.5 20.5l169 417q25 -3 70.5 -10t65.5 -15l25 -46z" />
    <glyph glyph-name="OE" unicode="&#x152;" horiz-adv-x="1665" 
d="M1543 1233q-2 -34 -8.5 -81.5t-15 -91.5t-16.5 -70h-56q-5 92 -24.5 130.5t-57.5 38.5h-377l28 101h493zM1442 705q-18 -28 -45 -63.5t-47 -51.5q-31 29 -72.5 42t-126.5 13h-178l25 90h413zM1610 264q-8 -86 -21 -160.5t-20 -103.5h-861v53q141 28 141 61v1031
q0 12 -34.5 30t-106.5 32v53h308h168v-53q-67 -14 -105 -20.5t-38 -20.5v-1002q0 -19 6.5 -33.5t43 -22.5t124.5 -8h119q61 0 99.5 13.5t66.5 53.5t57 118zM903 1030q-53 74 -131.5 107.5t-167.5 33.5q-166 0 -258.5 -142.5t-92.5 -387.5q0 -149 49.5 -273.5t132 -198.5
t182.5 -74q86 0 142.5 12.5t108.5 52.5q34 -31 40 -68.5t0.5 -64.5l-5.5 -27q-80 0 -128 -7.5t-89.5 -15t-102.5 -7.5q-122 0 -218 52.5t-163 142.5t-102 205.5t-35 241.5q0 136 44 258.5t122 217t183 148.5t227 54q56 0 93.5 -7.5l75 -15t93.5 -7.5q-5 -15 -6 -52t0.5 -78
t3.5 -70.5z" />
    <glyph glyph-name="oe" unicode="&#x153;" horiz-adv-x="1633" 
d="M1558 555q-20 -21 -53.5 -40.5t-66.5 -32.5h-559l2 98h452q39 0 39 36q0 27 -7.5 66.5t-27 78t-56.5 64.5t-96 26q-107 0 -172 -98t-65 -253q0 -104 32 -191.5t93.5 -140.5t148.5 -53q37 0 74.5 8t88 35.5t123.5 85.5q13 -7 25 -24t17 -25q-88 -97 -153 -145.5
t-122.5 -64t-122.5 -15.5q-100 0 -188 58.5t-143 164t-55 246.5q0 135 57.5 252.5t161.5 188.5q45 31 109 55.5t119 24.5q98 0 164 -38.5t106 -100.5t57.5 -132.5t17.5 -133.5zM948 498q0 -102 -38 -196.5t-103 -169.5t-148.5 -118.5t-175.5 -43.5q-118 0 -210 62t-145 169
t-53 243q0 99 36.5 191.5t100.5 166t148.5 116t179.5 42.5q117 0 209 -60.5t145.5 -165t53.5 -236.5zM766 455q0 107 -39 195.5t-102.5 141.5t-136.5 53q-108 0 -169 -105t-61 -264q0 -106 41.5 -195t105.5 -142.5t133 -53.5q107 0 167.5 105t60.5 265z" />
    <glyph glyph-name="Racute" unicode="&#x154;" horiz-adv-x="1179" 
d="M962 987q0 -128 -64 -215.5t-172 -132t-240 -44.5q-28 0 -57.5 3.5t-60.5 10.5l-6 90q35 -6 58.5 -8t48.5 -2q150 0 228 69.5t78 197.5q0 104 -74.5 173.5t-250.5 69.5q-88 0 -194 -12.5t-208 -28.5l-11 72q98 23 207 41.5t245 18.5q245 0 359 -87t114 -216zM1174 42
q-66 -22 -135.5 -39t-108.5 -17q-28 0 -56 16.5t-42 38.5l-305 571l119 66l342 -524q31 -43 68.5 -54t105.5 -5zM48 0v53q67 14 104.5 31t37.5 30v1100h190v-1100q0 -12 35 -29.5t108 -31.5v-53h-475zM396 1364q-17 8 -29 22t-24 31l381 325q14 -7 44.5 -23.5t60 -34
t40.5 -27.5l9 -51z" />
    <glyph glyph-name="racute" unicode="&#x155;" horiz-adv-x="844" 
d="M805 921q9 -6 7.5 -39t-11 -78.5t-22 -89t-24.5 -70.5h-53q-11 81 -40.5 121t-70.5 40q-43 0 -106 -63.5t-115 -220.5v-407q0 -15 39 -31t133 -30v-53h-489v53q137 31 137 61v565q0 66 -7 92t-16 35q-13 13 -36 18.5t-78 8.5v50q79 15 141.5 32t123.5 45l37 -37l13 -200
q54 100 128.5 168.5t160.5 68.5q34 0 73 -9t75 -30zM419 1045q-18 3 -37 13.5t-30 19.5l227 419q15 -1 50.5 -6.5t71 -11.5t50.5 -10l26 -44z" />
    <glyph glyph-name="Rcommaaccent" unicode="&#x156;" horiz-adv-x="1179" 
d="M962 987q0 -128 -64 -215.5t-172 -132t-240 -44.5q-28 0 -57.5 3.5t-60.5 10.5l-6 90q35 -6 58.5 -8t48.5 -2q150 0 228 69.5t78 197.5q0 104 -74.5 173.5t-250.5 69.5q-88 0 -194 -12.5t-208 -28.5l-11 72q98 23 207 41.5t245 18.5q245 0 359 -87t114 -216zM1174 42
q-66 -22 -135.5 -39t-108.5 -17q-28 0 -56 16.5t-42 38.5l-305 571l119 66l342 -524q31 -43 68.5 -54t105.5 -5zM48 0v53q67 14 104.5 31t37.5 30v1100h190v-1100q0 -12 35 -29.5t108 -31.5v-53h-475zM665 -283q-8 -62 -55.5 -129.5t-134.5 -108.5l-41 42q31 22 55 65t26 79
q1 45 -33 81t-113 41l-11 50q16 14 61 29t92 24t69 6q50 -24 70.5 -77t14.5 -102z" />
    <glyph glyph-name="rcommaaccent" unicode="&#x157;" horiz-adv-x="844" 
d="M805 921q9 -6 7.5 -39t-11 -78.5t-22 -89t-24.5 -70.5h-53q-11 81 -40.5 121t-70.5 40q-43 0 -106 -63.5t-115 -220.5v-407q0 -15 39 -31t133 -30v-53h-489v53q137 31 137 61v565q0 66 -7 92t-16 35q-13 13 -36 18.5t-78 8.5v50q79 15 141.5 32t123.5 45l37 -37l13 -200
q54 100 128.5 168.5t160.5 68.5q34 0 73 -9t75 -30zM411 -283q-8 -62 -55.5 -129.5t-134.5 -108.5l-41 42q31 22 55 65t26 79q1 45 -33 81t-113 41l-11 50q16 14 61 29t92 24t69 6q50 -24 70.5 -77t14.5 -102z" />
    <glyph glyph-name="Rcaron" unicode="&#x158;" horiz-adv-x="1179" 
d="M962 987q0 -128 -64 -215.5t-172 -132t-240 -44.5q-28 0 -57.5 3.5t-60.5 10.5l-6 90q35 -6 58.5 -8t48.5 -2q150 0 228 69.5t78 197.5q0 104 -74.5 173.5t-250.5 69.5q-88 0 -194 -12.5t-208 -28.5l-11 72q98 23 207 41.5t245 18.5q245 0 359 -87t114 -216zM1174 42
q-66 -22 -135.5 -39t-108.5 -17q-28 0 -56 16.5t-42 38.5l-305 571l119 66l342 -524q31 -43 68.5 -54t105.5 -5zM48 0v53q67 14 104.5 31t37.5 30v1100h190v-1100q0 -12 35 -29.5t108 -31.5v-53h-475zM592 1389h-117l-266 311q14 20 23.5 32.5t26.5 21.5l277 -194l273 194
q17 -9 27.5 -21.5t23.5 -32.5z" />
    <glyph glyph-name="rcaron" unicode="&#x159;" horiz-adv-x="844" 
d="M805 921q9 -6 7.5 -39t-11 -78.5t-22 -89t-24.5 -70.5h-53q-11 81 -40.5 121t-70.5 40q-43 0 -106 -63.5t-115 -220.5v-407q0 -15 39 -31t133 -30v-53h-489v53q137 31 137 61v565q0 66 -7 92t-16 35q-13 13 -36 18.5t-78 8.5v50q79 15 141.5 32t123.5 45l37 -37l13 -200
q54 100 128.5 168.5t160.5 68.5q34 0 73 -9t75 -30zM527 1066h-117l-269 365q14 19 25 32t27 22l277 -241l273 241q18 -9 27 -22t21 -32z" />
    <glyph glyph-name="Sacute" unicode="&#x15a;" horiz-adv-x="1000" 
d="M770 1045l-46 6q-52 75 -117 104t-122 29q-108 0 -155.5 -55t-47.5 -112q0 -63 45.5 -108.5t117.5 -82.5t152.5 -75.5t152 -87.5t117.5 -118t46 -168q0 -67 -28.5 -138t-85.5 -132t-144 -99t-205 -38q-68 0 -160.5 26.5t-163.5 71.5q-7 4 -10.5 35t-3.5 76t4 89.5
t13 75.5l51 -5q45 -118 132 -179.5t189 -61.5q60 0 116.5 28.5t93.5 79t37 113.5q0 81 -45.5 134.5t-116.5 91.5t-151 73.5t-151.5 78.5t-116.5 107t-45 161q0 46 23 102t73 107t129.5 83.5t193.5 32.5q96 0 184.5 -26t125.5 -66q9 -8 -5 -39.5t-36.5 -65t-39.5 -48.5z
M375 1364q-17 8 -29 22t-24 31l381 325q14 -7 44.5 -23.5t60 -34t40.5 -27.5l9 -51z" />
    <glyph glyph-name="sacute" unicode="&#x15b;" horiz-adv-x="813" 
d="M727 283q0 -106 -42.5 -169t-104 -94t-121 -40.5t-93.5 -9.5q-53 0 -125.5 17.5t-139.5 55.5q-7 4 -9.5 33.5t-1.5 71.5t5.5 83.5t12.5 69.5l55 -11q10 -92 80 -152t168 -60q71 0 113.5 38t42.5 104q0 71 -61.5 115.5t-183.5 108.5q-56 29 -107 63.5t-83.5 80.5
t-32.5 110q0 83 45.5 141.5t118 89.5t153.5 31q70 0 151.5 -21t123.5 -56q8 -7 -1 -43.5t-24.5 -75.5t-26.5 -53l-49 8q-40 76 -90.5 111t-104.5 35q-64 0 -100 -35.5t-36 -76.5q0 -57 54.5 -96t168.5 -98q58 -30 114.5 -65.5t93.5 -85.5t37 -125zM359 1045q-18 3 -37 13.5
t-30 19.5l227 419q15 -1 50.5 -6.5t71 -11.5t50.5 -10l26 -44z" />
    <glyph glyph-name="Scircumflex" unicode="&#x15c;" horiz-adv-x="1000" 
d="M770 1045l-46 6q-52 75 -117 104t-122 29q-108 0 -155.5 -55t-47.5 -112q0 -63 45.5 -108.5t117.5 -82.5t152.5 -75.5t152 -87.5t117.5 -118t46 -168q0 -67 -28.5 -138t-85.5 -132t-144 -99t-205 -38q-68 0 -160.5 26.5t-163.5 71.5q-7 4 -10.5 35t-3.5 76t4 89.5
t13 75.5l51 -5q45 -118 132 -179.5t189 -61.5q60 0 116.5 28.5t93.5 79t37 113.5q0 81 -45.5 134.5t-116.5 91.5t-151 73.5t-151.5 78.5t-116.5 107t-45 161q0 46 23 102t73 107t129.5 83.5t193.5 32.5q96 0 184.5 -26t125.5 -66q9 -8 -5 -39.5t-36.5 -65t-39.5 -48.5z
M835 1417q-12 -19 -21.5 -32t-26.5 -20l-276 195l-274 -195q-16 7 -27 20t-25 32l269 317h117z" />
    <glyph glyph-name="scircumflex" unicode="&#x15d;" horiz-adv-x="813" 
d="M727 283q0 -106 -42.5 -169t-104 -94t-121 -40.5t-93.5 -9.5q-53 0 -125.5 17.5t-139.5 55.5q-7 4 -9.5 33.5t-1.5 71.5t5.5 83.5t12.5 69.5l55 -11q10 -92 80 -152t168 -60q71 0 113.5 38t42.5 104q0 71 -61.5 115.5t-183.5 108.5q-56 29 -107 63.5t-83.5 80.5
t-32.5 110q0 83 45.5 141.5t118 89.5t153.5 31q70 0 151.5 -21t123.5 -56q8 -7 -1 -43.5t-24.5 -75.5t-26.5 -53l-49 8q-40 76 -90.5 111t-104.5 35q-64 0 -100 -35.5t-36 -76.5q0 -57 54.5 -96t168.5 -98q58 -30 114.5 -65.5t93.5 -85.5t37 -125zM731 1097q-12 -19 -21 -32
t-27 -20l-276 253l-274 -253q-16 7 -27 20t-25 32l269 382h117z" />
    <glyph glyph-name="Scedilla" unicode="&#x15e;" horiz-adv-x="1000" 
d="M770 1045l-46 6q-52 75 -117 104t-122 29q-108 0 -155.5 -55t-47.5 -112q0 -63 45.5 -108.5t117.5 -82.5t152.5 -75.5t152 -87.5t117.5 -118t46 -168q0 -67 -28.5 -138t-85.5 -132t-144 -99t-205 -38q-68 0 -160.5 26.5t-163.5 71.5q-7 4 -10.5 35t-3.5 76t4 89.5
t13 75.5l51 -5q45 -118 132 -179.5t189 -61.5q60 0 116.5 28.5t93.5 79t37 113.5q0 81 -45.5 134.5t-116.5 91.5t-151 73.5t-151.5 78.5t-116.5 107t-45 161q0 46 23 102t73 107t129.5 83.5t193.5 32.5q96 0 184.5 -26t125.5 -66q9 -8 -5 -39.5t-36.5 -65t-39.5 -48.5z
M672 -229q0 -74 -82 -133.5t-243 -81.5l-27 57q98 16 140 48.5t42 65.5t-25.5 47t-81.5 20l7 18t26 73.5t55 166.5l93 -2l-51 -149q60 -12 103.5 -43t43.5 -87z" />
    <glyph glyph-name="scedilla" unicode="&#x15f;" horiz-adv-x="813" 
d="M727 283q0 -106 -42.5 -169t-104 -94t-121 -40.5t-93.5 -9.5q-53 0 -125.5 17.5t-139.5 55.5q-7 4 -9.5 33.5t-1.5 71.5t5.5 83.5t12.5 69.5l55 -11q10 -92 80 -152t168 -60q71 0 113.5 38t42.5 104q0 71 -61.5 115.5t-183.5 108.5q-56 29 -107 63.5t-83.5 80.5
t-32.5 110q0 83 45.5 141.5t118 89.5t153.5 31q70 0 151.5 -21t123.5 -56q8 -7 -1 -43.5t-24.5 -75.5t-26.5 -53l-49 8q-40 76 -90.5 111t-104.5 35q-64 0 -100 -35.5t-36 -76.5q0 -57 54.5 -96t168.5 -98q58 -30 114.5 -65.5t93.5 -85.5t37 -125zM576 -229
q0 -74 -82 -133.5t-243 -81.5l-27 57q98 16 140 48.5t42 65.5t-25.5 47t-81.5 20l7 18t26 73.5t55 166.5l93 -2l-51 -149q60 -12 103.5 -43t43.5 -87z" />
    <glyph glyph-name="Scaron" unicode="&#x160;" horiz-adv-x="1000" 
d="M770 1045l-46 6q-52 75 -117 104t-122 29q-108 0 -155.5 -55t-47.5 -112q0 -63 45.5 -108.5t117.5 -82.5t152.5 -75.5t152 -87.5t117.5 -118t46 -168q0 -67 -28.5 -138t-85.5 -132t-144 -99t-205 -38q-68 0 -160.5 26.5t-163.5 71.5q-7 4 -10.5 35t-3.5 76t4 89.5
t13 75.5l51 -5q45 -118 132 -179.5t189 -61.5q60 0 116.5 28.5t93.5 79t37 113.5q0 81 -45.5 134.5t-116.5 91.5t-151 73.5t-151.5 78.5t-116.5 107t-45 161q0 46 23 102t73 107t129.5 83.5t193.5 32.5q96 0 184.5 -26t125.5 -66q9 -8 -5 -39.5t-36.5 -65t-39.5 -48.5z
M571 1389h-117l-266 311q14 20 23.5 32.5t26.5 21.5l277 -194l273 194q17 -9 27.5 -21.5t23.5 -32.5z" />
    <glyph glyph-name="scaron" unicode="&#x161;" horiz-adv-x="813" 
d="M727 283q0 -106 -42.5 -169t-104 -94t-121 -40.5t-93.5 -9.5q-53 0 -125.5 17.5t-139.5 55.5q-7 4 -9.5 33.5t-1.5 71.5t5.5 83.5t12.5 69.5l55 -11q10 -92 80 -152t168 -60q71 0 113.5 38t42.5 104q0 71 -61.5 115.5t-183.5 108.5q-56 29 -107 63.5t-83.5 80.5
t-32.5 110q0 83 45.5 141.5t118 89.5t153.5 31q70 0 151.5 -21t123.5 -56q8 -7 -1 -43.5t-24.5 -75.5t-26.5 -53l-49 8q-40 76 -90.5 111t-104.5 35q-64 0 -100 -35.5t-36 -76.5q0 -57 54.5 -96t168.5 -98q58 -30 114.5 -65.5t93.5 -85.5t37 -125zM467 1066h-117l-269 365
q14 19 25 32t27 22l277 -241l273 241q18 -9 27 -22t21 -32z" />
    <glyph glyph-name="uni0162" unicode="&#x162;" horiz-adv-x="1148" 
d="M1106 1233q-2 -51 -11.5 -120.5t-21.5 -132.5h-55q-19 93 -33.5 136.5t-56.5 43.5h-367l29 100h483zM182 1160q-20 0 -36.5 -14t-35.5 -54t-49 -118l-53 21q4 59 14.5 136t20.5 129h577l23 -100h-461zM305 0v53q92 19 126.5 38.5t34.5 33.5v1042q0 12 -34 19t-106 21v53
h473v-53q-67 -14 -105 -20t-38 -20v-1042q0 -13 34.5 -33t127.5 -39v-53h-513zM741 -229q0 -74 -82 -133.5t-243 -81.5l-27 57q98 16 140 48.5t42 65.5t-25.5 47t-81.5 20l7 18t26 73.5t55 166.5l93 -2l-51 -149q60 -12 103.5 -43t43.5 -87z" />
    <glyph glyph-name="uni0163" unicode="&#x163;" horiz-adv-x="723" 
d="M696 130q-109 -81 -200.5 -120.5t-144.5 -39.5q-74 0 -130 59.5t-56 199.5v596h-126l-24 31l78 74h72v234l147 119l33 -28v-325h320l31 -31q-19 -30 -50 -64t-51 -45q-24 12 -72.5 23.5t-120.5 11.5h-57v-508q0 -114 24 -156.5t76 -42.5q36 0 86.5 14t130.5 56zM537 -229
q0 -74 -82 -133.5t-243 -81.5l-27 57q98 16 140 48.5t42 65.5t-25.5 47t-81.5 20l7 18t26 73.5t55 166.5l93 -2l-51 -149q60 -12 103.5 -43t43.5 -87z" />
    <glyph glyph-name="Tcaron" unicode="&#x164;" horiz-adv-x="1148" 
d="M1106 1233q-2 -51 -11.5 -120.5t-21.5 -132.5h-55q-19 93 -33.5 136.5t-56.5 43.5h-367l29 100h483zM182 1160q-20 0 -36.5 -14t-35.5 -54t-49 -118l-53 21q4 59 14.5 136t20.5 129h577l23 -100h-461zM305 0v53q92 19 126.5 38.5t34.5 33.5v1042q0 12 -34 19t-106 21v53
h473v-53q-67 -14 -105 -20t-38 -20v-1042q0 -13 34.5 -33t127.5 -39v-53h-513zM615 1389h-117l-266 311q14 20 23.5 32.5t26.5 21.5l277 -194l273 194q17 -9 27.5 -21.5t23.5 -32.5z" />
    <glyph glyph-name="tcaron" unicode="&#x165;" horiz-adv-x="723" 
d="M696 130q-109 -81 -200.5 -120.5t-144.5 -39.5q-74 0 -130 59.5t-56 199.5v596h-126l-24 31l78 74h72v234l147 119l33 -28v-325h320l31 -31q-19 -30 -50 -64t-51 -45q-24 12 -72.5 23.5t-120.5 11.5h-57v-508q0 -114 24 -156.5t76 -42.5q36 0 86.5 14t130.5 56zM717 1334
q-4 -74 -53 -146.5t-146 -133.5l-44 39q84 76 88 161q3 51 -31.5 89t-115.5 38l-13 50q16 17 60 35t91.5 30t71.5 10q55 -23 75 -72t17 -100z" />
    <glyph glyph-name="Tbar" unicode="&#x166;" horiz-adv-x="1148" 
d="M1105 1233q-2 -51 -11.5 -120.5t-21.5 -132.5h-55q-19 87 -32.5 133.5t-57.5 46.5h-367l29 100h483zM181 1160q-20 0 -36.5 -14t-35.5 -54t-49 -118l-53 21q4 59 14.5 136t20.5 129h577l23 -100h-461zM304 0v53q92 19 126.5 38.5t34.5 33.5v1042q0 12 -34 19t-106 21v53
h473v-53q-67 -14 -105 -20t-38 -20v-1042q0 -13 35 -33t127 -39v-53h-513zM931 610h-747l-23 24l12.5 37.5t14.5 38.5h747l24 -23z" />
    <glyph glyph-name="tbar" unicode="&#x167;" horiz-adv-x="723" 
d="M696 130q-109 -81 -200.5 -120.5t-144.5 -39.5q-74 0 -130 59.5t-56 199.5v595h-126l-24 31l78 75h72v231l147 119l33 -27v-323h320l31 -31q-19 -30 -50 -64.5t-51 -45.5q-24 12 -72.5 23.5t-120.5 11.5h-57v-507q0 -114 24 -156.5t76 -42.5q36 0 86.5 14t130.5 56z
M533 415h-484l-23 23q4 15 11.5 38t14.5 39h484l23 -24z" />
    <glyph glyph-name="Utilde" unicode="&#x168;" horiz-adv-x="1349" 
d="M1288 1207q-68 -14 -105.5 -31t-37.5 -31v-621q0 -262 -129 -408t-345 -146q-137 0 -246 51t-172 156t-63 267v701q0 12 -35 30t-107 32v53h475v-53q-68 -14 -105.5 -31t-37.5 -31v-646q0 -192 83.5 -298t254.5 -106q95 0 157.5 57t93.5 147t31 189v657q0 12 -35 30
t-107 32v53h430v-53zM1040 1634q-23 -54 -60 -110.5t-84.5 -94.5t-102.5 -38q-50 0 -94.5 27.5t-87 55t-84.5 27.5t-74.5 -31.5t-68.5 -87.5l-61 23q24 54 60.5 110.5t84 95t102.5 38.5q54 0 100.5 -27.5t87 -55t76.5 -27.5q75 0 145 120z" />
    <glyph glyph-name="utilde" unicode="&#x169;" horiz-adv-x="1108" 
d="M1094 92q-73 -48 -145 -85t-96 -37q-36 0 -60.5 41.5t-32.5 144.5q-83 -79 -146.5 -119t-113 -53.5t-92.5 -13.5q-62 0 -117.5 25t-90.5 92t-35 192v425q0 63 -6.5 91t-33 37t-86.5 15v50q81 9 142.5 23t133.5 40l30 -41v-582q0 -135 37 -182t104 -47q57 0 122.5 34
t151.5 120v442q0 60 -9 89t-38 40t-90 14v50q81 9 152.5 26.5t132.5 36.5l32 -41v-655q0 -122 23 -140q11 -8 38 -3.5t78 26.5zM912 1349q-24 -54 -60.5 -109.5t-84.5 -93t-105 -37.5q-47 0 -89 27.5t-81.5 55t-78.5 27.5q-38 0 -71 -33t-69 -89l-63 24q23 54 59.5 110
t84.5 93.5t105 37.5q52 0 95 -28t80.5 -55.5t70.5 -27.5q37 0 73 33t70 92z" />
    <glyph glyph-name="Umacron" unicode="&#x16a;" horiz-adv-x="1349" 
d="M1288 1207q-68 -14 -105.5 -31t-37.5 -31v-621q0 -262 -129 -408t-345 -146q-137 0 -246 51t-172 156t-63 267v701q0 12 -35 30t-107 32v53h475v-53q-68 -14 -105.5 -31t-37.5 -31v-646q0 -192 83.5 -298t254.5 -106q95 0 157.5 57t93.5 147t31 189v657q0 12 -35 30
t-107 32v53h430v-53zM1049 1565q-5 -22 -21 -59.5t-23 -55.5h-650l-25 27q4 22 20 58.5t26 55.5h648z" />
    <glyph glyph-name="umacron" unicode="&#x16b;" horiz-adv-x="1108" 
d="M1094 92q-73 -48 -145 -85t-96 -37q-36 0 -60.5 41.5t-32.5 144.5q-83 -79 -146.5 -119t-113 -53.5t-92.5 -13.5q-62 0 -117.5 25t-90.5 92t-35 192v425q0 63 -6.5 91t-33 37t-86.5 15v50q81 9 142.5 23t133.5 40l30 -41v-582q0 -135 37 -182t104 -47q57 0 122.5 34
t151.5 120v442q0 60 -9 89t-38 40t-90 14v50q81 9 152.5 26.5t132.5 36.5l32 -41v-655q0 -122 23 -140q11 -8 38 -3.5t78 26.5zM931 1290q-5 -22 -21 -59.5t-24 -55.5h-665l-25 27q5 22 20.5 58.5t25.5 55.5h663z" />
    <glyph glyph-name="Ubreve" unicode="&#x16c;" horiz-adv-x="1349" 
d="M1288 1207q-68 -14 -105.5 -31t-37.5 -31v-621q0 -262 -129 -408t-345 -146q-137 0 -246 51t-172 156t-63 267v701q0 12 -35 30t-107 32v53h475v-53q-68 -14 -105.5 -31t-37.5 -31v-646q0 -192 83.5 -298t254.5 -106q95 0 157.5 57t93.5 147t31 189v657q0 12 -35 30
t-107 32v53h430v-53zM1017 1683q-60 -162 -149.5 -228.5t-183.5 -66.5q-102 0 -189.5 66.5t-147.5 228.5q24 35 60 52q50 -106 128 -150.5t145 -44.5q70 0 149 44t127 151q36 -16 61 -52z" />
    <glyph glyph-name="ubreve" unicode="&#x16d;" horiz-adv-x="1108" 
d="M1094 92q-73 -48 -145 -85t-96 -37q-36 0 -60.5 41.5t-32.5 144.5q-83 -79 -146.5 -119t-113 -53.5t-92.5 -13.5q-62 0 -117.5 25t-90.5 92t-35 192v425q0 63 -6.5 91t-33 37t-86.5 15v50q81 9 142.5 23t133.5 40l30 -41v-582q0 -135 37 -182t104 -47q57 0 122.5 34
t151.5 120v442q0 60 -9 89t-38 40t-90 14v50q81 9 152.5 26.5t132.5 36.5l32 -41v-655q0 -122 23 -140q11 -8 38 -3.5t78 26.5zM891 1363q-60 -162 -149.5 -228.5t-183.5 -66.5q-102 0 -189.5 66.5t-147.5 228.5q24 35 60 52q50 -106 128 -150.5t145 -44.5q70 0 149 44
t127 151q36 -16 61 -52z" />
    <glyph glyph-name="Uring" unicode="&#x16e;" horiz-adv-x="1349" 
d="M1288 1207q-68 -14 -105.5 -31t-37.5 -31v-621q0 -262 -129 -408t-345 -146q-137 0 -246 51t-172 156t-63 267v701q0 12 -35 30t-107 32v53h475v-53q-68 -14 -105.5 -31t-37.5 -31v-646q0 -192 83.5 -298t254.5 -106q95 0 157.5 57t93.5 147t31 189v657q0 12 -35 30
t-107 32v53h430v-53zM876 1612q0 -69 -34 -124t-85.5 -86.5t-105.5 -31.5q-71 0 -116.5 46.5t-45.5 115.5t33 124t84.5 87t106.5 32q70 0 116 -47.5t47 -115.5zM771 1571q0 48 -22.5 80.5t-56.5 32.5q-41 0 -69.5 -31.5t-28.5 -79.5q0 -46 22 -79t56 -33q40 0 69.5 29
t29.5 81z" />
    <glyph glyph-name="uring" unicode="&#x16f;" horiz-adv-x="1108" 
d="M1094 92q-73 -48 -145 -85t-96 -37q-36 0 -60.5 41.5t-32.5 144.5q-83 -79 -146.5 -119t-113 -53.5t-92.5 -13.5q-62 0 -117.5 25t-90.5 92t-35 192v425q0 63 -6.5 91t-33 37t-86.5 15v50q81 9 142.5 23t133.5 40l30 -41v-582q0 -135 37 -182t104 -47q57 0 122.5 34
t151.5 120v442q0 60 -9 89t-38 40t-90 14v50q81 9 152.5 26.5t132.5 36.5l32 -41v-655q0 -122 23 -140q11 -8 38 -3.5t78 26.5zM750 1292q0 -69 -34 -124t-85.5 -86.5t-105.5 -31.5q-71 0 -116.5 46.5t-45.5 115.5t33 124t84.5 87t106.5 32q70 0 116 -47.5t47 -115.5z
M645 1251q0 48 -22.5 80.5t-56.5 32.5q-41 0 -69.5 -31.5t-28.5 -79.5q0 -46 22 -79t56 -33q40 0 69.5 29t29.5 81z" />
    <glyph glyph-name="Uhungarumlaut" unicode="&#x170;" horiz-adv-x="1349" 
d="M1288 1207q-68 -14 -105.5 -31t-37.5 -31v-621q0 -262 -129 -408t-345 -146q-137 0 -246 51t-172 156t-63 267v701q0 12 -35 30t-107 32v53h475v-53q-68 -14 -105.5 -31t-37.5 -31v-646q0 -192 83.5 -298t254.5 -106q95 0 157.5 57t93.5 147t31 189v657q0 12 -35 30
t-107 32v53h430v-53zM820 1365q-18 3 -33.5 11.5t-33.5 20.5l169 417q24 -3 69.5 -10t66.5 -15l25 -46zM519 1365q-16 3 -31.5 11.5t-35.5 20.5l169 417q25 -3 70.5 -10t65.5 -15l25 -46z" />
    <glyph glyph-name="uhungarumlaut" unicode="&#x171;" horiz-adv-x="1108" 
d="M1094 92q-73 -48 -145 -85t-96 -37q-36 0 -60.5 41.5t-32.5 144.5q-83 -79 -146.5 -119t-113 -53.5t-92.5 -13.5q-62 0 -117.5 25t-90.5 92t-35 192v425q0 63 -6.5 91t-33 37t-86.5 15v50q81 9 142.5 23t133.5 40l30 -41v-582q0 -135 37 -182t104 -47q57 0 122.5 34
t151.5 120v442q0 60 -9 89t-38 40t-90 14v50q81 9 152.5 26.5t132.5 36.5l32 -41v-655q0 -122 23 -140q11 -8 38 -3.5t78 26.5zM694 1045q-18 3 -33.5 11.5t-33.5 20.5l169 417q24 -3 69.5 -10t66.5 -15l25 -46zM393 1045q-16 3 -31.5 11.5t-35.5 20.5l169 417
q25 -3 70.5 -10t65.5 -15l25 -46z" />
    <glyph glyph-name="Uogonek" unicode="&#x172;" horiz-adv-x="1349" 
d="M1288 1207q-68 -14 -105.5 -31t-37.5 -31v-621q0 -262 -129 -408t-345 -146q-137 0 -246 51t-172 156t-63 267v701q0 12 -35 30t-107 32v53h475v-53q-68 -14 -105.5 -31t-37.5 -31v-646q0 -192 83.5 -298t254.5 -106q95 0 157.5 57t93.5 147t31 189v657q0 12 -35 30
t-107 32v53h430v-53zM918 -299q-45 -54 -116 -99.5t-132 -45.5q-38 0 -75.5 12t-62.5 43.5t-25 89.5q0 180 313 342l57 -19q-130 -88 -168 -158t-38 -117q0 -37 23.5 -54.5t59.5 -17.5q25 0 60.5 16.5t77.5 54.5z" />
    <glyph glyph-name="uogonek" unicode="&#x173;" horiz-adv-x="1108" 
d="M1094 92q-73 -48 -145 -85t-96 -37q-36 0 -60.5 41.5t-32.5 144.5q-83 -79 -146.5 -119t-113 -53.5t-92.5 -13.5q-62 0 -117.5 25t-90.5 92t-35 192v425q0 63 -6.5 91t-33 37t-86.5 15v50q81 9 142.5 23t133.5 40l30 -41v-582q0 -135 37 -182t104 -47q57 0 122.5 34
t151.5 120v442q0 60 -9 89t-38 40t-90 14v50q81 9 152.5 26.5t132.5 36.5l32 -41v-655q0 -122 23 -140q11 -8 38 -3.5t78 26.5zM1013 -299q-45 -54 -116 -99.5t-132 -45.5q-38 0 -75.5 12t-62.5 43.5t-25 89.5q0 180 313 342l57 -19q-130 -88 -168 -158t-38 -117
q0 -37 23.5 -54.5t59.5 -17.5q25 0 60.5 16.5t77.5 54.5z" />
    <glyph glyph-name="Wcircumflex" unicode="&#x174;" horiz-adv-x="1741" 
d="M1712 1207q-88 -18 -118.5 -32t-33.5 -30l-229 -1086q-6 -28 -32.5 -46.5t-57.5 -28t-51 -14.5l-331 952l-287 -863q-15 -43 -64 -61.5t-90 -27.5l-260 1167q-5 25 -36 41t-102 29v53h449v-53q-97 -10 -117.5 -29t-15.5 -41l189 -842l314 965h70l347 -965l179 850
q4 23 -41.5 37t-112.5 25v53h431v-53zM1189 1417q-12 -19 -21.5 -32t-26.5 -20l-276 195l-274 -195q-16 7 -27 20t-25 32l269 317h117z" />
    <glyph glyph-name="wcircumflex" unicode="&#x175;" horiz-adv-x="1454" 
d="M1435 877q-60 -14 -77 -26.5t-23 -35.5l-221 -756q-8 -29 -35.5 -47.5t-57 -28t-46.5 -13.5l-264 701l20 259h27h39l257 -696l163 581q6 23 -16 37t-91 25v53h325v-53zM527 59q-15 -46 -62.5 -64.5t-73.5 -24.5l-264 845q-11 40 -109 62v53h408v-53q-94 -10 -110.5 -26.5
t-9.5 -35.5l175 -581l244 696h37h23l16 -125zM1077 1097q-12 -19 -21 -32t-27 -20l-276 253l-274 -253q-16 7 -27 20t-25 32l269 382h117z" />
    <glyph glyph-name="Ycircumflex" unicode="&#x176;" horiz-adv-x="1230" 
d="M1191 1207q-68 -13 -103.5 -26.5t-49.5 -39.5l-358 -654h-142q-36 83 -84 176t-100.5 183t-101.5 167t-86 128q-19 22 -49 37.5t-113 15.5l-4 53q59 8 126 15.5t108 7.5q53 0 86 -41q49 -65 106 -157t113.5 -194t102.5 -198l257 461q15 26 -9.5 41t-101.5 25v53h403v-53z
M355 0v53q91 19 126.5 38.5t35.5 33.5v512h190v-512q0 -13 34.5 -33t128.5 -39v-53h-515zM935 1417q-12 -19 -21.5 -32t-26.5 -20l-276 195l-274 -195q-16 7 -27 20t-25 32l269 317h117z" />
    <glyph glyph-name="ycircumflex" unicode="&#x177;" horiz-adv-x="1020" 
d="M1002 877q-60 -14 -80 -26t-30 -41l-334 -889q-84 -222 -200.5 -320t-225.5 -98q-76 0 -130 19.5t-54 38.5q0 9 23 40t53 64t51 46q48 -30 96.5 -33t86.5 10q36 12 86 73t86 147l29 69l-330 832q-11 28 -36.5 42.5t-74.5 25.5v53h408v-53q-75 -10 -96.5 -22.5t-8.5 -45.5
l232 -592l220 592q11 31 -10.5 44t-92.5 24v53h332v-53zM858 1097q-12 -19 -21 -32t-27 -20l-276 253l-274 -253q-16 7 -27 20t-25 32l269 382h117z" />
    <glyph glyph-name="Ydieresis" unicode="&#x178;" horiz-adv-x="1230" 
d="M1191 1207q-68 -13 -103.5 -26.5t-49.5 -39.5l-358 -654h-142q-36 83 -84 176t-100.5 183t-101.5 167t-86 128q-19 22 -49 37.5t-113 15.5l-4 53q59 8 126 15.5t108 7.5q53 0 86 -41q49 -65 106 -157t113.5 -194t102.5 -198l257 461q15 26 -9.5 41t-101.5 25v53h403v-53z
M355 0v53q91 19 126.5 38.5t35.5 33.5v512h190v-512q0 -13 34.5 -33t128.5 -39v-53h-515zM520 1543q0 -62 -37.5 -106t-91.5 -44q-96 0 -96 105q0 62 38.5 105.5t90.5 43.5q96 0 96 -104zM928 1543q0 -62 -37.5 -106t-92.5 -44q-95 0 -95 105q0 62 38.5 105.5t90.5 43.5
q96 0 96 -104z" />
    <glyph glyph-name="Zacute" unicode="&#x179;" horiz-adv-x="1086" 
d="M1009 313q-2 -43 -4.5 -101.5t-4.5 -115.5t-3 -96h-909l-31 48l698 1102h-436q-33 0 -73.5 -52.5t-62.5 -156.5l-67 14l32 321q54 -12 92.5 -14t97.5 -2h633l28 -45l-693 -1105h501q42 0 70 48.5t67 171.5zM426 1364q-17 8 -29 22t-24 31l381 325q14 -7 44.5 -23.5
t60 -34t40.5 -27.5l9 -51z" />
    <glyph glyph-name="zacute" unicode="&#x17a;" horiz-adv-x="896" 
d="M847 276q0 -42 -1.5 -98t-4 -105t-6.5 -73h-738l-26 45l546 785h-317q-36 0 -70.5 -36t-56.5 -134l-56 15l20 271q44 -12 78 -14t98 -2h515l22 -43l-549 -787h396q29 0 50 46t45 142zM441 1045q-18 3 -37 13.5t-30 19.5l227 419q15 -1 50.5 -6.5t71 -11.5t50.5 -10
l26 -44z" />
    <glyph glyph-name="Zdotaccent" unicode="&#x17b;" horiz-adv-x="1086" 
d="M1009 313q-2 -43 -4.5 -101.5t-4.5 -115.5t-3 -96h-909l-31 48l698 1102h-436q-33 0 -73.5 -52.5t-62.5 -156.5l-67 14l32 321q54 -12 92.5 -14t97.5 -2h633l28 -45l-693 -1105h501q42 0 70 48.5t67 171.5zM676 1543q0 -62 -37.5 -106t-91.5 -44q-96 0 -96 105
q0 62 38.5 105.5t90.5 43.5q96 0 96 -104z" />
    <glyph glyph-name="zdotaccent" unicode="&#x17c;" horiz-adv-x="896" 
d="M847 276q0 -42 -1.5 -98t-4 -105t-6.5 -73h-738l-26 45l546 785h-317q-36 0 -70.5 -36t-56.5 -134l-56 15l20 271q44 -12 78 -14t98 -2h515l22 -43l-549 -787h396q29 0 50 46t45 142zM602 1263q0 -62 -37.5 -106t-91.5 -44q-96 0 -96 105q0 62 38.5 105.5t90.5 43.5
q96 0 96 -104z" />
    <glyph glyph-name="Zcaron" unicode="&#x17d;" horiz-adv-x="1086" 
d="M1009 313q-2 -43 -4.5 -101.5t-4.5 -115.5t-3 -96h-909l-31 48l698 1102h-436q-33 0 -73.5 -52.5t-62.5 -156.5l-67 14l32 321q54 -12 92.5 -14t97.5 -2h633l28 -45l-693 -1105h501q42 0 70 48.5t67 171.5zM622 1389h-117l-266 311q14 20 23.5 32.5t26.5 21.5l277 -194
l273 194q17 -9 27.5 -21.5t23.5 -32.5z" />
    <glyph glyph-name="zcaron" unicode="&#x17e;" horiz-adv-x="896" 
d="M847 276q0 -42 -1.5 -98t-4 -105t-6.5 -73h-738l-26 45l546 785h-317q-36 0 -70.5 -36t-56.5 -134l-56 15l20 271q44 -12 78 -14t98 -2h515l22 -43l-549 -787h396q29 0 50 46t45 142zM549 1066h-117l-269 365q14 19 25 32t27 22l277 -241l273 241q18 -9 27 -22t21 -32z
" />
    <glyph glyph-name="longs" unicode="&#x17f;" horiz-adv-x="657" 
d="M842 1454q0 -15 -27 -42.5t-60 -53t-53 -35.5q-47 48 -94.5 70t-75.5 22q-34 0 -70.5 -32.5t-61.5 -119t-25 -247.5v-904q0 -12 45 -24.5t162 -34.5v-53h-524v53q68 12 102.5 29.5t34.5 29.5v849q0 142 25 231.5t68 147t96 103.5q61 53 133.5 80t118.5 27q47 0 94.5 -19
t79.5 -42t32 -35z" />
    <glyph glyph-name="uni0180" unicode="&#x180;" horiz-adv-x="1067" 
d="M982 497q0 -87 -37.5 -179.5t-105 -171t-158 -127.5t-195.5 -49q-44 0 -140 34t-204 92v1190q0 62 -9.5 87.5t-36.5 33t-82 13.5v50q75 16 140 32.5t128 47.5q8 -7 24 -21.5l16 -14.5v-762q99 109 193 158.5t151 49.5q140 0 228 -124t88 -339zM818 411q0 199 -72.5 300.5
t-166.5 101.5q-36 0 -106.5 -38.5t-150.5 -141.5v-425q79 -54 153.5 -74.5t108.5 -20.5q77 0 129 42t78.5 110.5t26.5 145.5zM623 1136h-612l-22 22q4 16 11.5 39t14.5 39h612l22 -25z" />
    <glyph glyph-name="uni0181" unicode="&#x181;" horiz-adv-x="1409" 
d="M824 -14q-35 0 -91.5 1.5t-120 3.5t-119.5 4t-91.5 3.5l-35.5 1.5l252 108q30 -16 82 -23t97 -7q144 0 226 68.5t82 180.5q0 74 -32.5 147t-103 122t-186.5 49q-66 0 -118.5 -9t-100.5 -16l-5 110h98q146 0 220 36.5t99.5 92t25.5 112.5q0 103 -73 163q-30 24 -70 38
t-102.5 20.5t-163.5 6.5q-161 0 -266 -40t-105 -130q0 -39 20 -69.5t51 -44.5q-3 -8 -36 -26t-73.5 -35t-68.5 -23q-37 16 -62 60t-25 102q0 136 156.5 216.5t452.5 80.5q171 0 276 -20t177 -67q45 -30 72.5 -78t27.5 -105q0 -107 -53 -184t-149 -113q90 -18 161 -69.5
t111.5 -128t40.5 -169.5q0 -170 -130.5 -270t-346.5 -100zM295 53q68 14 105.5 31t37.5 30v1096l190 21v-1117q0 -12 36 -32t109 -34v-48h-478v53z" />
    <glyph glyph-name="uni0182" unicode="&#x182;" horiz-adv-x="1161" 
d="M1054 356q0 -114 -60 -197t-165.5 -128t-244.5 -45q-35 0 -92 1.5t-120.5 3.5t-120 4t-92.5 3.5l-36 1.5l247 108q31 -16 84 -23t98 -7q135 0 220 65.5t85 183.5q0 74 -32 147.5t-102 122.5t-185 49q-66 0 -118.5 -7.5t-100.5 -15.5l-28 82q54 16 129.5 25.5t151.5 9.5
q162 0 269 -50.5t160 -137.5t53 -196zM962 1232q-2 -34 -11.5 -93.5t-21.5 -120t-22 -98.5h-58q-6 128 -18.5 184t-50.5 56h-452l29 100h570zM44 0v53q68 14 107 31t39 30v1031q0 12 -37 30t-109 32v53h313h168v-53q-67 -14 -106 -20t-39 -20v-1053q0 -13 38 -27t158 -34
v-53h-532z" />
    <glyph glyph-name="uni0183" unicode="&#x183;" horiz-adv-x="1060" 
d="M869 1492q-2 -34 -11.5 -93.5t-21 -120t-21.5 -98.5h-58q-6 128 -18.5 184t-50.5 56h-383q7 -55 8.5 -115t1.5 -122v-431q100 109 194 158.5t151 49.5q136 0 225.5 -122t89.5 -341q0 -85 -36.5 -177t-103.5 -171.5t-157.5 -129t-198.5 -49.5q-38 0 -137 33t-207 93v1051
q0 116 -15.5 201.5t-24.5 101.5q49 16 87.5 34t77.5 36h576zM811 411q0 199 -71 300.5t-168 101.5q-35 0 -106 -38.5t-151 -141.5v-425q78 -53 152.5 -74t109.5 -21q77 0 129.5 42t78.5 110.5t26 145.5z" />
    <glyph glyph-name="uni0184" unicode="&#x184;" horiz-adv-x="1166" 
d="M584 -14q-49 0 -129.5 2.5t-167 5.5t-154.5 6l247 106q31 -16 84.5 -22t102.5 -6q142 0 223 70.5t81 173.5q0 72 -33 145t-104 122t-184 49q-77 0 -132 -8t-100 -18l-10 91q53 15 129 26t152 11q230 0 352 -108.5t122 -275.5q0 -117 -62.5 -200t-171 -126.5t-245.5 -43.5
zM60 0v53q67 14 106 31t39 30v371h187v-373q0 -12 36.5 -30t108.5 -31v-51h-477zM205 354v649l-83 -127q-24 -24 -66 -46t-68 -32q-14 12 -28 31l253 391q24 18 68.5 40.5t72.5 29.5q22 -14 38 -36v-900h-187z" />
    <glyph glyph-name="uni0185" unicode="&#x185;" horiz-adv-x="1089" 
d="M601 813q-35 0 -106 -38.5t-151 -141.5v-425q80 -54 154.5 -74.5t107.5 -20.5q77 0 129.5 42t78.5 110.5t26 145.5q0 199 -72 300.5t-167 101.5zM164 1270l-71 -109q-21 -23 -61.5 -43.5t-66.5 -29.5q-16 15 -30 32l227 350q22 17 69 44.5t74 35.5q22 -16 39 -36v-762
q100 109 194 158.5t151 49.5q140 0 227.5 -124t87.5 -339q0 -87 -37.5 -179.5t-104.5 -171t-157.5 -127.5t-196.5 -49q-44 0 -140 34t-204 92v1174z" />
    <glyph glyph-name="uni0186" unicode="&#x186;" horiz-adv-x="1111" 
d="M456 -30q-136 0 -225 48t-132 119.5t-43 141.5q0 42 13 84.5t47 81.5q44 23 104.5 45.5t96.5 35.5l27 -59q-57 -34 -74 -70.5t-17 -92.5q0 -49 31 -97t87.5 -80t132.5 -32q88 0 167 50t128 169.5t49 326.5q0 177 -62.5 292.5t-156.5 171.5t-190 56q-53 0 -135.5 -26
t-202.5 -109q-10 5 -23 26t-18 27q135 132 247.5 171.5t214.5 39.5q129 0 247 -72.5t192.5 -209t74.5 -330.5q0 -210 -75.5 -369.5t-206 -249t-298.5 -89.5z" />
    <glyph glyph-name="uni0187" unicode="&#x187;" horiz-adv-x="1111" 
d="M1036 211q-128 -135 -240.5 -188t-219.5 -53q-95 0 -186.5 41.5t-164.5 121t-116.5 194t-43.5 259.5q0 213 83.5 371t223.5 245.5t309 87.5q107 0 195.5 -29.5t140.5 -70.5q6 -10 -12 -40.5t-43 -63.5t-40 -49l-45 9q-51 60 -120 93.5t-155 33.5q-51 0 -111.5 -28
t-114.5 -91.5t-88.5 -169t-34.5 -261.5q0 -175 62 -290t155 -171.5t186 -56.5q54 0 141.5 34t196.5 125q11 -7 22.5 -26t19.5 -27zM1420 1459q0 -12 -26.5 -38t-61.5 -52.5t-61 -39.5q-36 81 -73.5 104.5t-65.5 23.5q-62 0 -89 -67.5t-27 -200.5q-51 -14 -88.5 -21
t-81.5 -17q5 123 38.5 199t106.5 139q51 47 108 74t106 27q61 0 109.5 -26.5t77 -58t28.5 -46.5z" />
    <glyph glyph-name="uni0188" unicode="&#x188;" horiz-adv-x="910" 
d="M1249 1419q0 -12 -26 -37.5t-60.5 -51.5t-61.5 -40q-35 80 -73.5 102.5t-66.5 22.5q-63 0 -88 -70t-25 -236v-228q0 -26 -12 -65.5t-27.5 -76t-27.5 -54.5l-47 10q-22 56 -75.5 103t-148.5 47q-66 0 -124.5 -40t-94.5 -122t-36 -208q0 -111 40.5 -192.5t107.5 -125.5
t144 -44q38 0 71 6.5t78 33t118 86.5l44 -49q-87 -101 -151 -147.5t-119 -59.5t-118 -13q-101 0 -191.5 56.5t-147 163t-56.5 254.5q0 144 68 261t186 186t266 69q40 0 78 -8v97q0 106 15 178t47.5 124t84.5 98q51 47 108.5 74t105.5 27q61 0 109.5 -26.5t77 -58t28.5 -46.5
z" />
    <glyph glyph-name="uni0189" unicode="&#x189;" horiz-adv-x="1244" 
d="M629 615h-580l-22 25q11 36 26 75h580l25 -23zM48 0v53q67 14 104.5 31t37.5 30v1065q-77 -11 -142 -21l-11 72q61 17 147.5 30.5t179.5 21.5t174 8q288 0 453 -162t165 -452q0 -187 -54.5 -316.5t-141 -209t-187.5 -115t-194 -35.5h-66h-139.5h-129h-162.5h-34zM552 92
q65 0 135 32.5t130.5 99.5t98 169.5t37.5 243.5q0 266 -124.5 414t-357.5 148q-44 0 -91 -3v-1037q0 -44 54.5 -55.5t117.5 -11.5z" />
    <glyph glyph-name="uni018A" unicode="&#x18a;" horiz-adv-x="1492" 
d="M28 993q0 152 175 224.5t493 72.5q165 0 268.5 -20t179.5 -68q143 -91 201 -228t58 -298q0 -187 -54 -316.5t-141 -209t-186.5 -115t-189.5 -35.5h-505l301 160q0 -34 37.5 -51t134.5 -17q64 0 134 32.5t130.5 99.5t98.5 169.5t38 243.5q0 136 -38 253.5t-127 199.5
q-68 61 -161 85t-264 24q-200 0 -297 -44.5t-97 -125.5q0 -78 76 -114q-6 -11 -36 -29t-68 -34t-69 -21q-41 20 -66.5 62.5t-25.5 99.5zM295 0v53q68 14 105.5 31t37.5 30v1125h190v-1075q0 -39 36 -59t109 -34v-71h-478z" />
    <glyph glyph-name="uni018B" unicode="&#x18b;" horiz-adv-x="1154" 
d="M108 346q0 103 54 192.5t160.5 145.5t262.5 56q75 0 145 -10t123 -25l-10 -85q-48 7 -100.5 15t-118.5 8q-117 0 -189 -39.5t-105 -101t-33 -130.5q0 -122 81 -207t221 -85q45 0 99.5 6t85.5 22l259 -108l-36.5 -1.5t-94.5 -3.5t-122.5 -4t-122 -3.5t-92.5 -1.5
q-210 0 -338.5 87.5t-128.5 272.5zM585 0l-7 53q120 20 158 34t38 27v1053q0 14 -39 25t-106 25v43h168h313v-53q-72 -14 -109 -32t-37 -30v-1031q0 -13 39 -30t107 -31v-53h-525zM382 1160q-31 0 -57.5 -64t-71.5 -181l-53 19q-1 39 4.5 102.5t13.5 126t15 97.5h639
l28 -100h-518z" />
    <glyph glyph-name="uni018C" unicode="&#x18c;" horiz-adv-x="1093" 
d="M1076 94q-186 -124 -247 -124q-40 0 -64.5 67.5t-24.5 234.5v853q0 74 0.5 148t4.5 147h-373q-31 0 -57.5 -64t-71.5 -181l-53 19q0 39 5 102.5t12.5 126t14.5 97.5h466q57 0 120 7t101 13l32 -33q-16 -84 -18.5 -171.5t-2.5 -173.5v-888q0 -70 5.5 -102.5t17.5 -45.5
q9 -9 33 -6t82 27zM814 245q-65 -80 -124 -142t-124.5 -97.5t-149.5 -35.5q-78 0 -158 56.5t-134 163t-54 254.5q0 87 33.5 177.5t96 167.5t150.5 124t196 47q66 0 126.5 -21t138.5 -99q0 -60 -16 -85.5t-48 -44.5q-29 59 -90 96t-137 37q-120 0 -195 -90t-75 -278
q0 -107 39 -187t96 -124t112 -44q53 0 100.5 27.5t91.5 68.5t86 81q12 -6 23.5 -25t15.5 -27z" />
    <glyph glyph-name="uni018D" unicode="&#x18d;" horiz-adv-x="1038" 
d="M110 -454q41 48 82.5 89.5t73.5 67.5t45 26q17 0 57 -20t92.5 -46t107.5 -45.5t102 -19.5q34 0 68 26t34 74q0 63 -50 109.5t-129 88.5t-167 89.5t-167 112t-129 155.5t-50 221q0 92 37 179t100 156.5t144 110t169 40.5q144 0 237.5 -66t139.5 -171.5t46 -224.5
q0 -135 -56.5 -242.5t-151 -184t-209.5 -121.5q-8 13 -25.5 30.5t-17.5 32.5q0 8 2 16q137 56 205 162.5t68 251.5q0 104 -39 191.5t-105 141t-148 53.5q-52 0 -100.5 -37t-79.5 -101.5t-31 -147.5q0 -129 47.5 -214.5t122 -143t158.5 -101t158.5 -88t122 -103t47.5 -147.5
q0 -61 -38 -117.5t-99.5 -92.5t-132.5 -36q-90 0 -157 11t-123 21.5t-114 10.5q-26 0 -60.5 -11.5t-55.5 -26.5q-7 5 -14 16t-17 25z" />
    <glyph glyph-name="uni018E" unicode="&#x18e;" horiz-adv-x="1040" 
d="M63 28q2 34 11.5 96t21.5 121.5t20 84.5h55q5 -92 19 -161t51 -69h205q86 0 129 7t57.5 23.5t14.5 42.5v472h-208q-46 0 -108 -6t-94 -14l-26 28q16 28 46.5 68t52.5 56q31 -30 72.5 -34t125.5 -4h139v421h-236q-61 0 -99 -11t-65 -48t-55 -115l-53 20q7 86 19 155.5
t21 98.5h800v-53q-67 -13 -104.5 -30t-37.5 -31v-1031q0 -12 35 -30t107 -32v-53h-881z" />
    <glyph glyph-name="uni018F" unicode="&#x18f;" horiz-adv-x="1137" 
d="M1065 678q0 -210 -71.5 -369.5t-199 -249t-296.5 -89.5q-137 0 -230.5 59t-141.5 148t-48 177q0 35 6.5 76t28.5 72q31 19 72 39.5t75.5 34.5t43.5 14h599v-100h-563q-28 0 -49 -32.5t-21 -88.5q0 -67 37 -130t99.5 -103.5t138.5 -40.5q90 0 165.5 51.5t121 171
t45.5 323.5q0 131 -37 229t-97 163.5t-130.5 98.5t-136.5 33q-59 0 -140 -26t-201 -110q-9 6 -23.5 25.5t-17.5 26.5q90 90 168.5 134.5t148.5 59.5t135 15q97 0 189.5 -41t167 -120t118.5 -192.5t44 -258.5z" />
    <glyph glyph-name="uni0190" unicode="&#x190;" horiz-adv-x="1054" 
d="M979 213q-121 -134 -239.5 -188.5t-269.5 -54.5q-134 0 -221.5 51t-130.5 124.5t-43 140.5q0 77 33 146.5t86.5 122.5t115.5 80q-96 34 -149 103t-53 167q0 86 50 164t139 133q63 40 140 64t161 24q107 0 203 -25.5t161 -78.5q-16 -36 -43.5 -77.5t-51.5 -73.5l-53 11
q-56 58 -118 92.5t-151 34.5q-70 0 -131 -30t-98.5 -82t-37.5 -120q0 -55 32.5 -106t115 -85.5t230.5 -40.5v-84q-137 -9 -223.5 -52.5t-127 -104.5t-40.5 -121q0 -101 82.5 -169t210.5 -68q63 0 117.5 11.5t115 44.5t142.5 100z" />
    <glyph glyph-name="uni0191" unicode="&#x191;" horiz-adv-x="999" 
d="M380 190q0 -147 -32 -235.5t-80.5 -142t-98.5 -95.5q-54 -43 -127.5 -70t-121.5 -27q-47 0 -90.5 16t-71.5 36t-28 33q0 12 25.5 38t57.5 50.5t51 31.5q51 -37 88.5 -52t79.5 -15q35 0 71.5 29t61.5 106.5t25 222.5v1029q0 12 -35 30t-107 32v53h841l33 -27
q-1 -34 -7.5 -81.5t-15 -91.5t-16.5 -70h-57q-3 92 -23.5 131t-58.5 39h-364v-425h372l31 -30q-17 -28 -45 -64.5t-49 -51.5q-29 29 -71.5 42t-125.5 13h-112v-454z" />
    <glyph glyph-name="florin" unicode="&#x192;" horiz-adv-x="609" 
d="M818 1454q0 -15 -27 -42.5t-60 -53t-52 -35.5q-50 48 -97.5 71t-72.5 23q-38 0 -74.5 -35t-60 -123.5t-23.5 -249.5v-79h256l30 -31q-18 -28 -49 -63.5t-51 -44.5q-23 12 -65.5 23.5t-120.5 11.5v-728q0 -153 -29.5 -247.5t-77 -152t-101.5 -98.5q-56 -43 -119.5 -70
t-109.5 -27q-45 0 -87.5 14.5t-70 32.5t-27.5 29q0 12 26 39t59.5 53t55.5 37q41 -36 76.5 -47t73.5 -11q37 0 71 31.5t56 117t22 246.5v781h-128l-23 31l78 73h73v31q0 145 26 235t69.5 146.5t95.5 100.5q59 51 131.5 79t118.5 28q47 0 95 -19t80.5 -42t32.5 -35z" />
    <glyph glyph-name="uni0193" unicode="&#x193;" horiz-adv-x="1207" 
d="M1160 562q-57 -13 -79.5 -36t-22.5 -46v-316l-27.5 -12.5t-63 -27.5t-62.5 -24t-27 -2v382q0 22 -36.5 42.5t-154.5 39.5v53h473v-53zM1060 1188q7 -11 -10.5 -39t-44.5 -58.5t-46 -49.5l-43 9q-66 74 -139.5 99.5t-168.5 25.5q-37 0 -96.5 -26t-119 -87t-99.5 -165
t-40 -260q0 -183 59 -301.5t151.5 -175.5t191.5 -57q102 0 175.5 29t125.5 78q9 -4 32 -14.5t44.5 -21t25.5 -15.5q-99 -81 -174.5 -121.5t-137.5 -54t-123 -13.5q-103 0 -202.5 37.5t-180 114t-128 191.5t-47.5 269q0 222 91 380.5t244.5 243t341.5 84.5q44 0 102 -12
t115.5 -34.5t100.5 -55.5zM1464 1459q0 -12 -26 -38t-61 -52.5t-62 -39.5q-35 81 -73 104.5t-66 23.5q-61 0 -88 -67.5t-27 -200.5q-52 -14 -89.5 -21t-80.5 -17q4 123 38 199t106 139q51 47 108.5 74t105.5 27q61 0 109.5 -26.5t77 -58t28.5 -46.5z" />
    <glyph glyph-name="uni0194" unicode="&#x194;" horiz-adv-x="1233" 
d="M1200 1207q-43 -7 -65.5 -15.5t-38.5 -28t-41 -60.5l-395 -657q-124 -178 -124 -246q0 -65 26.5 -91t60.5 -26q32 0 55 23.5t23 69.5q0 32 -17.5 74.5t-68.5 130.5l-449 724q-31 54 -58 74.5t-88 27.5v53h423v-53q-78 -10 -88 -29t23 -73l377 -608q65 -105 91 -163.5
t26 -113.5q0 -61 -28.5 -118.5t-85.5 -94.5t-143 -37q-85 0 -148.5 54.5t-63.5 151.5q0 50 19.5 97.5t66.5 125.5l426 704q36 60 22.5 76.5t-87.5 27.5v53h350v-53z" />
    <glyph glyph-name="uni0195" unicode="&#x195;" horiz-adv-x="1672" 
d="M805 454v159q0 118 -28.5 159t-94.5 41q-65 0 -146.5 -59.5t-165.5 -174.5v-465q0 -15 36.5 -31t101.5 -30v-53h-455v53q66 17 101.5 31t35.5 30v1174q0 56 -7.5 81t-36.5 34.5t-93 16.5v50q167 27 278 80l39 -36v-797q90 112 201 177.5t193 65.5q95 0 158 -59.5
t63 -171.5v-275h-180zM1598 514q0 -105 -38 -202t-104.5 -174.5t-153.5 -122.5t-186 -45q-88 0 -158.5 30t-111.5 102t-41 197v222q0 48 12.5 66.5t36 25.5t57 19t74.5 47v-319q0 -142 55.5 -201t131.5 -59q90 0 145 52t80 132.5t25 166.5q0 103 -26.5 191t-82 142.5
t-141.5 57.5l-17 50q21 10 62 23.5t83.5 25.5t68.5 19q57 -19 109.5 -73.5t86 -147t33.5 -225.5z" />
    <glyph glyph-name="uni0196" unicode="&#x196;" horiz-adv-x="713" 
d="M695 182q-92 -84 -151.5 -130t-101 -64t-79.5 -18q-71 0 -105 72.5t-34 226.5v675q0 88 -10 130t-49.5 57.5t-126.5 23.5v52q84 16 172 34t153 49h48v-882q0 -113 5.5 -170t20.5 -77t44 -20q19 0 63.5 18.5t125.5 76.5z" />
    <glyph glyph-name="uni0197" unicode="&#x197;" horiz-adv-x="630" 
d="M541 610h-141v-496q0 -12 35.5 -29.5t107.5 -31.5v-53h-475v53q67 14 104.5 31t37.5 30v496h-145l-22 24l12.5 37.5t13.5 38.5h141v435q0 12 -35 30t-107 32v53h475v-53q-68 -14 -105.5 -31t-37.5 -31v-435h145l25 -23z" />
    <glyph glyph-name="uni0198" unicode="&#x198;" horiz-adv-x="1281" 
d="M1050 839l-23 36q40 85 39 145q-2 58 -26.5 85.5t-61.5 27.5q-35 0 -70.5 -26.5t-64.5 -66.5l-304 -366l484 -534q34 -39 78 -45t96 0l7 -53q-58 -19 -124 -37.5t-114 -18.5q-30 0 -52 9t-42 34l-499 614l362 460q127 167 290 167q94 0 162 -55t69 -174q0 -24 -4.5 -53.5
t-10.5 -56.5q-3 -11 -37.5 -30t-78.5 -36.5t-75 -25.5zM48 0v53q67 14 104.5 31t37.5 30v1031q0 12 -35 30t-107 32v53h475v-53q-68 -14 -105.5 -31t-37.5 -31v-1031q0 -12 35 -29.5t108 -31.5v-53h-475z" />
    <glyph glyph-name="uni0199" unicode="&#x199;" horiz-adv-x="1059" 
d="M1062 23q-59 -13 -118.5 -23t-80.5 -10q-81 0 -120 53l-373 476v-405q0 -15 18 -26.5t92 -34.5v-53h-427v53q66 17 101.5 30t35.5 31v782q2 160 31.5 262.5t83.5 171.5t129 127q58 46 133 69.5t125 23.5q60 0 118.5 -27.5t98 -59.5t39.5 -46q0 -13 -27.5 -41t-60.5 -54.5
t-53 -35.5q-44 54 -102.5 91.5t-119.5 37.5q-45 0 -95 -40t-84.5 -142.5t-35.5 -289.5v-412l293 258q43 38 45 57t-21.5 25t-58.5 6v53h399v-53q-45 -4 -84 -17.5t-81 -46.5l-329 -259l371 -430q28 -33 60.5 -42.5t91.5 -5.5z" />
    <glyph glyph-name="uni019A" unicode="&#x19a;" horiz-adv-x="673" 
d="M99 0v53q86 15 117 30t31 31v1172q0 61 -11.5 86.5t-41 33.5t-85.5 14v50q81 14 146.5 31t132.5 49l39 -36v-1400q0 -15 32.5 -31t114.5 -30v-53h-475zM582 734h-497l-22 22q4 16 12.5 39t16.5 39h497l22 -25z" />
    <glyph glyph-name="uni019B" unicode="&#x19b;" horiz-adv-x="1118" 
d="M1133 107q-79 -60 -138 -98.5t-105 -38.5q-40 0 -70.5 30.5t-62 113t-74.5 234.5t-108 395q-55 203 -96.5 322t-73.5 176.5t-58 75t-50 17.5q-31 0 -68.5 -16t-89.5 -55l-28 58q95 96 168.5 142.5t124.5 46.5q30 0 55.5 -12.5t51 -52t55.5 -120t70.5 -216t95.5 -341.5
q54 -197 99.5 -343t86.5 -225.5t78 -79.5q25 0 49 9t73 33zM594 814q-60 -127 -114.5 -247.5t-106 -251.5t-101.5 -291q-26 -6 -66 -16t-79 -20.5t-62 -17.5l-35 35q80 101 155.5 228.5t141 263t116 263t81.5 230.5q14 -13 29.5 -51.5t27 -76.5t13.5 -48zM878 1423
q-6 -34 -9.5 -49.5t-16.5 -49.5l-641 -450l-30 25q5 26 7 41.5t17 58.5l643 448z" />
    <glyph glyph-name="uni019C" unicode="&#x19c;" horiz-adv-x="2004" 
d="M528 1260v-53q-76 -16 -109.5 -32t-33.5 -30v-711q0 -120 18 -186t53 -92t86 -26q75 0 172 88t196 251v676q0 14 -38 31.5t-104 30.5v53h475v-53q-143 -30 -143 -62v-718q0 -165 39 -231t116 -66q78 0 169.5 87t200.5 252v676q0 33 -142 62v53h475v-53q-143 -30 -143 -62
v-903q0 -58 9 -85.5t39 -38t93 -16.5v-52q-67 -13 -114 -23t-88 -22.5t-89 -34.5l-40 38v276q-120 -174 -231.5 -244t-200.5 -70q-107 0 -166 48.5t-83 121t-28 146.5q-109 -161 -224.5 -238.5t-212.5 -77.5q-127 0 -205.5 83t-78.5 279v813q0 33 -142 62v53h475z" />
    <glyph glyph-name="uni019D" unicode="&#x19d;" horiz-adv-x="1339" 
d="M1293 1207q-72 -10 -107.5 -29t-35.5 -33v-1113l-130 39v1074q0 12 -31 31.5t-111 30.5v53h415v-53zM1150 -30q-65 7 -103.5 26t-55.5 43l-753 1044q-42 57 -90 86.5t-100 37.5v53h234q29 0 43.5 -13t52.5 -65l649 -896q14 -20 43.5 -58t54.5 -69l25 -31v-158zM320 1131
v-950q0 -136 -15 -221.5t-46.5 -141t-82.5 -101.5q-52 -45 -126 -77t-128 -32q-47 0 -91.5 15t-73 35t-28.5 34q0 11 25.5 37.5t57.5 52t51 32.5q51 -42 89 -55t79 -13q39 0 75.5 33.5t60 113.5t23.5 220v1036z" />
    <glyph glyph-name="uni019E" unicode="&#x19e;" horiz-adv-x="1143" 
d="M668 -480v53q137 36 137 61v984q0 118 -27 156.5t-93 38.5q-57 0 -137.5 -51.5t-177.5 -182.5v-465q0 -15 36.5 -31t101.5 -30v-53h-455v53q66 17 101.5 31t35.5 30v590q0 52 -6 76.5t-35 34.5t-96 18v50q76 10 139.5 29.5t125.5 47.5l37 -37l11 -214q97 122 208.5 186.5
t189.5 64.5q86 0 153.5 -55t67.5 -176v-1095q0 -13 29.5 -27t108.5 -34v-53h-455z" />
    <glyph glyph-name="uni019F" unicode="&#x19f;" horiz-adv-x="1244" 
d="M1158 647q0 -136 -45.5 -258t-125.5 -216.5t-184 -148.5t-220 -54q-123 0 -219 52.5t-162.5 142.5t-101.5 205.5t-35 241.5q0 136 43.5 258.5t122 217t183 148.5t227.5 54q126 0 222.5 -54t162 -145.5t99 -206.5t33.5 -237zM253 610q5 -143 56 -259.5t131.5 -186
t176.5 -69.5q152 0 250 130t103 385h-717zM966 710q-13 122 -61 227t-125 169t-176 64q-154 0 -245.5 -123t-103.5 -337h711z" />
    <glyph glyph-name="Ohorn" unicode="&#x1a0;" horiz-adv-x="1251" 
d="M583 -30q-122 0 -218 52.5t-163 142.5t-101.5 205.5t-34.5 241.5q0 136 43.5 258.5t121.5 217t183 148.5t227 54q127 0 223.5 -54t162 -145.5t99 -206.5t33.5 -237q0 -136 -46 -258t-126 -216.5t-183.5 -148.5t-220.5 -54zM617 95q155 0 254.5 134.5t99.5 399.5
q0 104 -26 200.5t-74.5 173.5t-116 122t-149.5 45q-167 0 -259.5 -142t-92.5 -387q0 -149 50 -273.5t132.5 -198.5t181.5 -74zM1248 1392q0 -43 -36 -101.5t-119 -120t-223 -114.5l-21 72q110 43 153.5 95t43.5 88q0 29 -16.5 55t-43.5 49l205 93q25 -22 41 -52.5t16 -63.5z
" />
    <glyph glyph-name="ohorn" unicode="&#x1a1;" horiz-adv-x="1135" 
d="M968 485q0 -100 -37 -192t-102 -165t-149.5 -115.5t-177.5 -42.5q-130 0 -226.5 62t-149.5 169t-53 243q0 99 35.5 191.5t99.5 166t149 116t184 42.5q129 0 225 -62t149 -169t53 -244zM781 450q0 106 -39 195.5t-100.5 144.5t-129.5 55q-96 0 -150.5 -49t-77.5 -133.5
t-23 -189.5t41.5 -193.5t103.5 -141.5t124 -53q134 0 192.5 98t58.5 267zM1171 1042q0 -43 -36 -101.5t-119 -120t-223 -114.5l-21 72q110 43 153.5 95t43.5 88q0 29 -16.5 55t-43.5 49l205 93q25 -22 41 -52.5t16 -63.5z" />
    <glyph glyph-name="uni01A2" unicode="&#x1a2;" horiz-adv-x="1882" 
d="M1330 -350v53q68 14 106.5 31t38.5 30v1093q0 164 -44 223.5t-119 59.5q-52 0 -107 -22.5t-133 -103.5q42 -80 64 -175.5t22 -191.5q0 -136 -45.5 -258t-125.5 -216.5t-184 -148.5t-220 -54q-121 0 -216.5 52.5t-163 142.5t-103 205.5t-35.5 241.5q0 136 44 258.5
t121.5 217t180.5 148.5t222 54q125 0 217.5 -48.5t160.5 -133.5q97 97 187 139.5t178 42.5q76 0 142 -29t106.5 -99.5t40.5 -195.5v-1202q0 -12 36.5 -29.5t108.5 -31.5v-53h-480zM971 629q0 104 -26.5 200.5t-75 173.5t-116 122t-149.5 45q-166 0 -258.5 -142t-92.5 -387
q0 -149 49.5 -273.5t132.5 -198.5t182 -74q154 0 254 134.5t100 399.5z" />
    <glyph glyph-name="uni01A3" unicode="&#x1a3;" horiz-adv-x="1570" 
d="M970 485q0 -100 -37 -192t-102 -165t-149.5 -115.5t-177.5 -42.5q-130 0 -226.5 62t-149.5 169t-53 243q0 99 35.5 191.5t99.5 166t149 116t184 42.5q129 0 225 -62t149 -169t53 -244zM783 450q0 106 -39 195.5t-100.5 144.5t-129.5 55q-96 0 -150.5 -49t-77.5 -133.5
t-23 -189.5t41.5 -193.5t103.5 -141.5t124 -53q134 0 192.5 98t58.5 267zM1090 -480v53q140 36 140 61v974q0 122 -25.5 167t-97.5 45q-61 0 -136 -62.5t-159 -207.5l-11 137q87 134 187.5 203.5t185.5 69.5q60 0 114 -24t88 -77t34 -140v-1085q0 -13 30.5 -27t109.5 -34
v-53h-460z" />
    <glyph glyph-name="uni01A4" unicode="&#x1a4;" horiz-adv-x="1349" 
d="M851 530q-96 0 -164 30l-25 85q41 -19 77 -24.5t72 -5.5q61 0 122.5 31.5t102.5 93.5t41 155q0 107 -55 182t-156 96q-35 10 -65.5 15.5t-74 8t-118.5 2.5q-193 0 -292 -44.5t-99 -125.5q0 -38 21 -68t55 -46q-6 -10 -35.5 -28.5t-68 -35t-69.5 -20.5q-40 20 -66 62.5
t-26 99.5q0 138 156.5 217.5t464.5 79.5q146 0 220 -7t128 -22q122 -33 195 -113t73 -212q0 -104 -41 -180.5t-105 -126.5t-135.5 -74.5t-132.5 -24.5zM295 0v53q68 14 105.5 31t37.5 30v1126h190v-1126q0 -12 34 -28t138 -33v-53h-505z" />
    <glyph glyph-name="uni01A5" unicode="&#x1a5;" horiz-adv-x="1060" 
d="M978 495q0 -91 -34 -183.5t-89.5 -170t-124 -124.5t-137.5 -47q-123 0 -275 123v-458q0 -16 37.5 -32t131.5 -30v-53h-487v53q66 16 102 30.5t36 31.5v1244q0 156 26.5 259.5t77 174.5t120.5 130q54 46 134 76.5t137 30.5q65 0 123.5 -27.5t96 -59.5t37.5 -46t-27 -41.5
t-60 -53.5t-53 -35q-41 51 -100 89.5t-121 38.5q-43 0 -92.5 -41t-84 -145.5t-34.5 -294.5v-178q102 112 191 158t146 46q137 0 230 -120.5t93 -344.5zM813 426q0 120 -35 208.5t-90 137t-117 48.5q-36 0 -102.5 -39.5t-150.5 -147.5v-415q94 -66 156 -85.5t115 -19.5
q97 0 160.5 80t63.5 233z" />
    <glyph glyph-name="uni01A6" unicode="&#x1a6;" horiz-adv-x="1146" 
d="M282 1005q47 7 102.5 11t114.5 4q180 0 286.5 -39.5t153.5 -101t47 -127.5q0 -108 -62.5 -185t-174 -118t-258.5 -41q-28 0 -61.5 3.5t-63.5 10.5l-6 90q35 -6 62 -8t52 -2q174 0 253.5 61.5t77.5 157.5q-2 47 -31 95t-103 80.5t-209 32.5q-43 0 -90.5 -3t-93.5 -7z
M1208 -191q-70 -24 -134.5 -40t-109.5 -16q-28 0 -56 16t-42 39l-369 634l116 64l409 -585q31 -43 68.5 -54t104.5 -5zM53 0v53q67 14 106 31t39 30v1031q0 12 -36.5 30t-108.5 32v53h477v-53q-67 -14 -106 -31t-39 -31v-1031q0 -12 36.5 -29.5t108.5 -31.5v-53h-477z" />
    <glyph glyph-name="uni01A7" unicode="&#x1a7;" horiz-adv-x="1000" 
d="M106 337q0 114 46 192.5t118.5 133t154 95t153.5 76.5t118 78.5t46 101.5q0 57 -48.5 111t-151.5 54q-102 0 -167.5 -49.5t-90.5 -115.5l-48 -6q-16 14 -36.5 52t-32 74t-1.5 44q28 28 88 53.5t134 42t145 16.5q113 0 185 -27.5t111.5 -72t54.5 -95.5t15 -98
q0 -107 -45.5 -177t-117 -116.5t-152 -83t-152.5 -74.5t-117.5 -90t-45.5 -132q0 -69 35 -119.5t90.5 -78.5t118.5 -28q102 0 191.5 69t131.5 187l52 5q7 -27 11 -71t5 -89t-2 -77.5t-10 -35.5q-71 -45 -171 -80.5t-222 -35.5q-139 0 -226 54.5t-127 139t-40 173.5z" />
    <glyph glyph-name="uni01A8" unicode="&#x1a8;" horiz-adv-x="812" 
d="M84 243q0 85 41.5 146.5t102 104.5t118.5 73q84 44 146.5 84t62.5 99q0 43 -34 78t-100 35q-173 0 -203 -177l-50 -8q-7 8 -17.5 34.5t-20 59t-13.5 58t2 31.5q27 23 81.5 46t115.5 38t107 15q124 0 206.5 -52.5t82.5 -177.5q0 -80 -35 -133.5t-88.5 -90t-109.5 -64.5
q-61 -32 -114.5 -62.5t-87 -66.5t-33.5 -86q0 -70 45 -109.5t111 -39.5q69 0 123.5 33t87.5 85.5t37 108.5l53 11q8 -26 13 -66.5t6.5 -82t-0.5 -71t-9 -32.5q-67 -45 -152 -69.5t-164 -24.5q-83 0 -154 28t-114 88.5t-43 156.5z" />
    <glyph glyph-name="uni01A9" unicode="&#x1a9;" horiz-adv-x="1083" 
d="M1024 360q-3 -53 -8 -124t-10 -135.5t-8 -100.5h-910l-34 46l430 582l-409 587v45h694q57 0 105 2t108 14l4 -316l-66 -14q-24 99 -47.5 141.5t-45.5 52.5t-42 10h-450l327 -476l-381 -516h531q42 0 65.5 17.5t41.5 64.5t42 135z" />
    <glyph glyph-name="uni01AA" unicode="&#x1aa;" horiz-adv-x="736" 
d="M25 1280q0 61 41 123.5t114 104.5t170 42q89 0 145 -49.5t82 -128t26 -165.5q0 -202 -12.5 -412.5t-25 -408.5t-12.5 -365q0 -160 18.5 -250.5t53.5 -128t85 -37.5q39 0 66 25.5t36 60t-9 63.5q-3 4 20 16t57 25.5t66.5 22t47.5 6.5l22 -44q3 -42 -25 -90t-79.5 -90.5
t-120 -69.5t-145.5 -27q-143 0 -213 122t-70 335q0 198 12 401.5t24.5 397.5t13.5 362q0 152 -32 240.5t-103 88.5q-40 0 -71.5 -35t-31.5 -83q0 -54 31.5 -86.5t75.5 -32.5q50 0 83.5 28t52 58t22.5 34l44 -75q-54 -97 -121.5 -138.5t-136.5 -42.5q-94 0 -147.5 56.5
t-53.5 146.5z" />
    <glyph glyph-name="uni01AB" unicode="&#x1ab;" horiz-adv-x="723" 
d="M696 130q-109 -81 -200.5 -120.5t-144.5 -39.5q-74 0 -130 59.5t-56 199.5v596h-126l-24 31l78 74h72v234l147 119l33 -28v-325h320l31 -31q-19 -30 -50 -64t-51 -45q-24 12 -72.5 23.5t-120.5 11.5h-57v-508q0 -114 24 -156.5t76 -42.5q36 0 86.5 14t130.5 56zM238 -285
q13 15 42 36t61 39.5t55 26.5q4 -5 12.5 -13t14.5 -16q-24 -59 -14.5 -100t34.5 -62t49 -21q50 0 77 43t27 161v289q28 8 51.5 15t48.5 17v-292q0 -108 -24 -174.5t-63 -102t-83 -48.5t-84 -13q-59 0 -107.5 30t-75.5 79t-21 106z" />
    <glyph glyph-name="uni01AC" unicode="&#x1ac;" horiz-adv-x="1249" 
d="M28 993q0 93 53 152t134.5 87t166.5 28h792l33 -27q-2 -51 -11.5 -120.5t-21.5 -132.5h-55q-18 85 -31.5 132.5t-58.5 47.5h-272v-1035q0 -13 35 -33t127 -39v-53h-513v53q92 19 126.5 38.5t34.5 33.5v1035h-161q-81 0 -135 -27.5t-54 -103.5q0 -42 23 -71t53 -43
q-5 -9 -34.5 -27.5t-67.5 -35t-71 -21.5q-37 17 -64.5 59.5t-27.5 102.5z" />
    <glyph glyph-name="uni01AD" unicode="&#x1ad;" horiz-adv-x="730" 
d="M747 1419q0 -12 -26.5 -39t-60.5 -53.5t-57 -37.5q-34 69 -71 98t-68 29q-56 0 -85.5 -63.5t-30.5 -232.5v-190h319l32 -31q-19 -30 -50 -64.5t-51 -45.5q-24 12 -73 23.5t-120 11.5h-57v-507q0 -114 23.5 -156.5t76.5 -42.5q35 0 86 14t131 56l34 -58
q-110 -81 -201.5 -120.5t-143.5 -39.5q-75 0 -130.5 59.5t-55.5 199.5v595h-127l-23 31l78 75h72v117q0 107 16 179.5t49 124.5t84 98q51 47 112 74t108 27q58 0 105.5 -26.5t76 -58t28.5 -46.5z" />
    <glyph glyph-name="uni01AE" unicode="&#x1ae;" horiz-adv-x="1148" 
d="M1111 -115q2 -39 -27.5 -86.5t-83 -91t-124.5 -71.5t-153 -28q-131 0 -194.5 83.5t-63.5 244.5v1224h-284q-20 0 -36.5 -14t-35.5 -54t-49 -118l-53 21q4 59 14.5 136t20.5 129h1030l33 -27q-2 -51 -11.5 -120.5t-21.5 -132.5h-55q-19 93 -33.5 136.5t-56.5 43.5h-272
v-1161q0 -160 37 -224.5t105 -64.5q39 0 68 25.5t39.5 60t-6.5 63.5q-3 5 19 17t56 25t66.5 21.5t49.5 6.5z" />
    <glyph glyph-name="Uhorn" unicode="&#x1af;" horiz-adv-x="1433" 
d="M1288 1207q-68 -14 -105.5 -31t-37.5 -31v-621q0 -262 -129 -408t-345 -146q-137 0 -246 51t-172 156t-63 267v701q0 12 -35 30t-107 32v53h475v-53q-68 -14 -105.5 -31t-37.5 -31v-646q0 -192 83.5 -298t254.5 -106q95 0 157.5 57t93.5 147t31 189v657q0 12 -35 30
t-107 32v53h430v-53zM1436 1392q0 -43 -36 -101.5t-119 -120t-223 -114.5l-21 72q110 43 153.5 95t43.5 88q0 29 -16.5 55t-43.5 49l205 93q25 -22 41 -52.5t16 -63.5z" />
    <glyph glyph-name="uhorn" unicode="&#x1b0;" horiz-adv-x="1299" 
d="M1094 92q-73 -48 -145 -85t-96 -37q-36 0 -60.5 41.5t-32.5 144.5q-83 -79 -146.5 -119t-113 -53.5t-92.5 -13.5q-62 0 -117.5 25t-90.5 92t-35 192v425q0 63 -6.5 91t-33 37t-86.5 15v50q81 9 142.5 23t133.5 40l30 -41v-582q0 -135 37 -182t104 -47q57 0 122.5 34
t151.5 120v442q0 60 -9 89t-38 40t-90 14v50q81 9 152.5 26.5t132.5 36.5l32 -41v-655q0 -122 23 -140q11 -8 38 -3.5t78 26.5zM1303 1042q0 -43 -36 -101.5t-119 -120t-223 -114.5l-21 72q110 43 153.5 95t43.5 88q0 29 -16.5 55t-43.5 49l205 93q25 -22 41 -52.5t16 -63.5
z" />
    <glyph glyph-name="uni01B1" unicode="&#x1b1;" horiz-adv-x="1302" 
d="M1212 1207l-26 -5.5t-63 -15t-70.5 -22.5t-49.5 -29t2 -34q81 -84 131.5 -203.5t50.5 -274.5q0 -108 -39 -222t-112.5 -212t-177 -158.5t-233.5 -60.5q-163 0 -285 81.5t-189.5 219t-67.5 305.5q0 159 52 296t141 229q17 18 1 34t-49 29.5t-69.5 23t-62.5 14.5l-26 5v53
h436l29 -74q-144 -94 -205.5 -236.5t-61.5 -334.5q0 -146 52.5 -263.5t140 -187t190.5 -69.5q106 0 185 64.5t122.5 177.5t43.5 258q0 193 -65 354.5t-189 236.5l32 74h432v-53z" />
    <glyph glyph-name="uni01B2" unicode="&#x1b2;" horiz-adv-x="1288" 
d="M902 1290q71 -12 126 -64t93 -129t57.5 -166.5t19.5 -176.5q0 -167 -45.5 -310t-125.5 -249.5t-184.5 -165.5t-221.5 -59q-119 0 -218.5 51t-159.5 156t-60 267v701q0 12 -35.5 30t-107.5 32v53h475v-53q-67 -14 -104.5 -31t-37.5 -31v-646q0 -192 75 -298t220 -106
q86 0 166.5 70.5t132 201.5t51.5 314q0 73 -19 156.5t-59.5 158t-106 121t-158.5 45.5l-21 64z" />
    <glyph glyph-name="uni01B3.RtHook" unicode="&#x1b3;" horiz-adv-x="1410" 
d="M356 0v53q91 19 126.5 38.5t35.5 33.5v407q-49 108 -113.5 224.5t-128.5 218.5t-110 166q-19 22 -49 37.5t-113 15.5l-4 53q59 8 126 15.5t108 7.5q52 0 86 -41q50 -65 107 -156.5t113.5 -194t102.5 -198.5l232 420q51 92 119 156t187 64q100 0 163 -65.5t63 -153.5
q0 -23 -5 -52t-9 -41q-7 -17 -46 -37.5t-82.5 -37t-63.5 -22.5l-20 39q14 27 26.5 55.5t12.5 64.5q0 48 -24 82t-70 34q-39 0 -69 -32t-53 -74l-296 -543v-412q0 -13 34.5 -33t128.5 -39v-53h-515z" />
    <glyph glyph-name="uni01B4.RtHook" unicode="&#x1b4;" horiz-adv-x="1171" 
d="M426 877q-77 -10 -97.5 -23t-7.5 -45l231 -592l183 527q56 166 125.5 257.5t142.5 127.5t138 36q49 0 88 -14.5t62.5 -32t23.5 -25.5q0 -10 -20.5 -40t-50 -61.5t-55.5 -48.5q-25 25 -59.5 37t-60.5 12q-63 0 -116 -65.5t-96 -181.5l-305 -840q-59 -159 -134.5 -247
t-153.5 -123t-143 -35q-41 0 -81 9t-67 22t-27 27q0 9 21 39t50.5 62t55.5 48q39 -24 72 -30t54 -6q62 0 126.5 58t109.5 178l25 65l-331 837q-9 28 -35.5 42.5t-75.5 25.5v53h408v-53z" />
    <glyph glyph-name="uni01B5" unicode="&#x1b5;" horiz-adv-x="1086" 
d="M1009 313q-2 -43 -4.5 -101.5t-4.5 -115.5t-3 -96h-909l-31 48l698 1102h-436q-33 0 -73.5 -52.5t-62.5 -156.5l-67 14l32 321q54 -12 92.5 -14t97.5 -2h633l28 -45l-693 -1105h501q42 0 70 48.5t67 171.5zM885 606h-686l-23 25l12.5 37.5t14.5 37.5h686l25 -23z" />
    <glyph glyph-name="uni01B6" unicode="&#x1b6;" horiz-adv-x="923" 
d="M847 276q0 -42 -1.5 -98t-4 -105t-6.5 -73h-738l-26 45l546 785h-317q-36 0 -70.5 -36t-56.5 -134l-56 15l20 271q44 -12 78 -14t98 -2h515l22 -43l-549 -787h396q29 0 50 46t45 142zM748 413h-569l-23 22q4 16 11 38t15 38h570l22 -25z" />
    <glyph glyph-name="uni01B7" unicode="&#x1b7;" horiz-adv-x="1080" 
d="M554 738l-235 -129l-41 50l405 491h-364q-33 0 -72.5 -58.5t-59.5 -150.5l-67 14l32 321q43 -12 81 -14t103 -2h576l28 -45zM992 435q0 -141 -73 -245.5t-188 -161.5t-242 -57q-115 0 -204.5 34.5t-140.5 77t-51 66.5q0 9 23.5 38.5t57 59t63.5 36.5q44 -81 126 -133
t165 -52q127 0 208 71t81 215q0 80 -34.5 148t-97.5 109.5t-147 41.5q-56 0 -103.5 -18.5t-115.5 -54.5q-7 5 -21.5 23.5t-19.5 26.5q49 30 116 61.5t136.5 53t126.5 21.5q89 0 165.5 -41.5t123 -122t46.5 -197.5z" />
    <glyph glyph-name="uni01B8" unicode="&#x1b8;" horiz-adv-x="1099" 
d="M137 1215l28 45h576q65 0 103 2t81 14l32 -321l-67 -14q-20 92 -59.5 150.5t-72.5 58.5h-364l335 -409l-48 -60l-160 57zM78 355q0 135 63.5 229t172.5 147.5t247 66.5q39 -12 79 -25t89 -33q-8 -17 -26 -43.5t-35 -44.5q-30 17 -64.5 21.5t-63.5 4.5q-77 0 -141 -33.5
t-102.5 -95t-38.5 -145.5q0 -110 50 -176.5t121.5 -96.5t137.5 -30q68 0 122.5 25t83 73.5t15.5 117.5q36 18 96 35t99 21q7 -10 15.5 -22t14.5 -19q0 -52 -39.5 -114t-108 -118.5t-157.5 -92.5t-187 -36q-117 0 -218 45t-163 131t-62 208z" />
    <glyph glyph-name="uni01B9" unicode="&#x1b9;" horiz-adv-x="949" 
d="M43 -96q0 185 113.5 317t313.5 166l-384 500l24 43h515q65 0 103 2t81 14l21 -271l-57 -15q-21 92 -54.5 131t-72.5 39h-311l356 -465q-11 -23 -42 -59.5t-52 -48.5q-21 10 -44 15.5t-52 5.5q-80 0 -144.5 -42.5t-103 -116t-38.5 -166.5q0 -112 44.5 -187t111 -112.5
t133.5 -37.5q64 0 118 28t79 77.5t3 112.5q36 18 91 34t94 20l27 -30q4 -59 -31 -121.5t-98.5 -116t-146 -87t-173.5 -33.5q-123 0 -219 50.5t-150.5 141.5t-54.5 212z" />
    <glyph glyph-name="uni01BA" unicode="&#x1ba;" horiz-adv-x="921" 
d="M480 464l-268 -175l-40 49l411 492h-318q-38 0 -72 -39t-55 -131l-56 15l21 271q42 -12 78 -14t100 -2h520l25 -43zM813 282q0 -106 -72 -176t-247 -112q-126 -30 -186 -63.5t-77.5 -68t-17.5 -70.5q0 -51 32 -91t83 -62.5t107 -22.5q91 0 143 34t67.5 83.5t-1.5 95.5
q43 21 91.5 34t92.5 19l27 -30q2 -54 -31 -115t-94.5 -114t-145.5 -87t-183 -36q-108 -1 -188 34t-124 94t-44 129q0 111 84 190t281 130q103 26 151.5 52t63.5 53.5t15 60.5q0 47 -37 91.5t-138 44.5q-65 0 -127.5 -24t-125.5 -66q-7 6 -21 23.5t-19 25.5q74 52 179 103
t223 51q56 0 111 -21t91.5 -67t36.5 -122z" />
    <glyph glyph-name="uni01BB" unicode="&#x1bb;" horiz-adv-x="933" 
d="M835 0h-729l-29 74q177 206 289 345t174 230.5t85.5 155t23.5 119.5q0 90 -43 150.5t-143 60.5q-54 0 -93.5 -31.5t-60 -79t-17.5 -95.5q-34 -19 -73.5 -34t-85.5 -20l-29 43q0 51 35 106.5t95.5 103.5t137.5 77.5t159 29.5q132 0 218 -67t86 -206q0 -67 -29.5 -137.5
t-94.5 -162t-172 -218t-263 -305.5h412q33 0 53.5 28t31 64.5t14 64.5l3.5 28l60 -14zM815 493h-597l-23 22q5 15 12 38.5t15 39.5h598l22 -25z" />
    <glyph glyph-name="uni01BC" unicode="&#x1bc;" horiz-adv-x="1049" 
d="M945 404q0 -124 -58 -222.5t-159.5 -155t-233.5 -56.5q-122 0 -205.5 38t-126.5 84t-43 69q0 10 28.5 39t66.5 56t67 31q35 -71 100.5 -130t156.5 -59q112 0 170 77t58 186q0 138 -77.5 215.5t-193.5 77.5q-60 0 -125.5 -17t-131.5 -56q-7 5 -22.5 24t-21.5 27v513
q0 12 -37 30t-109 32v53h838l33 -29q-2 -34 -11 -93t-20.5 -119.5t-21.5 -98.5h-58q-6 128 -18.5 184t-50.5 56h-358v-421q38 14 80.5 21.5t90.5 7.5q104 0 193.5 -38.5t144.5 -119t55 -206.5z" />
    <glyph glyph-name="uni01BD" unicode="&#x1bd;" horiz-adv-x="933" 
d="M851 293q0 -88 -49.5 -161.5t-139.5 -117.5t-213 -44q-111 0 -184 29.5t-109 64.5t-36 52q0 8 25 36t59.5 55t62.5 30q31 -61 84 -115.5t135 -54.5q101 0 143.5 58t42.5 130q0 106 -66.5 164.5t-166.5 58.5q-102 0 -216 -57q-6 4 -20 16.5t-19 18.5v375q0 24 -140 46v53
h754l31 -23q-1 -25 -9.5 -75t-19.5 -101t-20 -79h-55q-6 95 -17.5 136.5t-47.5 41.5h-301v-281q36 10 69 15.5t75 5.5q93 0 172 -30.5t127.5 -92t48.5 -154.5z" />
    <glyph glyph-name="uni01BE" unicode="&#x1be;" horiz-adv-x="857" 
d="M784 283q0 -106 -43 -169t-104.5 -94t-121 -40.5t-93.5 -9.5q-53 0 -125.5 18t-139.5 55q-7 3 -9.5 33.5t-1.5 73.5t5.5 84.5t12.5 66.5l56 -11q8 -84 76 -148t171 -64q72 0 114.5 37.5t42.5 104.5q0 53 -36 91.5t-92.5 69.5t-117.5 63q-55 29 -106.5 63.5t-84 81
t-32.5 111.5q0 33 26.5 53t61 27t61 -0.5t26.5 -29.5q0 -64 62.5 -105.5t146.5 -85.5q58 -29 114 -64.5t93.5 -86t37.5 -125.5zM155 701v124h-126l-24 31l78 74h72v246l142 104l33 -27v-323h325l31 -31q-18 -28 -49.5 -63t-51.5 -46q-24 12 -72 23.5t-125 11.5h-58v-88z" />
    <glyph glyph-name="uni01BF" unicode="&#x1bf;" horiz-adv-x="1060" 
d="M985 662q0 -133 -57.5 -258.5t-191.5 -254t-363 -271.5v-243q0 -16 37.5 -32t131.5 -30v-53h-489v53q66 16 103 30.5t37 31.5v1066q0 50 -8 77t-37 38t-93 14v50q69 15 138 33.5t127 46.5l38 -37l9 -188q96 112 193.5 168.5t176.5 56.5q107 0 177.5 -67t70.5 -231z
M810 596q0 115 -45 169.5t-104 54.5q-55 0 -130.5 -47.5t-157.5 -164.5v-617q243 160 340 311t97 294z" />
    <glyph glyph-name="uni01C0" unicode="&#x1c0;" horiz-adv-x="460" 
d="M305 -445q-18 -16 -53 -31.5t-59 -23.5l-38 26v1973q28 16 55 30t57 21l38 -24v-1971z" />
    <glyph glyph-name="uni01C1" unicode="&#x1c1;" horiz-adv-x="801" 
d="M641 -445q-18 -16 -53 -31.5t-60 -23.5l-37 26v1973q27 16 54.5 30t56.5 21l39 -24v-1971zM310 -445q-18 -16 -52.5 -31.5t-59.5 -23.5l-38 26v1973q28 16 55.5 30t56.5 21l38 -24v-1971z" />
    <glyph glyph-name="uni01C2" unicode="&#x1c2;" horiz-adv-x="701" 
d="M312 -500l-37 26v1973q28 16 55 30t56 21l39 -24v-1971q-18 -16 -53 -31.5t-60 -23.5zM44 380l-25 25q4 17 11.5 39t15.5 38h611l25 -27q-5 -18 -13 -38.5t-14 -36.5h-611zM44 627l-25 25q4 18 11.5 39.5t15.5 38.5h611l25 -27q-5 -18 -13 -38.5t-14 -37.5h-611z" />
    <glyph glyph-name="uni01C3" unicode="&#x1c3;" horiz-adv-x="557" 
d="M246 358l-29 21l-59 1079q40 25 95 51.5t91 40.5l47 -27l-61 -1126q-35 -26 -84 -39zM254 -40q-115 0 -115 120q0 71 46 118.5t108 47.5q52 0 82.5 -30.5t30.5 -89.5q0 -73 -44 -119.5t-108 -46.5z" />
    <glyph glyph-name="uni01C4" unicode="&#x1c4;" horiz-adv-x="2330" 
d="M48 0v53q67 14 104.5 31t37.5 30v1065q-77 -11 -142 -21l-11 72q61 17 147.5 30.5t179.5 21.5t174 8q288 0 453 -162t165 -452q0 -187 -54.5 -316.5t-141 -209t-187.5 -115t-194 -35.5h-66h-139.5h-129h-162.5h-34zM552 92q65 0 135 32.5t130.5 99.5t98 169.5t37.5 243.5
q0 266 -124.5 414t-357.5 148q-44 0 -91 -3v-1037q0 -44 54.5 -55.5t117.5 -11.5zM2253 313q-2 -43 -4.5 -101.5t-4.5 -115.5t-3 -96h-909l-31 48l698 1102h-436q-33 0 -73.5 -52.5t-62.5 -156.5l-67 14l32 321q54 -12 92.5 -14t97.5 -2h633l28 -45l-693 -1105h501
q42 0 70 48.5t67 171.5zM1866 1389h-117l-266 311q14 20 23.5 32.5t26.5 21.5l277 -194l273 194q17 -9 27.5 -21.5t23.5 -32.5z" />
    <glyph glyph-name="uni01C5" unicode="&#x1c5;" horiz-adv-x="2140" 
d="M48 0v53q67 14 104.5 31t37.5 30v1065q-77 -11 -142 -21l-11 72q61 17 147.5 30.5t179.5 21.5t174 8q288 0 453 -162t165 -452q0 -187 -54.5 -316.5t-141 -209t-187.5 -115t-194 -35.5h-66h-139.5h-129h-162.5h-34zM552 92q65 0 135 32.5t130.5 99.5t98 169.5t37.5 243.5
q0 266 -124.5 414t-357.5 148q-44 0 -91 -3v-1037q0 -44 54.5 -55.5t117.5 -11.5zM2091 276q0 -42 -1.5 -98t-4 -105t-6.5 -73h-738l-26 45l546 785h-317q-36 0 -70.5 -36t-56.5 -134l-56 15l20 271q44 -12 78 -14t98 -2h515l22 -43l-549 -787h396q29 0 50 46t45 142z
M1793 1066h-117l-269 365q14 19 25 32t27 22l277 -241l273 241q18 -9 27 -22t21 -32z" />
    <glyph glyph-name="uni01C6" unicode="&#x1c6;" horiz-adv-x="1988" 
d="M1081 94q-186 -124 -247 -124q-43 0 -66 73t-23 239v982q0 74 -7 108.5t-36.5 46.5t-98.5 17v49q91 11 164 29.5t125 35.5l33 -32v-1249q0 -70 6 -100.5t17 -42.5q9 -10 33 -6t82 27zM819 245q-72 -88 -132.5 -149.5t-123 -93.5t-142.5 -32q-79 0 -159 56.5t-133.5 163
t-53.5 254.5q0 91 34.5 182t98 167t150.5 121.5t193 45.5q60 0 121 -20.5t139 -96.5q0 -60 -13.5 -87t-45.5 -46q-33 63 -93 98t-134 35q-118 0 -194 -89t-76 -271q0 -111 39 -192.5t96 -126t112 -44.5q73 0 140 55t138 122q12 -6 23.5 -25t15.5 -27zM1940 276
q0 -42 -1.5 -98t-4 -105t-6.5 -73h-738l-26 45l546 785h-317q-36 0 -70.5 -36t-56.5 -134l-56 15l20 271q44 -12 78 -14t98 -2h515l22 -43l-549 -787h396q29 0 50 46t45 142zM1641 1066h-117l-269 365q14 19 25 32t27 22l277 -241l273 241q18 -9 27 -22t21 -32z" />
    <glyph glyph-name="uni01C7" unicode="&#x1c7;" horiz-adv-x="1643" 
d="M969 264q-7 -86 -20 -160.5t-21 -103.5h-880v53q67 14 104.5 31t37.5 30v1031q0 12 -35 30t-107 32v53h475v-53q-68 -14 -105.5 -31t-37.5 -31v-971q0 -35 38.5 -54.5t147.5 -19.5h133q62 0 99 13.5t63.5 53.5t54.5 118zM1576 1207q-68 -14 -105.5 -31t-37.5 -31v-947
q0 -155 -31 -247.5t-79.5 -148t-100.5 -97.5q-54 -44 -127.5 -70.5t-121.5 -26.5q-47 0 -90.5 15.5t-71.5 36t-28 33.5q0 12 25.5 38t57.5 50.5t51 31.5q55 -41 92 -54t76 -13q35 0 71.5 29.5t61.5 111.5t25 239v1019q0 12 -36 28.5t-156 33.5v53h525v-53z" />
    <glyph glyph-name="uni01C8" unicode="&#x1c8;" horiz-adv-x="1548" 
d="M969 264q-7 -86 -20 -160.5t-21 -103.5h-880v53q67 14 104.5 31t37.5 30v1031q0 12 -35 30t-107 32v53h475v-53q-68 -14 -105.5 -31t-37.5 -31v-971q0 -35 38.5 -54.5t147.5 -19.5h133q62 0 99 13.5t63.5 53.5t54.5 118zM1412 1261q0 -60 -38 -101t-95 -41
q-102 0 -102 101q0 61 38.5 101t93.5 40q47 0 75 -25t28 -75zM1378 102q0 -154 -28.5 -247.5t-74.5 -150.5t-99 -99q-54 -42 -121 -72t-111 -30q-45 0 -88.5 14t-71.5 32t-28 30q0 14 27 41t61 53t54 35q32 -32 72.5 -45t77.5 -13t71.5 32.5t56.5 117.5t22 243v620
q0 68 -6 101.5t-34.5 47t-96.5 21.5v50q90 15 146.5 33t123.5 44h47v-858z" />
    <glyph glyph-name="uni01C9" unicode="&#x1c9;" horiz-adv-x="1125" 
d="M58 0v53q86 15 116.5 30t30.5 31v1172q0 59 -11 84.5t-40.5 34.5t-85.5 15v50q81 14 146 31t133 49l38 -36v-1400q0 -15 33 -31t115 -30v-53h-475zM989 1261q0 -60 -38 -101t-95 -41q-102 0 -102 101q0 61 38.5 101t93.5 40q47 0 75 -25t28 -75zM955 102
q0 -154 -28.5 -247.5t-74.5 -150.5t-99 -99q-54 -42 -121 -72t-111 -30q-45 0 -88.5 14t-71.5 32t-28 30q0 14 27 41t61 53t54 35q32 -32 72.5 -45t77.5 -13t71.5 32.5t56.5 117.5t22 243v620q0 68 -6 101.5t-34.5 47t-96.5 21.5v50q90 15 146.5 33t123.5 44h47v-858z" />
    <glyph glyph-name="uni01CA" unicode="&#x1ca;" horiz-adv-x="1984" 
d="M1293 1207q-72 -10 -107.5 -29t-35.5 -33v-1113l-130 39v1074q0 12 -31 31.5t-111 30.5v53h415v-53zM1150 -30q-65 7 -103.5 26t-55.5 43l-753 1044q-41 57 -89.5 86.5t-100.5 37.5v53h234q29 0 44 -13t52 -65l649 -896q14 -20 43.5 -58t54.5 -69l25 -31v-158zM48 0v53
q73 9 107.5 28.5t34.5 32.5v1072l130 35v-1107q0 -12 32.5 -31t110.5 -30v-53h-415zM1917 1207q-68 -14 -105.5 -31t-37.5 -31v-947q0 -155 -31 -247.5t-79.5 -148t-100.5 -97.5q-54 -44 -127.5 -70.5t-121.5 -26.5q-47 0 -90.5 15.5t-71.5 36t-28 33.5q0 12 25.5 38
t57.5 50.5t51 31.5q55 -41 92 -54t76 -13q35 0 71.5 29.5t61.5 111.5t25 239v1019q0 12 -36 28.5t-156 33.5v53h525v-53z" />
    <glyph glyph-name="uni01CB" unicode="&#x1cb;" horiz-adv-x="1889" 
d="M1293 1207q-72 -10 -107.5 -29t-35.5 -33v-1113l-130 39v1074q0 12 -31 31.5t-111 30.5v53h415v-53zM1150 -30q-65 7 -103.5 26t-55.5 43l-753 1044q-41 57 -89.5 86.5t-100.5 37.5v53h234q29 0 44 -13t52 -65l649 -896q14 -20 43.5 -58t54.5 -69l25 -31v-158zM48 0v53
q73 9 107.5 28.5t34.5 32.5v1072l130 35v-1107q0 -12 32.5 -31t110.5 -30v-53h-415zM1753 1261q0 -60 -38 -101t-95 -41q-102 0 -102 101q0 61 38.5 101t93.5 40q47 0 75 -25t28 -75zM1719 102q0 -154 -28.5 -247.5t-74.5 -150.5t-99 -99q-54 -42 -121 -72t-111 -30
q-45 0 -88.5 14t-71.5 32t-28 30q0 14 27 41t61 53t54 35q32 -32 72.5 -45t77.5 -13t71.5 32.5t56.5 117.5t22 243v620q0 68 -6 101.5t-34.5 47t-96.5 21.5v50q90 15 146.5 33t123.5 44h47v-858z" />
    <glyph glyph-name="uni01CC" unicode="&#x1cc;" horiz-adv-x="1700" 
d="M668 0v53q137 36 137 61v504q0 118 -27 156.5t-93 38.5q-57 0 -137.5 -51.5t-177.5 -182.5v-465q0 -15 36.5 -31t101.5 -30v-53h-455v53q66 17 101.5 31t35.5 30v590q0 52 -6.5 76.5t-35.5 34.5t-95 18v50q76 10 139.5 29.5t125.5 47.5l37 -37l11 -214
q97 122 208.5 186.5t189.5 64.5q86 0 153.5 -55t67.5 -176v-615q0 -13 29.5 -27t108.5 -34v-53h-455zM1564 1261q0 -60 -38 -101t-95 -41q-102 0 -102 101q0 61 38.5 101t93.5 40q47 0 75 -25t28 -75zM1530 102q0 -154 -28.5 -247.5t-74.5 -150.5t-99 -99q-54 -42 -121 -72
t-111 -30q-45 0 -88.5 14t-71.5 32t-28 30q0 14 27 41t61 53t54 35q32 -32 72.5 -45t77.5 -13t71.5 32.5t56.5 117.5t22 243v620q0 68 -6 101.5t-34.5 47t-96.5 21.5v50q90 15 146.5 33t123.5 44h47v-858z" />
    <glyph glyph-name="uni01CD" unicode="&#x1cd;" horiz-adv-x="1242" 
d="M385 440l-106 -319q-10 -31 26 -45t118 -23v-53h-423v53q68 12 107 25t49 43l364 1106q31 30 74 52.5t78 37.5l420 -1196q10 -28 37 -44t92 -24v-53h-447v53q77 5 106.5 20t18.5 48l-110 319h-404zM754 540l-172 498l-164 -498h336zM670 1389h-117l-266 311
q14 20 23.5 32.5t26.5 21.5l277 -194l273 194q17 -9 27.5 -21.5t23.5 -32.5z" />
    <glyph glyph-name="uni01CE" unicode="&#x1ce;" horiz-adv-x="968" 
d="M956 92q-85 -58 -151.5 -90t-97.5 -32q-37 0 -60.5 52.5t-23.5 141.5v533q0 66 -32.5 110.5t-122.5 42.5q-59 -1 -108 -37t-43 -96q1 -10 -24.5 -22t-62 -23t-69 -17t-44.5 -3l-16 44q31 71 104.5 131t168 96.5t188.5 36.5q118 0 179.5 -61.5t61.5 -163.5v-537
q0 -78 40 -78q14 0 35 5.5t61 21.5zM633 483q-105 -17 -164 -33t-90 -34t-52 -39q-26 -27 -42 -60t-16 -78q0 -50 18.5 -77t43 -37t41.5 -10q54 0 118 29.5t143 99.5l8 -87q-94 -101 -187 -144t-161 -43q-51 0 -101 23t-83.5 72t-33.5 126q0 74 26 123.5t63 86.5
q32 33 80 61.5t138.5 54t250.5 49.5v-83zM551 1066h-117l-269 365q14 19 25 32t27 22l277 -241l273 241q18 -9 27 -22t21 -32z" />
    <glyph glyph-name="uni01CF" unicode="&#x1cf;" horiz-adv-x="630" 
d="M68 0v53q67 14 104.5 31t37.5 30v1031q0 12 -35 30t-107 32v53h475v-53q-68 -14 -105.5 -31t-37.5 -31v-1031q0 -12 35.5 -29.5t107.5 -31.5v-53h-475zM364 1389h-117l-266 311q14 20 23.5 32.5t26.5 21.5l277 -194l273 194q17 -9 27.5 -21.5t23.5 -32.5z" />
    <glyph glyph-name="uni01D0" unicode="&#x1d0;" horiz-adv-x="575" 
d="M68 0v53q137 28 137 61v549q0 68 -5 102t-33.5 47.5t-98.5 20.5v50q70 12 143 32t130 45h44v-846q0 -12 32.5 -29.5t105.5 -31.5v-53h-455zM354 1066h-117l-269 365q14 19 25 32t27 22l277 -241l273 241q18 -9 27 -22t21 -32z" />
    <glyph glyph-name="uni01D1" unicode="&#x1d1;" horiz-adv-x="1244" 
d="M584 -30q-122 0 -218 52.5t-163 142.5t-101.5 205.5t-34.5 241.5q0 136 43.5 258.5t121.5 217t183 148.5t227 54q127 0 223.5 -54t162 -145.5t99 -206.5t33.5 -237q0 -136 -46 -258t-126 -216.5t-183.5 -148.5t-220.5 -54zM618 95q155 0 254.5 134.5t99.5 399.5
q0 104 -26 200.5t-74.5 173.5t-116 122t-149.5 45q-167 0 -259.5 -142t-92.5 -387q0 -149 50 -273.5t132.5 -198.5t181.5 -74zM684 1389h-117l-266 311q14 20 23.5 32.5t26.5 21.5l277 -194l273 194q17 -9 27.5 -21.5t23.5 -32.5z" />
    <glyph glyph-name="uni01D2" unicode="&#x1d2;" horiz-adv-x="1045" 
d="M970 485q0 -100 -37 -192t-102 -165t-149.5 -115.5t-177.5 -42.5q-130 0 -226.5 62t-149.5 169t-53 243q0 99 35.5 191.5t99.5 166t149 116t184 42.5q129 0 225 -62t149 -169t53 -244zM783 450q0 106 -39 195.5t-100.5 144.5t-129.5 55q-96 0 -150.5 -49t-77.5 -133.5
t-23 -189.5t41.5 -193.5t103.5 -141.5t124 -53q134 0 192.5 98t58.5 267zM602 1066h-117l-269 365q14 19 25 32t27 22l277 -241l273 241q18 -9 27 -22t21 -32z" />
    <glyph glyph-name="uni01D3" unicode="&#x1d3;" horiz-adv-x="1349" 
d="M1288 1207q-68 -14 -105.5 -31t-37.5 -31v-621q0 -262 -129 -408t-345 -146q-137 0 -246 51t-172 156t-63 267v701q0 12 -35 30t-107 32v53h475v-53q-68 -14 -105.5 -31t-37.5 -31v-646q0 -192 83.5 -298t254.5 -106q95 0 157.5 57t93.5 147t31 189v657q0 12 -35 30
t-107 32v53h430v-53zM741 1389h-117l-266 311q14 20 23.5 32.5t26.5 21.5l277 -194l273 194q17 -9 27.5 -21.5t23.5 -32.5z" />
    <glyph glyph-name="uni01D4" unicode="&#x1d4;" horiz-adv-x="1108" 
d="M1094 92q-73 -48 -145 -85t-96 -37q-36 0 -60.5 41.5t-32.5 144.5q-83 -79 -146.5 -119t-113 -53.5t-92.5 -13.5q-62 0 -117.5 25t-90.5 92t-35 192v425q0 63 -6.5 91t-33 37t-86.5 15v50q81 9 142.5 23t133.5 40l30 -41v-582q0 -135 37 -182t104 -47q57 0 122.5 34
t151.5 120v442q0 60 -9 89t-38 40t-90 14v50q81 9 152.5 26.5t132.5 36.5l32 -41v-655q0 -122 23 -140q11 -8 38 -3.5t78 26.5zM615 1066h-117l-269 365q14 19 25 32t27 22l277 -241l273 241q18 -9 27 -22t21 -32z" />
    <glyph glyph-name="uni01D5" unicode="&#x1d5;" horiz-adv-x="1349" 
d="M1288 1207q-68 -14 -105.5 -31t-37.5 -31v-621q0 -262 -129 -408t-345 -146q-137 0 -246 51t-172 156t-63 267v701q0 12 -35 30t-107 32v53h475v-53q-68 -14 -105.5 -31t-37.5 -31v-646q0 -192 83.5 -298t254.5 -106q95 0 157.5 57t93.5 147t31 189v657q0 12 -35 30
t-107 32v53h430v-53zM590 1543q0 -62 -37.5 -106t-91.5 -44q-96 0 -96 105q0 62 38.5 105.5t90.5 43.5q96 0 96 -104zM998 1543q0 -62 -37.5 -106t-92.5 -44q-95 0 -95 105q0 62 38.5 105.5t90.5 43.5q96 0 96 -104zM1049 1885q-5 -22 -21 -59.5t-23 -55.5h-650l-25 27
q4 22 20 58.5t26 55.5h648z" />
    <glyph glyph-name="uni01D6" unicode="&#x1d6;" horiz-adv-x="1108" 
d="M1094 92q-73 -48 -145 -85t-96 -37q-36 0 -60.5 41.5t-32.5 144.5q-83 -79 -146.5 -119t-113 -53.5t-92.5 -13.5q-62 0 -117.5 25t-90.5 92t-35 192v425q0 63 -6.5 91t-33 37t-86.5 15v50q81 9 142.5 23t133.5 40l30 -41v-582q0 -135 37 -182t104 -47q57 0 122.5 34
t151.5 120v442q0 60 -9 89t-38 40t-90 14v50q81 9 152.5 26.5t132.5 36.5l32 -41v-655q0 -122 23 -140q11 -8 38 -3.5t78 26.5zM465 1263q0 -62 -38 -106t-92 -44q-95 0 -95 105q0 62 38 105.5t90 43.5q97 0 97 -104zM872 1263q0 -62 -37.5 -106t-91.5 -44q-96 0 -96 105
q0 62 38.5 105.5t90.5 43.5q96 0 96 -104zM931 1688q-5 -22 -21 -59.5t-24 -55.5h-665l-25 27q5 22 20.5 58.5t25.5 55.5h663z" />
    </font>
</defs>
</svg>
